<?xml version="1.0" encoding="UTF-8"?>
<svg id="Layer_1" xmlns="http://www.w3.org/2000/svg" width="104" height="104" version="1.1" viewBox="0 0 104 104">
  <!-- Generator: Adobe Illustrator 30.0.0, SVG Export Plug-In . SVG Version: 2.1.1 Build 123)  -->
  <defs>
    <style>
      .st0 {
        fill: #616161;
      }
    </style>
  </defs>
  <path class="st0" d="M72.89,58.54c-1.76,2.1-2.92,3.34-2.94,3.35l-.08.09c-5.79,7.14-10.03,11.27-17.31,16.83-8.98-6.98-15.25-13.05-20.31-19.67l-.43-.55c-.51-.66-1.45-.78-2.1-.27-.65.51-.77,1.45-.27,2.1l.42.54c5.29,6.92,11.83,13.24,21.22,20.5.42.32.95.48,1.47.48s1.05-.16,1.46-.48c7.7-5.85,12.11-10.12,18.14-17.56.23-.24,1.36-1.46,3.02-3.45.53-.63.45-1.58-.19-2.11-.63-.53-1.58-.45-2.11.19Z"/>
  <path class="st0" d="M21.93,49.73c.41.72,1.32.98,2.04.57.72-.41.98-1.32.57-2.04-.88-1.58-1.2-2.26-1.29-2.5-.89-2.35-1.25-4.07-1.25-5.92,0-8.19,7-14.85,15.6-14.85,5.44,0,10.44,2.66,13.37,7.12l.06.09c.4.52.97.81,1.56.81h0c.6,0,1.17-.3,1.56-.81l.07-.1c2.8-4.38,7.92-7.11,13.36-7.11,4.3,0,8.44,1.72,11.37,4.73,2.68,2.75,4.1,6.3,4.01,10.04,0,1.99-.49,3.68-1.33,5.91-.41,1.07-.77,1.87-1.17,2.6-.4.73-.12,1.64.6,2.03.23.12.47.18.71.18.53,0,1.05-.28,1.32-.79.46-.85.87-1.76,1.34-2.97.77-2.05,1.53-4.28,1.52-6.94.12-4.52-1.61-8.84-4.86-12.17-3.49-3.58-8.42-5.64-13.52-5.64-5.92,0-11.53,2.74-15,7.24-3.55-4.56-9.05-7.24-14.99-7.24-10.26,0-18.6,8.01-18.6,17.85,0,2.77.7,4.99,1.46,7.01.24.59.73,1.56,1.47,2.88Z"/>
  <path class="st0" d="M89.75,52.78h-20.8c-.57,0-1.08-.32-1.34-.83l-3.31-6.58c-.66-1.32-2.04-2.06-3.5-1.91-1.47.16-2.65,1.18-3.01,2.61l-4.08,15.92c-.07.26-.25.36-.5.38-.26,0-.42-.14-.48-.4l-4.96-24.03c-.31-1.52-1.57-2.64-3.12-2.78-1.54-.14-2.98.74-3.56,2.18l-5.83,14.5c-.23.57-.78.94-1.39.94H13.75c-.83,0-1.5.67-1.5,1.5s.67,1.5,1.5,1.5h20.12c1.85,0,3.49-1.11,4.17-2.82l5.83-14.5c.11-.28.34-.32.51-.31.17.02.38.1.45.4l4.96,24.03c.34,1.63,1.68,2.75,3.34,2.79.03,0,.06,0,.09,0,1.62,0,2.98-1.05,3.38-2.63l4.08-15.92c.07-.28.27-.36.43-.37.15-.02.37.02.5.27l3.31,6.58c.77,1.53,2.31,2.48,4.02,2.48h20.8c.83,0,1.5-.67,1.5-1.5s-.67-1.5-1.5-1.5Z"/>
</svg>