<?xml version="1.0" encoding="utf-8"?>
<!-- Generator: Adobe Illustrator 26.0.1, SVG Export Plug-In . SVG Version: 6.00 Build 0)  -->
<svg version="1.1" id="Layer_1" xmlns="http://www.w3.org/2000/svg" xmlns:xlink="http://www.w3.org/1999/xlink" x="0px" y="0px"
	 width="1039.2px" height="749.8px" viewBox="0 0 1039.2 749.8" style="enable-background:new 0 0 1039.2 749.8;"
	 xml:space="preserve">
<style type="text/css">
	.st0{fill:#307EB2;}
	.st1{fill:#FFFFFF;}
	.st2{fill:#474748;}
	.st3{fill:#E3E1DC;}
	.st4{fill:#928883;}
</style>
<g>
	<rect x="598.5" y="231" class="st0" width="8" height="33.8"/>
</g>
<g>
	<rect x="525.4" y="452.2" class="st0" width="8" height="36"/>
</g>
<g>
	<rect x="904.7" y="458.8" class="st0" width="8" height="30.5"/>
</g>
<g>
	<rect x="631.1" y="617.9" class="st0" width="8" height="28.3"/>
</g>
<g>
	<rect x="420.8" y="80.6" class="st0" width="8" height="36"/>
</g>
<g>
	<polygon class="st0" points="795.9,698.5 787.9,698.5 787.9,652.9 579,652.9 579,698.5 571,698.5 571,644.9 795.9,644.9 	"/>
</g>
<g>
	<polygon class="st0" points="983.5,556.7 975.5,556.7 975.5,494.4 853.8,494.4 853.8,556.7 845.8,556.7 845.8,486.4 983.5,486.4 	
		"/>
</g>
<g>
	<polygon class="st0" points="689.1,698.5 681.1,698.5 681.1,652.9 473.3,652.9 473.3,698.5 465.3,698.5 465.3,644.9 689.1,644.9 	
		"/>
</g>
<g>
	<polygon class="st0" points="633.7,554.5 625.7,554.5 625.7,492.2 468.1,492.2 468.1,554.5 460.1,554.5 460.1,484.2 633.7,484.2 	
		"/>
</g>
<g>
	<polygon class="st0" points="910.5,398.8 902.5,398.8 902.5,270.4 552,270.4 552,398.8 544,398.8 544,262.4 910.5,262.4 	"/>
</g>
<g>
	<path class="st1" d="M995.5,465.5H821.2c-4.4,0-8-3.6-8-8v-63c0-4.4,3.6-8,8-8h174.3c4.4,0,8,3.6,8,8v63
		C1003.5,461.9,999.9,465.5,995.5,465.5z"/>
	<path class="st2" d="M995.5,466H821.2c-4.7,0-8.5-3.8-8.5-8.5v-63c0-4.7,3.8-8.5,8.5-8.5h174.3c4.7,0,8.5,3.8,8.5,8.5v63
		C1004,462.2,1000.2,466,995.5,466z M821.2,387c-4.1,0-7.5,3.4-7.5,7.5v63c0,4.1,3.4,7.5,7.5,7.5h174.3c4.1,0,7.5-3.4,7.5-7.5v-63
		c0-4.1-3.4-7.5-7.5-7.5H821.2z"/>
</g>
<g>
	<g>
		<path class="st2" d="M852.6,408.9l-1,2.5h-2.5l4.7-12.4h1.8l4.6,12.4h-2.5l-0.9-2.5H852.6z M854.7,402.6L854.7,402.6l-1.4,4.4h2.9
			L854.7,402.6z"/>
	</g>
	<g>
		<path class="st2" d="M864.1,404.3c0.5-0.6,1.3-1,2.2-1c2.2,0,3.6,2.1,3.6,4.1c0,2.1-1.3,4.2-3.6,4.2c-0.8,0-1.6-0.4-2.1-1h0v4.9
			h-2.2v-12.1h2.2V404.3z M867.6,407.5c0-1.1-0.7-2.2-1.9-2.2s-1.9,1.1-1.9,2.2c0,1.1,0.7,2.2,1.9,2.2S867.6,408.6,867.6,407.5z"/>
	</g>
	<g>
		<path class="st2" d="M874.1,404.3c0.5-0.6,1.3-1,2.2-1c2.2,0,3.6,2.1,3.6,4.1c0,2.1-1.3,4.2-3.6,4.2c-0.8,0-1.6-0.4-2.1-1h0v4.9
			h-2.2v-12.1h2.2V404.3z M877.6,407.5c0-1.1-0.7-2.2-1.9-2.2s-1.9,1.1-1.9,2.2c0,1.1,0.7,2.2,1.9,2.2S877.6,408.6,877.6,407.5z"/>
	</g>
	<g>
		<path class="st2" d="M884.1,411.5h-2.2v-13.6h2.2V411.5z"/>
	</g>
	<g>
		<path class="st2" d="M885.6,403.6h2.5l1.9,4.5l2-4.5h2.5l-5.7,12.1h-2.5l2.6-5.4L885.6,403.6z"/>
	</g>
	<g>
		<path class="st2" d="M901.2,403.9l2.3-4.8l1.5,0.2l-1.7,4.9L901.2,403.9z M904.3,403.9l2.3-4.8l1.5,0.2l-1.7,4.9L904.3,403.9z"/>
	</g>
	<g>
		<path class="st2" d="M917.7,411c0,2.6-0.9,4.7-3.8,4.7c-1.9,0-3.9-1.2-4-3.3h2.4c0.1,0.8,0.7,1.4,1.6,1.4c1.6,0,1.6-1.4,1.6-2.6
			v-0.5h0c-0.5,0.6-1.3,1-2.1,1c-2.3,0-3.5-2-3.5-4.1c0-2.2,1.3-4.2,3.6-4.2c0.8,0,1.6,0.4,2,1h0v-0.8h2.2V411z M915.7,407.5
			c0-1.1-0.7-2.2-1.9-2.2s-1.9,1.2-1.9,2.2c0,1.1,0.7,2.2,1.9,2.2S915.7,408.6,915.7,407.5z"/>
	</g>
	<g>
		<path class="st2" d="M922.5,411.5h-2.2v-13.6h2.2V411.5z"/>
	</g>
	<g>
		<path class="st2" d="M932.7,407.5c0,2.4-1.7,4.2-4.1,4.2s-4.1-1.7-4.1-4.2c0-2.4,1.7-4.2,4.1-4.2S932.7,405.1,932.7,407.5z
			 M926.7,407.5c0,1.1,0.7,2.2,1.9,2.2s1.9-1.1,1.9-2.2c0-1.1-0.7-2.2-1.9-2.2S926.7,406.4,926.7,407.5z"/>
	</g>
	<g>
		<path class="st2" d="M934.7,397.9h2.2v6.4c0.5-0.6,1.3-1,2.2-1c2.2,0,3.6,2.1,3.6,4.1c0,2.1-1.3,4.2-3.6,4.2c-0.8,0-1.6-0.4-2.1-1
			h0v0.7h-2.2V397.9z M940.5,407.5c0-1.1-0.7-2.2-1.9-2.2s-1.9,1.1-1.9,2.2c0,1.1,0.7,2.2,1.9,2.2S940.5,408.6,940.5,407.5z"/>
	</g>
	<g>
		<path class="st2" d="M952.2,411.5H950v-0.7h0c-0.5,0.6-1.3,1-2.1,1c-2.3,0-3.6-2.1-3.6-4.2c0-2.1,1.3-4.1,3.6-4.1
			c0.8,0,1.6,0.4,2.2,1v-0.7h2.2V411.5z M950.2,407.5c0-1.1-0.7-2.2-1.9-2.2c-1.2,0-1.9,1.1-1.9,2.2c0,1.1,0.7,2.2,1.9,2.2
			C949.5,409.7,950.2,408.6,950.2,407.5z"/>
	</g>
	<g>
		<path class="st2" d="M957,411.5h-2.2v-13.6h2.2V411.5z"/>
	</g>
	<g>
		<path class="st2" d="M963,399.3l-2.3,4.8l-1.5-0.2l1.7-4.9L963,399.3z M966.1,399.3l-2.3,4.8l-1.5-0.2l1.7-4.9L966.1,399.3z"/>
	</g>
	<g>
		<path class="st2" d="M833.2,419.5c0,0.7-0.6,1.3-1.3,1.3s-1.3-0.6-1.3-1.3c0-0.7,0.6-1.3,1.3-1.3S833.2,418.8,833.2,419.5z
			 M833,430.7h-2.2v-7.9h2.2V430.7z"/>
	</g>
	<g>
		<path class="st2" d="M837.9,423.5L837.9,423.5c0.5-0.7,1.3-1,2.1-1c2.1,0,2.7,1.5,2.7,3.3v4.8h-2.2v-4.2c0-0.9,0-2.2-1.2-2.2
			c-1.3,0-1.3,1.5-1.3,2.4v3.9h-2.2v-7.9h2.2V423.5z"/>
	</g>
	<g>
		<path class="st2" d="M847.8,430.7h-2.2v-6h-0.8v-1.9h0.8v-2.7h2.2v2.7h1.4v1.9h-1.4V430.7z"/>
	</g>
	<g>
		<path class="st2" d="M852.4,427.1c0,1,0.4,2.1,1.6,2.1c0.7,0,1.2-0.4,1.5-1.1l2.1,0.3c-0.5,1.6-1.9,2.4-3.6,2.4
			c-2.4,0-3.9-1.7-3.9-4.1c0-2.4,1.3-4.3,3.8-4.3c2.6,0,3.7,1.9,3.7,4.3v0.3H852.4z M855.5,425.7c-0.1-0.8-0.6-1.6-1.5-1.6
			c-0.9,0-1.4,0.8-1.5,1.6H855.5z"/>
	</g>
	<g>
		<path class="st2" d="M861.8,423.6L861.8,423.6c0.5-0.7,1.2-1.1,2-1.1c0.3,0,0.6,0.1,0.9,0.2l-0.3,2.1c-0.3-0.2-0.6-0.3-0.9-0.3
			c-1.6,0-1.7,1.4-1.7,2.6v3.5h-2.2v-7.9h2.2V423.6z"/>
	</g>
	<g>
		<path class="st2" d="M868.6,423.5c0.5-0.6,1.3-1,2.2-1c2.2,0,3.6,2.1,3.6,4.1c0,2.1-1.3,4.2-3.6,4.2c-0.8,0-1.6-0.4-2.1-1h0v4.9
			h-2.2v-12.1h2.2V423.5z M872.1,426.7c0-1.1-0.7-2.2-1.9-2.2s-1.9,1.1-1.9,2.2c0,1.1,0.7,2.2,1.9,2.2S872.1,427.8,872.1,426.7z"/>
	</g>
	<g>
		<path class="st2" d="M878.6,423.6L878.6,423.6c0.5-0.7,1.2-1.1,2-1.1c0.3,0,0.6,0.1,0.9,0.2l-0.3,2.1c-0.3-0.2-0.6-0.3-0.9-0.3
			c-1.6,0-1.7,1.4-1.7,2.6v3.5h-2.2v-7.9h2.2V423.6z"/>
	</g>
	<g>
		<path class="st2" d="M885,427.1c0,1,0.4,2.1,1.6,2.1c0.7,0,1.2-0.4,1.5-1.1l2.1,0.3c-0.5,1.6-1.9,2.4-3.6,2.4
			c-2.4,0-3.9-1.7-3.9-4.1c0-2.4,1.3-4.3,3.8-4.3c2.6,0,3.7,1.9,3.7,4.3v0.3H885z M888.1,425.7c-0.1-0.8-0.6-1.6-1.5-1.6
			c-0.9,0-1.4,0.8-1.5,1.6H888.1z"/>
	</g>
	<g>
		<path class="st2" d="M894.7,430.7h-2.2v-6h-0.8v-1.9h0.8v-2.7h2.2v2.7h1.4v1.9h-1.4V430.7z"/>
	</g>
	<g>
		<path class="st2" d="M905,430.7h-2.2v-0.7h0c-0.5,0.6-1.3,1-2.1,1c-2.3,0-3.6-2.1-3.6-4.2c0-2.1,1.3-4.1,3.6-4.1
			c0.8,0,1.6,0.4,2.2,1v-0.7h2.2V430.7z M903,426.7c0-1.1-0.7-2.2-1.9-2.2s-1.9,1.1-1.9,2.2c0,1.1,0.7,2.2,1.9,2.2
			S903,427.8,903,426.7z"/>
	</g>
	<g>
		<path class="st2" d="M907.6,417.1h2.2v6.4c0.5-0.6,1.3-1,2.2-1c2.2,0,3.6,2.1,3.6,4.1c0,2.1-1.3,4.2-3.6,4.2c-0.8,0-1.6-0.4-2.1-1
			h0v0.7h-2.2V417.1z M913.3,426.7c0-1.1-0.7-2.2-1.9-2.2s-1.9,1.1-1.9,2.2c0,1.1,0.7,2.2,1.9,2.2S913.3,427.8,913.3,426.7z"/>
	</g>
	<g>
		<path class="st2" d="M920.1,419.5c0,0.7-0.6,1.3-1.3,1.3s-1.3-0.6-1.3-1.3c0-0.7,0.6-1.3,1.3-1.3S920.1,418.8,920.1,419.5z
			 M919.9,430.7h-2.2v-7.9h2.2V430.7z"/>
	</g>
	<g>
		<path class="st2" d="M924.8,430.7h-2.2v-13.6h2.2V430.7z"/>
	</g>
	<g>
		<path class="st2" d="M929.9,419.5c0,0.7-0.6,1.3-1.3,1.3s-1.3-0.6-1.3-1.3c0-0.7,0.6-1.3,1.3-1.3S929.9,418.8,929.9,419.5z
			 M929.7,430.7h-2.2v-7.9h2.2V430.7z"/>
	</g>
	<g>
		<path class="st2" d="M934.9,430.7h-2.2v-6h-0.8v-1.9h0.8v-2.7h2.2v2.7h1.4v1.9h-1.4V430.7z"/>
	</g>
	<g>
		<path class="st2" d="M936.6,422.8h2.5l1.9,4.5l2-4.5h2.5l-5.7,12.1h-2.5l2.6-5.4L936.6,422.8z"/>
	</g>
	<g>
		<path class="st2" d="M960,430.7h-2.2v-0.7h0c-0.5,0.6-1.3,1-2.1,1c-2.3,0-3.6-2.1-3.6-4.2c0-2.1,1.3-4.1,3.6-4.1
			c0.8,0,1.6,0.4,2.2,1v-0.7h2.2V430.7z M958,426.7c0-1.1-0.7-2.2-1.9-2.2c-1.2,0-1.9,1.1-1.9,2.2c0,1.1,0.7,2.2,1.9,2.2
			C957.3,428.9,958,427.8,958,426.7z"/>
	</g>
	<g>
		<path class="st2" d="M964.8,423.5L964.8,423.5c0.5-0.7,1.3-1,2.1-1c2.1,0,2.7,1.5,2.7,3.3v4.8h-2.2v-4.2c0-0.9,0-2.2-1.2-2.2
			c-1.3,0-1.3,1.5-1.3,2.4v3.9h-2.2v-7.9h2.2V423.5z"/>
	</g>
	<g>
		<path class="st2" d="M977.4,429.9L977.4,429.9c-0.5,0.6-1.3,1-2.1,1c-2.3,0-3.6-2.1-3.6-4.2c0-2.1,1.3-4.1,3.6-4.1
			c0.8,0,1.6,0.4,2.1,1h0v-6.4h2.2v13.6h-2.2V429.9z M977.6,426.7c0-1.1-0.7-2.2-1.9-2.2c-1.2,0-1.9,1.1-1.9,2.2
			c0,1.1,0.7,2.2,1.9,2.2C976.9,428.9,977.6,427.8,977.6,426.7z"/>
	</g>
	<g>
		<path class="st2" d="M849.1,442.4L849.1,442.4l-2.8,7.7h-0.8l-2.6-7.7h0l-1.1,7.5h-2.4l2-12.4h1.7l3,8l2.8-8h1.7l1.8,12.4h-2.4
			L849.1,442.4z"/>
	</g>
	<g>
		<path class="st2" d="M861.8,449.9h-2.2v-0.7h0c-0.5,0.6-1.3,1-2.1,1c-2.3,0-3.6-2.1-3.6-4.2c0-2.1,1.3-4.1,3.6-4.1
			c0.8,0,1.6,0.4,2.2,1V442h2.2V449.9z M859.8,445.9c0-1.1-0.7-2.2-1.9-2.2c-1.2,0-1.9,1.1-1.9,2.2c0,1.1,0.7,2.2,1.9,2.2
			C859.1,448.1,859.8,447,859.8,445.9z"/>
	</g>
	<g>
		<path class="st2" d="M869.7,444.4c-0.5-0.5-1-0.8-1.6-0.8c-1.3,0-2,1.2-2,2.3c0,1.2,0.8,2.3,2.1,2.3c0.6,0,1.2-0.3,1.6-0.8v2.2
			c-0.6,0.3-1.2,0.5-1.9,0.5c-2.3,0-4-1.9-4-4.2c0-2.3,1.7-4.2,4.1-4.2c0.6,0,1.3,0.2,1.8,0.5V444.4z"/>
	</g>
	<g>
		<path class="st2" d="M874.3,436.3v6.4h0c0.5-0.6,1.2-0.9,2-0.9c2.1,0,2.7,1.5,2.7,3.3v4.8h-2.2v-4.2c0-0.9,0-2.2-1.2-2.2
			c-1.3,0-1.3,1.5-1.3,2.4v3.9h-2.2v-13.6H874.3z"/>
	</g>
	<g>
		<path class="st2" d="M884.2,438.7c0,0.7-0.6,1.3-1.3,1.3s-1.3-0.6-1.3-1.3c0-0.7,0.6-1.3,1.3-1.3S884.2,438,884.2,438.7z
			 M884,449.9h-2.2V442h2.2V449.9z"/>
	</g>
	<g>
		<path class="st2" d="M888.9,442.7L888.9,442.7c0.5-0.7,1.3-1,2.1-1c2.1,0,2.7,1.5,2.7,3.3v4.8h-2.2v-4.2c0-0.9,0-2.2-1.2-2.2
			c-1.3,0-1.3,1.5-1.3,2.4v3.9h-2.2V442h2.2V442.7z"/>
	</g>
	<g>
		<path class="st2" d="M898.1,446.3c0,1,0.4,2.1,1.6,2.1c0.7,0,1.2-0.4,1.5-1.1l2.1,0.3c-0.5,1.6-1.9,2.4-3.6,2.4
			c-2.4,0-3.9-1.7-3.9-4.1c0-2.4,1.3-4.3,3.8-4.3c2.6,0,3.7,1.9,3.7,4.3v0.3H898.1z M901.2,444.9c-0.1-0.8-0.6-1.6-1.5-1.6
			c-0.9,0-1.4,0.8-1.5,1.6H901.2z"/>
	</g>
	<g>
		<path class="st2" d="M913.3,447.8h3.3v2h-5.7v-12.1h2.4V447.8z"/>
	</g>
	<g>
		<path class="st2" d="M920.1,446.3c0,1,0.4,2.1,1.6,2.1c0.7,0,1.2-0.4,1.5-1.1l2.1,0.3c-0.5,1.6-1.9,2.4-3.6,2.4
			c-2.4,0-3.9-1.7-3.9-4.1c0-2.4,1.3-4.3,3.8-4.3c2.6,0,3.7,1.9,3.7,4.3v0.3H920.1z M923.1,444.9c-0.1-0.8-0.6-1.6-1.5-1.6
			c-0.9,0-1.4,0.8-1.5,1.6H923.1z"/>
	</g>
	<g>
		<path class="st2" d="M934.6,449.9h-2.2v-0.7h0c-0.5,0.6-1.3,1-2.1,1c-2.3,0-3.6-2.1-3.6-4.2c0-2.1,1.3-4.1,3.6-4.1
			c0.8,0,1.6,0.4,2.2,1V442h2.2V449.9z M932.7,445.9c0-1.1-0.7-2.2-1.9-2.2s-1.9,1.1-1.9,2.2c0,1.1,0.7,2.2,1.9,2.2
			S932.7,447,932.7,445.9z"/>
	</g>
	<g>
		<path class="st2" d="M939.5,442.8L939.5,442.8c0.5-0.7,1.2-1.1,2-1.1c0.3,0,0.6,0.1,0.9,0.2l-0.3,2.1c-0.3-0.2-0.6-0.3-0.9-0.3
			c-1.6,0-1.7,1.4-1.7,2.6v3.5h-2.2V442h2.2V442.8z"/>
	</g>
	<g>
		<path class="st2" d="M946.4,442.7L946.4,442.7c0.5-0.7,1.3-1,2.1-1c2.1,0,2.7,1.5,2.7,3.3v4.8H949v-4.2c0-0.9,0-2.2-1.2-2.2
			c-1.3,0-1.3,1.5-1.3,2.4v3.9h-2.2V442h2.2V442.7z"/>
	</g>
	<g>
		<path class="st2" d="M956.3,438.7c0,0.7-0.6,1.3-1.3,1.3s-1.3-0.6-1.3-1.3c0-0.7,0.6-1.3,1.3-1.3S956.3,438,956.3,438.7z
			 M956.1,449.9h-2.2V442h2.2V449.9z"/>
	</g>
	<g>
		<path class="st2" d="M961,442.7L961,442.7c0.5-0.7,1.3-1,2.1-1c2.1,0,2.7,1.5,2.7,3.3v4.8h-2.2v-4.2c0-0.9,0-2.2-1.2-2.2
			c-1.3,0-1.3,1.5-1.3,2.4v3.9h-2.2V442h2.2V442.7z"/>
	</g>
	<g>
		<path class="st2" d="M975.8,449.4c0,2.6-0.9,4.7-3.8,4.7c-1.9,0-3.9-1.2-4-3.3h2.4c0.1,0.8,0.7,1.4,1.6,1.4c1.6,0,1.6-1.4,1.6-2.6
			v-0.5h0c-0.5,0.6-1.3,1-2.1,1c-2.3,0-3.5-2-3.5-4.1c0-2.2,1.3-4.2,3.6-4.2c0.8,0,1.6,0.4,2,1h0V442h2.2V449.4z M973.8,445.9
			c0-1.1-0.7-2.2-1.9-2.2c-1.2,0-1.9,1.2-1.9,2.2c0,1.1,0.7,2.2,1.9,2.2C973.1,448.1,973.8,447,973.8,445.9z"/>
	</g>
</g>
<g>
	<path class="st3" d="M612.7,457.8H440.2c-4.4,0-8-3.6-8-8v-57.5c0-4.4,3.6-8,8-8h172.4c4.4,0,8,3.6,8,8v57.5
		C620.7,454.3,617.1,457.8,612.7,457.8z"/>
</g>
<g>
	<g>
		<path class="st2" d="M469.4,408.6l8.2,8.6V409h1.2v11l-8.2-8.6v8.1h-1.2V408.6z"/>
	</g>
	<g>
		<path class="st2" d="M482.3,416.5c0,1.2,0.9,2.2,2.2,2.2c1,0,1.6-0.6,2-1.4l1,0.5c-0.6,1.2-1.7,1.8-3,1.8c-2,0-3.2-1.5-3.2-3.4
			c0-1.9,1.1-3.6,3.2-3.6c2.1,0,3.2,1.8,3.1,3.7H482.3z M486.3,415.6c-0.2-1-1-1.7-1.9-1.7c-1,0-1.9,0.8-2,1.7H486.3z"/>
	</g>
	<g>
		<path class="st2" d="M490.3,416.5c0,1.2,0.9,2.2,2.2,2.2c1,0,1.6-0.6,2-1.4l1,0.5c-0.6,1.2-1.7,1.8-3,1.8c-2,0-3.2-1.5-3.2-3.4
			c0-1.9,1.1-3.6,3.2-3.6c2.1,0,3.2,1.8,3.1,3.7H490.3z M494.2,415.6c-0.2-1-1-1.7-1.9-1.7c-1,0-1.9,0.8-2,1.7H494.2z"/>
	</g>
	<g>
		<path class="st2" d="M502.5,418.7L502.5,418.7c-0.6,0.7-1.4,1.1-2.3,1.1c-1.9,0-3.2-1.6-3.2-3.5c0-1.9,1.2-3.5,3.2-3.5
			c0.9,0,1.7,0.4,2.3,1.1h0V408h1.1v11.6h-1.1V418.7z M498.2,416.2c0,1.3,0.8,2.5,2.2,2.5c1.4,0,2.2-1.2,2.2-2.5
			c0-1.3-0.8-2.4-2.2-2.4C499.1,413.8,498.2,415,498.2,416.2z"/>
	</g>
	<g>
		<path class="st2" d="M511.2,412.4l1.6-3.6l0.8,0.3l-1.3,3.7L511.2,412.4z M513.6,412.4l1.6-3.6l0.8,0.3l-1.3,3.7L513.6,412.4z"/>
	</g>
	<g>
		<path class="st2" d="M523.4,414.9L523.4,414.9c-0.5-0.7-1.2-1.1-2.1-1.1c-1.4,0-2.3,1.1-2.3,2.4c0,1.3,0.9,2.4,2.3,2.4
			c0.9,0,1.6-0.4,2.1-1.1h0v1.5c-0.6,0.4-1.3,0.7-2.1,0.7c-2,0-3.5-1.5-3.5-3.5c0-2,1.6-3.5,3.5-3.5c0.7,0,1.4,0.2,2,0.7V414.9z"/>
	</g>
	<g>
		<path class="st2" d="M525.3,416.3c0-1.9,1.5-3.5,3.5-3.5s3.5,1.6,3.5,3.5s-1.5,3.5-3.5,3.5S525.3,418.2,525.3,416.3z M526.4,416.3
			c0,1.3,1,2.4,2.3,2.4s2.3-1.1,2.3-2.4c0-1.3-1-2.4-2.3-2.4S526.4,414.9,526.4,416.3z"/>
	</g>
	<g>
		<path class="st2" d="M535.6,413.7L535.6,413.7c0.4-0.5,0.9-0.9,1.6-0.9c0.8,0,1.5,0.4,1.8,1.1c0.4-0.7,1.2-1.1,2-1.1
			c1.7,0,2.1,1.4,2.1,2.8v4H542v-3.8c0-0.9-0.1-1.9-1.2-1.9c-1.3,0-1.4,1.2-1.4,2.2v3.5h-1.1v-3.7c0-0.8-0.1-2-1.2-2
			c-1.3,0-1.5,1.3-1.5,2.3v3.4h-1.1V413h1.1V413.7z"/>
	</g>
	<g>
		<path class="st2" d="M547,413.9L547,413.9c0.6-0.7,1.4-1.1,2.3-1.1c1.9,0,3.2,1.7,3.2,3.5c0,1.9-1.2,3.5-3.2,3.5
			c-0.9,0-1.7-0.4-2.3-1.1h0v4.6h-1.1V413h1.1V413.9z M546.9,416.2c0,1.3,0.8,2.5,2.2,2.5c1.4,0,2.2-1.2,2.2-2.5
			c0-1.3-0.8-2.4-2.2-2.4C547.8,413.8,546.9,415,546.9,416.2z"/>
	</g>
	<g>
		<path class="st2" d="M555.8,419.6h-1.1V408h1.1V419.6z"/>
	</g>
	<g>
		<path class="st2" d="M559.1,416.5c0,1.2,0.9,2.2,2.2,2.2c1,0,1.6-0.6,2-1.4l1,0.5c-0.6,1.2-1.7,1.8-3,1.8c-2,0-3.2-1.5-3.2-3.4
			c0-1.9,1.1-3.6,3.2-3.6c2.1,0,3.2,1.8,3.1,3.7H559.1z M563.1,415.6c-0.2-1-1-1.7-1.9-1.7c-1,0-1.9,0.8-2,1.7H563.1z"/>
	</g>
	<g>
		<path class="st2" d="M567.7,419.6h-1.1V414h-0.7v-1h0.7v-2.4h1.1v2.4h1.2v1h-1.2V419.6z"/>
	</g>
	<g>
		<path class="st2" d="M571.2,416.5c0,1.2,0.9,2.2,2.2,2.2c1,0,1.6-0.6,2-1.4l1,0.5c-0.6,1.2-1.7,1.8-3,1.8c-2,0-3.2-1.5-3.2-3.4
			c0-1.9,1.1-3.6,3.2-3.6c2.1,0,3.2,1.8,3.1,3.7H571.2z M575.2,415.6c-0.2-1-1-1.7-1.9-1.7c-1,0-1.9,0.8-2,1.7H575.2z"/>
	</g>
	<g>
		<path class="st2" d="M580.7,409.2l-1.6,3.6l-0.8-0.3l1.3-3.7L580.7,409.2z M583.1,409.2l-1.6,3.6l-0.8-0.3l1.3-3.7L583.1,409.2z"
			/>
	</g>
	<g>
		<path class="st2" d="M484.8,433.3c0,1.2,0.9,2.2,2.2,2.2c1,0,1.6-0.6,2-1.4l1,0.5c-0.6,1.2-1.7,1.8-3,1.8c-2,0-3.2-1.5-3.2-3.4
			c0-1.9,1.1-3.6,3.2-3.6c2.1,0,3.2,1.8,3.1,3.7H484.8z M488.8,432.4c-0.2-1-1-1.7-1.9-1.7c-1,0-1.9,0.8-2,1.7H488.8z"/>
	</g>
	<g>
		<path class="st2" d="M491.6,429.8h1.4l1.7,2.2l1.7-2.2h1.4l-2.4,3.1l2.7,3.5h-1.4l-2.1-2.7l-2.1,2.7h-1.4l2.8-3.5L491.6,429.8z"/>
	</g>
	<g>
		<path class="st2" d="M500.9,430.7L500.9,430.7c0.6-0.7,1.4-1.1,2.3-1.1c1.9,0,3.2,1.7,3.2,3.5c0,1.9-1.2,3.5-3.2,3.5
			c-0.9,0-1.7-0.4-2.3-1.1h0v4.6h-1.1v-10.3h1.1V430.7z M500.9,433c0,1.3,0.8,2.5,2.2,2.5c1.4,0,2.2-1.2,2.2-2.5
			c0-1.3-0.8-2.4-2.2-2.4C501.7,430.6,500.9,431.8,500.9,433z"/>
	</g>
	<g>
		<path class="st2" d="M509.7,436.4h-1.1v-11.6h1.1V436.4z"/>
	</g>
	<g>
		<path class="st2" d="M518.5,436.4h-1.1v-0.9h0c-0.6,0.7-1.3,1.1-2.3,1.1c-1.9,0-3.2-1.6-3.2-3.5c0-1.9,1.2-3.5,3.2-3.5
			c0.9,0,1.7,0.4,2.3,1.1h0v-0.9h1.1V436.4z M513.1,433c0,1.3,0.8,2.5,2.2,2.5c1.4,0,2.2-1.2,2.2-2.5c0-1.3-0.8-2.4-2.2-2.4
			C514,430.6,513.1,431.8,513.1,433z"/>
	</g>
	<g>
		<path class="st2" d="M522.4,430.6L522.4,430.6c0.5-0.6,1.1-1,1.9-1c1.8,0,2.2,1.3,2.2,2.9v3.9h-1.1v-3.7c0-1.1-0.1-2-1.4-2
			c-1.5,0-1.6,1.4-1.6,2.6v3.1h-1.1v-6.6h1.1V430.6z"/>
	</g>
	<g>
		<path class="st2" d="M535.4,436.4h-1.1v-0.9h0c-0.6,0.7-1.3,1.1-2.3,1.1c-1.9,0-3.2-1.6-3.2-3.5c0-1.9,1.2-3.5,3.2-3.5
			c0.9,0,1.7,0.4,2.3,1.1h0v-0.9h1.1V436.4z M530,433c0,1.3,0.8,2.5,2.2,2.5c1.4,0,2.2-1.2,2.2-2.5c0-1.3-0.8-2.4-2.2-2.4
			C530.8,430.6,530,431.8,530,433z"/>
	</g>
	<g>
		<path class="st2" d="M539.4,436.4h-1.1v-5.5h-0.7v-1h0.7v-2.4h1.1v2.4h1.2v1h-1.2V436.4z"/>
	</g>
	<g>
		<path class="st2" d="M543.8,427.3c0,0.4-0.4,0.8-0.8,0.8c-0.4,0-0.8-0.4-0.8-0.8c0-0.4,0.4-0.8,0.8-0.8
			C543.4,426.5,543.8,426.9,543.8,427.3z M543.6,436.4h-1.1v-6.6h1.1V436.4z"/>
	</g>
	<g>
		<path class="st2" d="M546,433.1c0-1.9,1.5-3.5,3.5-3.5c1.9,0,3.5,1.6,3.5,3.5s-1.5,3.5-3.5,3.5S546,435,546,433.1z M547.1,433.1
			c0,1.3,1,2.4,2.3,2.4s2.3-1.1,2.3-2.4c0-1.3-1-2.4-2.3-2.4S547.1,431.7,547.1,433.1z"/>
	</g>
	<g>
		<path class="st2" d="M556.3,430.6L556.3,430.6c0.5-0.6,1.1-1,1.9-1c1.8,0,2.2,1.3,2.2,2.9v3.9h-1.1v-3.7c0-1.1-0.1-2-1.4-2
			c-1.5,0-1.6,1.4-1.6,2.6v3.1h-1.1v-6.6h1.1V430.6z"/>
	</g>
	<g>
		<path class="st2" d="M567.9,431.8c0,1.3-0.9,2.4-2.3,2.4c-1.3,0-2.3-1-2.3-2.3c0-1.3,0.9-1.8,1.9-2.1c0.9-0.3,1.8-0.5,1.8-1.6
			c0-0.9-0.6-1.5-1.4-1.5c-0.8,0-1.4,0.6-1.4,1.4c0,0.2,0,0.4,0.1,0.7h-1.2l-0.1-0.7c0-1.5,1.2-2.4,2.6-2.4c1.4,0,2.5,1.1,2.5,2.5
			c0,0.7-0.3,1.4-0.8,1.9c-0.5,0.4-1.2,0.6-1.9,0.8c-0.6,0.2-1.1,0.5-1.1,1.2c0,0.6,0.5,1.1,1.1,1.1c0.8,0,1.1-0.6,1.1-1.3H567.9z
			 M566.4,435.7c0,0.4-0.3,0.8-0.8,0.8s-0.8-0.4-0.8-0.8c0-0.4,0.3-0.8,0.8-0.8S566.4,435.3,566.4,435.7z"/>
	</g>
</g>
<g>
	<path class="st4" d="M901.1,580.3H798.7c-4.4,0-8-3.6-8-8v-43.2c0-4.4,3.6-8,8-8h102.4c4.4,0,8,3.6,8,8v43.2
		C909.1,576.8,905.6,580.3,901.1,580.3z"/>
</g>
<g>
	<g>
		<path class="st1" d="M828.7,536.3v3.1h3.5v1.1h-3.5v5.2h-1.2v-10.6h4.8v1.1H828.7z"/>
	</g>
	<g>
		<path class="st1" d="M835.5,542.7c0,1.2,0.9,2.2,2.2,2.2c1,0,1.6-0.6,2-1.4l1,0.5c-0.6,1.2-1.7,1.8-3,1.8c-2,0-3.2-1.5-3.2-3.4
			c0-1.9,1.1-3.6,3.2-3.6c2.1,0,3.2,1.8,3.1,3.7H835.5z M839.5,541.8c-0.2-1-1-1.7-1.9-1.7c-1,0-1.9,0.8-2,1.7H839.5z"/>
	</g>
	<g>
		<path class="st1" d="M848.9,545.8h-1.1v-0.9h0c-0.6,0.7-1.3,1.1-2.3,1.1c-1.9,0-3.2-1.6-3.2-3.5c0-1.9,1.2-3.5,3.2-3.5
			c0.9,0,1.7,0.4,2.3,1.1h0v-0.9h1.1V545.8z M843.5,542.4c0,1.3,0.8,2.5,2.2,2.5c1.4,0,2.2-1.2,2.2-2.5c0-1.3-0.8-2.4-2.2-2.4
			C844.4,540,843.5,541.2,843.5,542.4z"/>
	</g>
	<g>
		<path class="st1" d="M852.9,545.8h-1.1v-5.5h-0.7v-1h0.7v-2.4h1.1v2.4h1.2v1h-1.2V545.8z"/>
	</g>
	<g>
		<path class="st1" d="M856.8,542.8c0,1.1,0.1,2.1,1.5,2.1c1.4,0,1.5-1,1.5-2.1v-3.7h1.1v3.8c0,1.8-0.7,3-2.6,3s-2.6-1.2-2.6-3v-3.8
			h1.1V542.8z"/>
	</g>
	<g>
		<path class="st1" d="M864.7,539.9L864.7,539.9c0.4-0.5,0.8-0.9,1.5-0.9c0.4,0,0.7,0.1,1,0.3l-0.5,1c-0.2-0.2-0.4-0.3-0.7-0.3
			c-1.2,0-1.3,1.6-1.3,2.4v3.3h-1.1v-6.6h1.1V539.9z"/>
	</g>
	<g>
		<path class="st1" d="M869.6,542.7c0,1.2,0.9,2.2,2.2,2.2c1,0,1.6-0.6,2-1.4l1,0.5c-0.6,1.2-1.7,1.8-3,1.8c-2,0-3.2-1.5-3.2-3.4
			c0-1.9,1.1-3.6,3.2-3.6c2.1,0,3.2,1.8,3.1,3.7H869.6z M873.6,541.8c-0.2-1-1-1.7-1.9-1.7c-1,0-1.9,0.8-2,1.7H873.6z"/>
	</g>
	<g>
		<path class="st1" d="M816.1,562.6h-1.2V552h1.2V562.6z"/>
	</g>
	<g>
		<path class="st1" d="M820.1,556.7L820.1,556.7c0.4-0.5,0.9-0.9,1.6-0.9c0.8,0,1.5,0.4,1.8,1.1c0.4-0.7,1.2-1.1,2-1.1
			c1.7,0,2.1,1.4,2.1,2.8v4h-1.1v-3.8c0-0.9-0.1-1.9-1.2-1.9c-1.3,0-1.4,1.2-1.4,2.2v3.5h-1.1v-3.7c0-0.8-0.1-2-1.2-2
			c-1.3,0-1.5,1.3-1.5,2.3v3.4h-1.1V556h1.1V556.7z"/>
	</g>
	<g>
		<path class="st1" d="M831.5,556.9L831.5,556.9c0.6-0.7,1.4-1.1,2.3-1.1c1.9,0,3.2,1.7,3.2,3.5c0,1.9-1.2,3.5-3.2,3.5
			c-0.9,0-1.7-0.4-2.3-1.1h0v4.6h-1.1V556h1.1V556.9z M831.4,559.2c0,1.3,0.8,2.5,2.2,2.5c1.4,0,2.2-1.2,2.2-2.5
			c0-1.3-0.8-2.4-2.2-2.4C832.2,556.8,831.4,558,831.4,559.2z"/>
	</g>
	<g>
		<path class="st1" d="M838.6,559.3c0-1.9,1.5-3.5,3.5-3.5c1.9,0,3.5,1.6,3.5,3.5s-1.5,3.5-3.5,3.5S838.6,561.2,838.6,559.3z
			 M839.7,559.3c0,1.3,1,2.4,2.3,2.4s2.3-1.1,2.3-2.4c0-1.3-1-2.4-2.3-2.4S839.7,557.9,839.7,559.3z"/>
	</g>
	<g>
		<path class="st1" d="M848.8,556.7L848.8,556.7c0.4-0.5,0.8-0.9,1.5-0.9c0.4,0,0.7,0.1,1,0.3l-0.5,1c-0.2-0.2-0.4-0.3-0.7-0.3
			c-1.2,0-1.3,1.6-1.3,2.4v3.3h-1.1V556h1.1V556.7z"/>
	</g>
	<g>
		<path class="st1" d="M854.6,562.6h-1.1V557h-0.7v-1h0.7v-2.4h1.1v2.4h1.2v1h-1.2V562.6z"/>
	</g>
	<g>
		<path class="st1" d="M863.5,562.6h-1.1v-0.9h0c-0.6,0.7-1.3,1.1-2.3,1.1c-1.9,0-3.2-1.6-3.2-3.5c0-1.9,1.2-3.5,3.2-3.5
			c0.9,0,1.7,0.4,2.3,1.1h0V556h1.1V562.6z M858.1,559.2c0,1.3,0.8,2.5,2.2,2.5c1.4,0,2.2-1.2,2.2-2.5c0-1.3-0.8-2.4-2.2-2.4
			C858.9,556.8,858.1,558,858.1,559.2z"/>
	</g>
	<g>
		<path class="st1" d="M867.4,556.8L867.4,556.8c0.5-0.6,1.1-1,1.9-1c1.8,0,2.2,1.3,2.2,2.9v3.9h-1.1v-3.7c0-1.1-0.1-2-1.4-2
			c-1.5,0-1.6,1.4-1.6,2.6v3.1h-1.1V556h1.1V556.8z"/>
	</g>
	<g>
		<path class="st1" d="M879.2,557.9L879.2,557.9c-0.5-0.7-1.2-1.1-2.1-1.1c-1.4,0-2.3,1.1-2.3,2.4c0,1.3,0.9,2.4,2.3,2.4
			c0.9,0,1.6-0.4,2.1-1.1h0v1.5c-0.6,0.4-1.3,0.7-2.1,0.7c-2,0-3.5-1.5-3.5-3.5c0-2,1.6-3.5,3.5-3.5c0.7,0,1.4,0.2,2,0.7V557.9z"/>
	</g>
	<g>
		<path class="st1" d="M882.3,559.5c0,1.2,0.9,2.2,2.2,2.2c1,0,1.6-0.6,2-1.4l1,0.5c-0.6,1.2-1.7,1.8-3,1.8c-2,0-3.2-1.5-3.2-3.4
			c0-1.9,1.1-3.6,3.2-3.6c2.1,0,3.2,1.8,3.1,3.7H882.3z M886.2,558.6c-0.2-1-1-1.7-1.9-1.7c-1,0-1.9,0.8-2,1.7H886.2z"/>
	</g>
</g>
<g>
	<path class="st4" d="M1018.7,568h-78.6c-4.4,0-8-3.6-8-8v-30.9c0-4.4,3.6-8,8-8h78.6c4.4,0,8,3.6,8,8V560
		C1026.7,564.4,1023.1,568,1018.7,568z"/>
</g>
<g>
	<g>
		<path class="st1" d="M968.8,551.7h-1.2v-10.6h1.7c0.9,0,1.8,0,2.6,0.6c0.8,0.5,1.2,1.5,1.2,2.4c0,0.9-0.3,1.7-1,2.3
			c-0.7,0.6-1.6,0.7-2.5,0.7h-0.9V551.7z M968.8,546h0.8c1.3,0,2.4-0.4,2.4-1.9c0-1.7-1.4-1.8-2.8-1.8h-0.4V546z"/>
	</g>
	<g>
		<path class="st1" d="M975.4,541.2h2c1.6,0,2.9,0.2,4.1,1.3c1.2,1,1.8,2.5,1.8,4c0,1.5-0.6,2.9-1.7,3.9c-1.3,1.1-2.5,1.3-4.2,1.3
			h-2V541.2z M977.4,550.6c1.3,0,2.4-0.2,3.3-1.1c0.9-0.8,1.3-1.9,1.3-3.1c0-1.2-0.5-2.4-1.4-3.2c-1-0.9-2-1-3.3-1h-0.9v8.4H977.4z"
			/>
	</g>
	<g>
		<path class="st1" d="M986.8,551.7h-1.2v-10.6h1.7c0.9,0,1.8,0,2.6,0.6c0.8,0.5,1.2,1.5,1.2,2.4c0,0.9-0.3,1.7-1,2.3
			c-0.7,0.6-1.6,0.7-2.5,0.7h-0.9V551.7z M986.8,546h0.8c1.3,0,2.4-0.4,2.4-1.9c0-1.7-1.4-1.8-2.8-1.8h-0.4V546z"/>
	</g>
</g>
<g>
	<path class="st3" d="M514.2,87.4H341.7c-4.4,0-8-3.6-8-8V21.8c0-4.4,3.6-8,8-8h172.4c4.4,0,8,3.6,8,8v57.5
		C522.2,83.8,518.6,87.4,514.2,87.4z"/>
</g>
<g>
	<g>
		<path class="st2" d="M363.5,35.4h5.5v1.1h-4.3v3.1h4.2v1.1h-4.2v4.1h4.3V46h-5.5V35.4z"/>
	</g>
	<g>
		<path class="st2" d="M371,39.4h1.4l1.7,2.2l1.7-2.2h1.4l-2.4,3.1l2.7,3.5h-1.4l-2.1-2.7L372,46h-1.4l2.8-3.5L371,39.4z"/>
	</g>
	<g>
		<path class="st2" d="M380.4,40.3L380.4,40.3c0.6-0.7,1.4-1.1,2.3-1.1c1.9,0,3.2,1.7,3.2,3.5c0,1.9-1.2,3.5-3.2,3.5
			c-0.9,0-1.7-0.4-2.3-1.1h0v4.6h-1.1V39.4h1.1V40.3z M380.3,42.6c0,1.3,0.8,2.5,2.2,2.5c1.4,0,2.2-1.2,2.2-2.5
			c0-1.3-0.8-2.4-2.2-2.4C381.2,40.2,380.3,41.4,380.3,42.6z"/>
	</g>
	<g>
		<path class="st2" d="M389.2,46h-1.1V34.4h1.1V46z"/>
	</g>
	<g>
		<path class="st2" d="M398,46h-1.1V45h0c-0.6,0.7-1.3,1.1-2.3,1.1c-1.9,0-3.2-1.6-3.2-3.5c0-1.9,1.2-3.5,3.2-3.5
			c0.9,0,1.7,0.4,2.3,1.1h0v-0.9h1.1V46z M392.6,42.6c0,1.3,0.8,2.5,2.2,2.5c1.4,0,2.2-1.2,2.2-2.5c0-1.3-0.8-2.4-2.2-2.4
			C393.4,40.2,392.6,41.4,392.6,42.6z"/>
	</g>
	<g>
		<path class="st2" d="M402.3,36.9c0,0.4-0.4,0.8-0.8,0.8s-0.8-0.4-0.8-0.8c0-0.4,0.4-0.8,0.8-0.8S402.3,36.5,402.3,36.9z M402.1,46
			H401v-6.6h1.1V46z"/>
	</g>
	<g>
		<path class="st2" d="M406.2,40.2L406.2,40.2c0.5-0.6,1.1-1,1.9-1c1.8,0,2.2,1.3,2.2,2.9V46h-1.1v-3.7c0-1.1-0.1-2-1.4-2
			c-1.5,0-1.6,1.4-1.6,2.6V46h-1.1v-6.6h1.1V40.2z"/>
	</g>
	<g>
		<path class="st2" d="M419.2,46h-1.1V45h0c-0.6,0.7-1.3,1.1-2.3,1.1c-1.9,0-3.2-1.6-3.2-3.5c0-1.9,1.2-3.5,3.2-3.5
			c0.9,0,1.7,0.4,2.3,1.1h0v-0.9h1.1V46z M413.8,42.6c0,1.3,0.8,2.5,2.2,2.5c1.4,0,2.2-1.2,2.2-2.5c0-1.3-0.8-2.4-2.2-2.4
			C414.6,40.2,413.8,41.4,413.8,42.6z"/>
	</g>
	<g>
		<path class="st2" d="M421.9,34.4h1.1v5.9h0c0.5-0.7,1.4-1.1,2.3-1.1c2,0,3.2,1.6,3.2,3.5c0,1.8-1.2,3.5-3.2,3.5
			c-0.9,0-1.7-0.4-2.3-1.1h0V46h-1.1V34.4z M423,42.6c0,1.3,0.8,2.5,2.2,2.5c1.4,0,2.2-1.2,2.2-2.5c0-1.3-0.8-2.4-2.2-2.4
			C423.8,40.2,423,41.4,423,42.6z"/>
	</g>
	<g>
		<path class="st2" d="M431.9,46h-1.1V34.4h1.1V46z"/>
	</g>
	<g>
		<path class="st2" d="M435.2,42.9c0,1.2,0.9,2.2,2.2,2.2c1,0,1.6-0.6,2-1.4l1,0.5c-0.6,1.2-1.7,1.8-3,1.8c-2,0-3.2-1.5-3.2-3.4
			c0-1.9,1.1-3.6,3.2-3.6c2.1,0,3.2,1.8,3.1,3.7H435.2z M439.2,41.9c-0.2-1-1-1.7-1.9-1.7c-1,0-1.9,0.8-2,1.7H439.2z"/>
	</g>
	<g>
		<path class="st2" d="M448.8,40.1L448.8,40.1c0.4-0.5,0.9-0.9,1.6-0.9c0.8,0,1.5,0.4,1.8,1.1c0.4-0.7,1.2-1.1,2-1.1
			c1.7,0,2.1,1.4,2.1,2.8v4h-1.1v-3.8c0-0.9-0.1-1.9-1.2-1.9c-1.3,0-1.4,1.2-1.4,2.2V46h-1.1v-3.7c0-0.8-0.1-2-1.2-2
			c-1.3,0-1.5,1.3-1.5,2.3V46h-1.1v-6.6h1.1V40.1z"/>
	</g>
	<g>
		<path class="st2" d="M458.5,42.7c0-1.9,1.5-3.5,3.5-3.5s3.5,1.6,3.5,3.5s-1.5,3.5-3.5,3.5S458.5,44.6,458.5,42.7z M459.6,42.7
			c0,1.3,1,2.4,2.3,2.4s2.3-1.1,2.3-2.4c0-1.3-1-2.4-2.3-2.4S459.6,41.3,459.6,42.7z"/>
	</g>
	<g>
		<path class="st2" d="M472.5,45L472.5,45c-0.6,0.7-1.4,1.1-2.3,1.1c-1.9,0-3.2-1.6-3.2-3.5c0-1.9,1.2-3.5,3.2-3.5
			c0.9,0,1.7,0.4,2.3,1.1h0v-5.9h1.1V46h-1.1V45z M468.2,42.6c0,1.3,0.8,2.5,2.2,2.5c1.4,0,2.2-1.2,2.2-2.5c0-1.3-0.8-2.4-2.2-2.4
			C469.1,40.2,468.2,41.4,468.2,42.6z"/>
	</g>
	<g>
		<path class="st2" d="M477,42.9c0,1.2,0.9,2.2,2.2,2.2c1,0,1.6-0.6,2-1.4l1,0.5c-0.6,1.2-1.7,1.8-3,1.8c-2,0-3.2-1.5-3.2-3.4
			c0-1.9,1.1-3.6,3.2-3.6c2.1,0,3.2,1.8,3.1,3.7H477z M481,41.9c-0.2-1-1-1.7-1.9-1.7c-1,0-1.9,0.8-2,1.7H481z"/>
	</g>
	<g>
		<path class="st2" d="M485.5,46h-1.1V34.4h1.1V46z"/>
	</g>
	<g>
		<path class="st2" d="M490.9,40.9c-0.2-0.4-0.5-0.7-0.9-0.7c-0.4,0-0.8,0.3-0.8,0.7c0,0.6,0.8,0.8,1.5,1.1s1.5,0.8,1.5,1.9
			c0,1.2-1,2.1-2.2,2.1c-1.1,0-2-0.6-2.3-1.7l1-0.4c0.3,0.6,0.6,1.1,1.3,1.1c0.6,0,1.1-0.4,1.1-1c0-1.5-3-1-3-3c0-1.1,0.9-1.9,2-1.9
			c0.8,0,1.5,0.5,1.8,1.2L490.9,40.9z"/>
	</g>
	<g>
		<path class="st2" d="M375.3,62.8h-1.1v-0.9h0c-0.6,0.7-1.3,1.1-2.3,1.1c-1.9,0-3.2-1.6-3.2-3.5c0-1.9,1.2-3.5,3.2-3.5
			c0.9,0,1.7,0.4,2.3,1.1h0v-0.9h1.1V62.8z M369.8,59.4c0,1.3,0.8,2.5,2.2,2.5c1.4,0,2.2-1.2,2.2-2.5c0-1.3-0.8-2.4-2.2-2.4
			C370.7,57,369.8,58.2,369.8,59.4z"/>
	</g>
	<g>
		<path class="st2" d="M382.9,58.1L382.9,58.1c-0.5-0.7-1.2-1.1-2.1-1.1c-1.4,0-2.3,1.1-2.3,2.4c0,1.3,0.9,2.4,2.3,2.4
			c0.9,0,1.6-0.4,2.1-1.1h0v1.5c-0.6,0.4-1.3,0.7-2.1,0.7c-2,0-3.5-1.5-3.5-3.5c0-2,1.6-3.5,3.5-3.5c0.7,0,1.4,0.2,2,0.7V58.1z"/>
	</g>
	<g>
		<path class="st2" d="M390.3,58.1L390.3,58.1c-0.5-0.7-1.2-1.1-2.1-1.1c-1.4,0-2.3,1.1-2.3,2.4c0,1.3,0.9,2.4,2.3,2.4
			c0.9,0,1.6-0.4,2.1-1.1h0v1.5c-0.6,0.4-1.3,0.7-2.1,0.7c-2,0-3.5-1.5-3.5-3.5c0-2,1.6-3.5,3.5-3.5c0.7,0,1.4,0.2,2,0.7V58.1z"/>
	</g>
	<g>
		<path class="st2" d="M393.8,59.8c0,1.1,0.1,2.1,1.5,2.1s1.5-1,1.5-2.1v-3.7h1.1V60c0,1.8-0.7,3-2.6,3s-2.6-1.2-2.6-3v-3.8h1.1
			V59.8z"/>
	</g>
	<g>
		<path class="st2" d="M401.7,56.9L401.7,56.9c0.4-0.5,0.8-0.9,1.5-0.9c0.4,0,0.7,0.1,1,0.3l-0.5,1c-0.2-0.2-0.4-0.3-0.7-0.3
			c-1.2,0-1.3,1.6-1.3,2.4v3.3h-1.1v-6.6h1.1V56.9z"/>
	</g>
	<g>
		<path class="st2" d="M412,62.8h-1.1v-0.9h0c-0.6,0.7-1.3,1.1-2.3,1.1c-1.9,0-3.2-1.6-3.2-3.5c0-1.9,1.2-3.5,3.2-3.5
			c0.9,0,1.7,0.4,2.3,1.1h0v-0.9h1.1V62.8z M406.6,59.4c0,1.3,0.8,2.5,2.2,2.5c1.4,0,2.2-1.2,2.2-2.5c0-1.3-0.8-2.4-2.2-2.4
			C407.5,57,406.6,58.2,406.6,59.4z"/>
	</g>
	<g>
		<path class="st2" d="M416,62.8h-1.1v-5.5h-0.7v-1h0.7v-2.4h1.1v2.4h1.2v1H416V62.8z"/>
	</g>
	<g>
		<path class="st2" d="M419.4,59.7c0,1.2,0.9,2.2,2.2,2.2c1,0,1.6-0.6,2-1.4l1,0.5c-0.6,1.2-1.7,1.8-3,1.8c-2,0-3.2-1.5-3.2-3.4
			c0-1.9,1.1-3.6,3.2-3.6c2.1,0,3.2,1.8,3.1,3.7H419.4z M423.4,58.7c-0.2-1-1-1.7-1.9-1.7c-1,0-1.9,0.8-2,1.7H423.4z"/>
	</g>
	<g>
		<path class="st2" d="M432.4,59.7c0,1.2,0.9,2.2,2.2,2.2c1,0,1.6-0.6,2-1.4l1,0.5c-0.6,1.2-1.7,1.8-3,1.8c-2,0-3.2-1.5-3.2-3.4
			c0-1.9,1.1-3.6,3.2-3.6c2.1,0,3.2,1.8,3.1,3.7H432.4z M436.4,58.7c-0.2-1-1-1.7-1.9-1.7c-1,0-1.9,0.8-2,1.7H436.4z"/>
	</g>
	<g>
		<path class="st2" d="M440.9,57L440.9,57c0.5-0.6,1.1-1,1.9-1c1.8,0,2.2,1.3,2.2,2.9v3.9H444V59c0-1.1-0.1-2-1.4-2
			c-1.5,0-1.6,1.4-1.6,2.6v3.1h-1.1v-6.6h1.1V57z"/>
	</g>
	<g>
		<path class="st2" d="M447.3,59.5c0-1.9,1.5-3.5,3.5-3.5s3.5,1.6,3.5,3.5s-1.5,3.5-3.5,3.5S447.3,61.4,447.3,59.5z M448.4,59.5
			c0,1.3,1,2.4,2.3,2.4s2.3-1.1,2.3-2.4c0-1.3-1-2.4-2.3-2.4S448.4,58.1,448.4,59.5z"/>
	</g>
	<g>
		<path class="st2" d="M457.5,59.8c0,1.1,0.1,2.1,1.5,2.1s1.5-1,1.5-2.1v-3.7h1.1V60c0,1.8-0.7,3-2.6,3s-2.6-1.2-2.6-3v-3.8h1.1
			V59.8z"/>
	</g>
	<g>
		<path class="st2" d="M470.3,62.4c0,1.1,0,2-0.7,2.8c-0.6,0.8-1.6,1.2-2.5,1.2c-1.8,0-3.2-1.2-3.2-3h1.1c0,1.2,0.9,2,2.1,2
			c1.7,0,2.1-1.3,2.1-2.8v-0.8h0c-0.5,0.7-1.4,1.1-2.3,1.1c-1.9,0-3.1-1.6-3.1-3.4c0-1.8,1.2-3.5,3.2-3.5c0.9,0,1.7,0.4,2.2,1.1h0
			v-0.9h1.1V62.4z M464.9,59.4c0,1.3,0.8,2.5,2.2,2.5c1.4,0,2.2-1.2,2.2-2.5c0-1.3-0.8-2.4-2.2-2.4C465.7,57,464.9,58.2,464.9,59.4z
			"/>
	</g>
	<g>
		<path class="st2" d="M474.3,51.2v5.7l0,0c0.5-0.6,1.1-1,1.9-1c1.8,0,2.2,1.3,2.2,2.9v3.9h-1.1V59c0-1.1-0.1-2-1.4-2
			c-1.5,0-1.6,1.4-1.6,2.6v3.1h-1.1V51.2H474.3z"/>
	</g>
	<g>
		<path class="st2" d="M485.9,58.2c0,1.3-0.9,2.4-2.3,2.4c-1.3,0-2.3-1-2.3-2.3c0-1.3,0.9-1.8,1.9-2.1c0.9-0.3,1.8-0.5,1.8-1.6
			c0-0.9-0.6-1.5-1.4-1.5c-0.8,0-1.4,0.6-1.4,1.4c0,0.2,0,0.4,0.1,0.7h-1.2l-0.1-0.7c0-1.5,1.2-2.4,2.6-2.4c1.4,0,2.5,1.1,2.5,2.5
			c0,0.7-0.3,1.4-0.8,1.9c-0.5,0.4-1.2,0.6-1.9,0.8c-0.6,0.2-1.1,0.5-1.1,1.2c0,0.6,0.5,1.1,1.1,1.1c0.8,0,1.1-0.6,1.1-1.3H485.9z
			 M484.4,62.1c0,0.4-0.4,0.8-0.8,0.8c-0.4,0-0.8-0.4-0.8-0.8c0-0.4,0.4-0.8,0.8-0.8C484,61.4,484.4,61.7,484.4,62.1z"/>
	</g>
</g>
<g>
	<path class="st1" d="M710.9,621.5H561.4c-4.4,0-8-3.6-8-8v-55.4c0-4.4,3.6-8,8-8h149.5c4.4,0,8,3.6,8,8v55.4
		C718.9,617.9,715.3,621.5,710.9,621.5z"/>
	<path class="st2" d="M710.9,622H561.4c-4.7,0-8.5-3.8-8.5-8.5v-55.4c0-4.7,3.8-8.5,8.5-8.5h149.5c4.7,0,8.5,3.8,8.5,8.5v55.4
		C719.4,618.2,715.6,622,710.9,622z M561.4,550.6c-4.1,0-7.5,3.4-7.5,7.5v55.4c0,4.1,3.4,7.5,7.5,7.5h149.5c4.1,0,7.5-3.4,7.5-7.5
		v-55.4c0-4.1-3.4-7.5-7.5-7.5H561.4z"/>
</g>
<g>
	<g>
		<path class="st2" d="M603.7,569.3h1.7l6.4,8.4h0v-8.1h2.4V582h-1.7l-6.4-8.4h0v8.2h-2.4V569.3z"/>
	</g>
	<g>
		<path class="st2" d="M618.5,578.2c0,1,0.4,2.1,1.6,2.1c0.7,0,1.2-0.4,1.5-1.1l2.1,0.3c-0.5,1.6-1.9,2.4-3.6,2.4
			c-2.4,0-3.9-1.7-3.9-4.1c0-2.4,1.3-4.3,3.8-4.3c2.6,0,3.7,1.9,3.7,4.3v0.3H618.5z M621.6,576.8c-0.1-0.8-0.6-1.6-1.5-1.6
			c-0.9,0-1.4,0.8-1.5,1.6H621.6z"/>
	</g>
	<g>
		<path class="st2" d="M628.2,581.7H626v-6h-0.8v-1.9h0.8v-2.7h2.2v2.7h1.4v1.9h-1.4V581.7z"/>
	</g>
	<g>
		<path class="st2" d="M634,578.4l1.9-4.8h1.1l1.9,4.9l1.7-4.6h2.4l-3.6,8h-1.1l-1.7-4.8l-1.9,4.8h-1.2l-3.6-8h2.4L634,578.4z"/>
	</g>
	<g>
		<path class="st2" d="M652.2,577.8c0,2.4-1.7,4.2-4.1,4.2s-4.1-1.7-4.1-4.2c0-2.4,1.7-4.2,4.1-4.2
			C650.6,573.6,652.2,575.4,652.2,577.8z M646.3,577.8c0,1.1,0.7,2.2,1.9,2.2s1.9-1.1,1.9-2.2c0-1.1-0.7-2.2-1.9-2.2
			S646.3,576.7,646.3,577.8z"/>
	</g>
	<g>
		<path class="st2" d="M656.5,574.7L656.5,574.7c0.5-0.7,1.2-1.1,2-1.1c0.3,0,0.6,0.1,0.9,0.2l-0.3,2.1c-0.3-0.2-0.6-0.3-0.9-0.3
			c-1.6,0-1.7,1.4-1.7,2.6v3.5h-2.2v-7.9h2.2V574.7z"/>
	</g>
	<g>
		<path class="st2" d="M663.3,576.7L663.3,576.7l2.4-2.9h2.9l-3.3,3.5l3.6,4.4h-2.9l-2.6-3.3h0v3.3h-2.2v-13.6h2.2V576.7z"/>
	</g>
	<g>
		<path class="st2" d="M587,597L587,597l2.7-8.1h2.5l-4.7,12.4h-1.4l-4.6-12.4h2.5L587,597z"/>
	</g>
	<g>
		<path class="st2" d="M596.3,589.8c0,0.7-0.6,1.3-1.3,1.3s-1.3-0.6-1.3-1.3c0-0.7,0.6-1.3,1.3-1.3S596.3,589,596.3,589.8z
			 M596.1,600.9h-2.2v-7.9h2.2V600.9z"/>
	</g>
	<g>
		<path class="st2" d="M602.8,594.9c-0.3-0.3-0.7-0.5-1.2-0.5c-0.4,0-0.7,0.3-0.7,0.7c0,0.6,0.8,0.7,1.6,1.1
			c0.8,0.4,1.6,0.9,1.6,2.3c0,1.7-1.4,2.8-3.1,2.8c-1.1,0-2.1-0.5-2.8-1.3l1-1.3c0.4,0.5,1,0.9,1.7,0.9c0.5,0,0.9-0.3,0.9-0.8
			c0-0.7-0.8-0.8-1.6-1.2c-0.8-0.3-1.6-0.8-1.6-2.1c0-1.5,1-2.5,2.5-2.5c0.8,0,1.9,0.3,2.5,0.8L602.8,594.9z"/>
	</g>
	<g>
		<path class="st2" d="M608.5,593.1v4.3c0,0.9,0.1,2,1.3,2s1.3-1.1,1.3-2v-4.3h2.2v4.6c0,2.3-1.2,3.5-3.5,3.5s-3.5-1.2-3.5-3.5v-4.6
			H608.5z"/>
	</g>
	<g>
		<path class="st2" d="M623.3,600.9H621v-0.7h0c-0.5,0.6-1.3,1-2.1,1c-2.3,0-3.6-2.1-3.6-4.2c0-2.1,1.3-4.1,3.6-4.1
			c0.8,0,1.6,0.4,2.2,1v-0.7h2.2V600.9z M621.3,597c0-1.1-0.7-2.2-1.9-2.2s-1.9,1.1-1.9,2.2c0,1.1,0.7,2.2,1.9,2.2
			S621.3,598,621.3,597z"/>
	</g>
	<g>
		<path class="st2" d="M628.1,600.9h-2.2v-13.6h2.2V600.9z"/>
	</g>
	<g>
		<path class="st2" d="M633.2,589.8c0,0.7-0.6,1.3-1.3,1.3s-1.3-0.6-1.3-1.3c0-0.7,0.6-1.3,1.3-1.3S633.2,589,633.2,589.8z
			 M633,600.9h-2.2v-7.9h2.2V600.9z"/>
	</g>
	<g>
		<path class="st2" d="M642.3,599v1.9h-7.5l4-6h-3.4v-1.9h7.1l-4,6H642.3z"/>
	</g>
	<g>
		<path class="st2" d="M651.7,600.9h-2.2v-0.7h0c-0.5,0.6-1.3,1-2.1,1c-2.3,0-3.6-2.1-3.6-4.2c0-2.1,1.3-4.1,3.6-4.1
			c0.8,0,1.6,0.4,2.2,1v-0.7h2.2V600.9z M649.7,597c0-1.1-0.7-2.2-1.9-2.2s-1.9,1.1-1.9,2.2c0,1.1,0.7,2.2,1.9,2.2
			S649.7,598,649.7,597z"/>
	</g>
	<g>
		<path class="st2" d="M656.8,600.9h-2.2v-6h-0.8v-1.9h0.8v-2.7h2.2v2.7h1.4v1.9h-1.4V600.9z"/>
	</g>
	<g>
		<path class="st2" d="M662.2,589.8c0,0.7-0.6,1.3-1.3,1.3s-1.3-0.6-1.3-1.3c0-0.7,0.6-1.3,1.3-1.3S662.2,589,662.2,589.8z
			 M662,600.9h-2.2v-7.9h2.2V600.9z"/>
	</g>
	<g>
		<path class="st2" d="M672.3,597c0,2.4-1.7,4.2-4.1,4.2s-4.1-1.7-4.1-4.2c0-2.4,1.7-4.2,4.1-4.2C670.7,592.8,672.3,594.6,672.3,597
			z M666.4,597c0,1.1,0.7,2.2,1.9,2.2s1.9-1.1,1.9-2.2c0-1.1-0.7-2.2-1.9-2.2S666.4,595.9,666.4,597z"/>
	</g>
	<g>
		<path class="st2" d="M676.6,593.8L676.6,593.8c0.5-0.7,1.3-1,2.1-1c2.1,0,2.7,1.5,2.7,3.3v4.8h-2.2v-4.2c0-0.9,0-2.2-1.2-2.2
			c-1.3,0-1.3,1.5-1.3,2.4v3.9h-2.2v-7.9h2.2V593.8z"/>
	</g>
	<g>
		<path class="st2" d="M688,594.9c-0.3-0.3-0.7-0.5-1.2-0.5c-0.4,0-0.7,0.3-0.7,0.7c0,0.6,0.8,0.7,1.6,1.1c0.8,0.4,1.6,0.9,1.6,2.3
			c0,1.7-1.4,2.8-3.1,2.8c-1.1,0-2.1-0.5-2.8-1.3l1-1.3c0.4,0.5,1,0.9,1.7,0.9c0.5,0,0.9-0.3,0.9-0.8c0-0.7-0.8-0.8-1.6-1.2
			c-0.8-0.3-1.6-0.8-1.6-2.1c0-1.5,1-2.5,2.5-2.5c0.8,0,1.9,0.3,2.5,0.8L688,594.9z"/>
	</g>
</g>
<g>
	<path class="st4" d="M511.4,735.8h-78.6c-4.4,0-8-3.6-8-8v-30.9c0-4.4,3.6-8,8-8h78.6c4.4,0,8,3.6,8,8v30.9
		C519.4,732.2,515.8,735.8,511.4,735.8z"/>
</g>
<g>
	<g>
		<path class="st1" d="M453.4,699.4c-0.8-0.9-2-1.4-3.2-1.4c-2.4,0-4.3,2-4.3,4.4s1.9,4.4,4.3,4.4c1.2,0,2.4-0.6,3.2-1.4v1.5
			c-0.9,0.7-2,1-3.2,1c-3,0-5.5-2.4-5.5-5.4c0-3,2.5-5.5,5.5-5.5c1.2,0,2.2,0.3,3.2,1V699.4z"/>
	</g>
	<g>
		<path class="st1" d="M457.2,696.1v5.7l0,0c0.5-0.6,1.1-1,1.9-1c1.8,0,2.2,1.3,2.2,2.9v3.9h-1.1V704c0-1.1-0.1-2-1.4-2
			c-1.5,0-1.6,1.4-1.6,2.6v3.1h-1.1v-11.6H457.2z"/>
	</g>
	<g>
		<path class="st1" d="M470.2,707.7H469v-0.9h0c-0.6,0.7-1.3,1.1-2.3,1.1c-1.9,0-3.2-1.6-3.2-3.5c0-1.9,1.2-3.5,3.2-3.5
			c0.9,0,1.7,0.4,2.3,1.1h0v-0.9h1.1V707.7z M464.7,704.3c0,1.3,0.8,2.5,2.2,2.5c1.4,0,2.2-1.2,2.2-2.5c0-1.3-0.8-2.4-2.2-2.4
			C465.6,702,464.7,703.1,464.7,704.3z"/>
	</g>
	<g>
		<path class="st1" d="M474,701.9L474,701.9c0.5-0.6,1.1-1,1.9-1c1.8,0,2.2,1.3,2.2,2.9v3.9h-1.1V704c0-1.1-0.1-2-1.4-2
			c-1.5,0-1.6,1.4-1.6,2.6v3.1h-1.1v-6.6h1.1V701.9z"/>
	</g>
	<g>
		<path class="st1" d="M482.1,701.9L482.1,701.9c0.5-0.6,1.1-1,1.9-1c1.8,0,2.2,1.3,2.2,2.9v3.9h-1.1V704c0-1.1-0.1-2-1.4-2
			c-1.5,0-1.6,1.4-1.6,2.6v3.1H481v-6.6h1.1V701.9z"/>
	</g>
	<g>
		<path class="st1" d="M489.7,704.6c0,1.2,0.9,2.2,2.2,2.2c1,0,1.6-0.6,2-1.4l1,0.5c-0.6,1.2-1.7,1.8-3,1.8c-2,0-3.2-1.5-3.2-3.4
			c0-1.9,1.1-3.6,3.2-3.6c2.1,0,3.2,1.8,3.1,3.7H489.7z M493.7,703.7c-0.2-1-1-1.7-1.9-1.7c-1,0-1.9,0.8-2,1.7H493.7z"/>
	</g>
	<g>
		<path class="st1" d="M498.2,707.7h-1.1v-11.6h1.1V707.7z"/>
	</g>
	<g>
		<path class="st1" d="M437.9,721.5l-1.3,3h-1.3l4.9-11.1l4.7,11.1h-1.3l-1.2-3H437.9z M440.2,716.2l-1.8,4.2h3.6L440.2,716.2z"/>
	</g>
	<g>
		<path class="st1" d="M451.7,719.9L451.7,719.9c-0.5-0.7-1.2-1.1-2.1-1.1c-1.4,0-2.3,1.1-2.3,2.4c0,1.3,0.9,2.4,2.3,2.4
			c0.9,0,1.6-0.4,2.1-1.1h0v1.5c-0.6,0.4-1.3,0.7-2.1,0.7c-2,0-3.5-1.5-3.5-3.5c0-2,1.6-3.5,3.5-3.5c0.7,0,1.4,0.2,2,0.7V719.9z"/>
	</g>
	<g>
		<path class="st1" d="M455.4,724.5h-1.1v-5.5h-0.7v-1h0.7v-2.4h1.1v2.4h1.2v1h-1.2V724.5z"/>
	</g>
	<g>
		<path class="st1" d="M459.8,715.4c0,0.4-0.4,0.8-0.8,0.8s-0.8-0.3-0.8-0.8c0-0.4,0.4-0.8,0.8-0.8S459.8,715,459.8,715.4z
			 M459.6,724.5h-1.1v-6.6h1.1V724.5z"/>
	</g>
	<g>
		<path class="st1" d="M464.8,722.3l2-4.4h1.3l-3.2,7l-3.2-7h1.3L464.8,722.3z"/>
	</g>
	<g>
		<path class="st1" d="M475.8,724.5h-1.1v-0.9h0c-0.6,0.7-1.3,1.1-2.3,1.1c-1.9,0-3.2-1.6-3.2-3.5c0-1.9,1.2-3.5,3.2-3.5
			c0.9,0,1.7,0.4,2.3,1.1h0v-0.9h1.1V724.5z M470.4,721.1c0,1.3,0.8,2.5,2.2,2.5c1.4,0,2.2-1.2,2.2-2.5c0-1.3-0.8-2.4-2.2-2.4
			C471.2,718.8,470.4,719.9,470.4,721.1z"/>
	</g>
	<g>
		<path class="st1" d="M479.7,724.5h-1.1v-5.5h-0.7v-1h0.7v-2.4h1.1v2.4h1.2v1h-1.2V724.5z"/>
	</g>
	<g>
		<path class="st1" d="M484.2,715.4c0,0.4-0.4,0.8-0.8,0.8s-0.8-0.3-0.8-0.8c0-0.4,0.4-0.8,0.8-0.8S484.2,715,484.2,715.4z
			 M484,724.5h-1.1v-6.6h1.1V724.5z"/>
	</g>
	<g>
		<path class="st1" d="M486.4,721.2c0-1.9,1.5-3.5,3.5-3.5s3.5,1.6,3.5,3.5c0,1.9-1.5,3.5-3.5,3.5S486.4,723.1,486.4,721.2z
			 M487.5,721.2c0,1.3,1,2.4,2.3,2.4s2.3-1.1,2.3-2.4c0-1.3-1-2.4-2.3-2.4S487.5,719.9,487.5,721.2z"/>
	</g>
	<g>
		<path class="st1" d="M496.7,718.7L496.7,718.7c0.5-0.6,1.1-1,1.9-1c1.8,0,2.2,1.3,2.2,2.9v3.9h-1.1v-3.7c0-1.1-0.1-2-1.4-2
			c-1.5,0-1.6,1.4-1.6,2.6v3.1h-1.1v-6.6h1.1V718.7z"/>
	</g>
	<g>
		<path class="st1" d="M506.3,719.4c-0.2-0.3-0.5-0.7-0.9-0.7c-0.4,0-0.8,0.3-0.8,0.7c0,0.6,0.8,0.8,1.5,1.1s1.5,0.8,1.5,1.9
			c0,1.2-1,2.1-2.2,2.1c-1.1,0-2-0.6-2.3-1.7l1-0.4c0.3,0.6,0.6,1.1,1.3,1.1c0.6,0,1.1-0.4,1.1-1c0-1.5-3-1-3-3c0-1.1,0.9-1.9,2-1.9
			c0.8,0,1.5,0.5,1.8,1.2L506.3,719.4z"/>
	</g>
</g>
<g>
	<path class="st4" d="M617.1,735.8h-78.6c-4.4,0-8-3.6-8-8v-30.9c0-4.4,3.6-8,8-8h78.6c4.4,0,8,3.6,8,8v30.9
		C625.1,732.2,621.5,735.8,617.1,735.8z"/>
</g>
<g>
	<g>
		<path class="st1" d="M551.7,715.8c0,1.1,0,2-0.7,2.8c-0.6,0.8-1.6,1.2-2.5,1.2c-1.8,0-3.2-1.2-3.2-3h1.1c0,1.2,0.9,2,2.1,2
			c1.7,0,2.1-1.3,2.1-2.8v-0.8h0c-0.5,0.7-1.4,1.1-2.3,1.1c-1.9,0-3.1-1.6-3.1-3.4c0-1.8,1.2-3.5,3.2-3.5c0.9,0,1.7,0.4,2.2,1.1h0
			v-0.9h1.1V715.8z M546.2,712.7c0,1.3,0.8,2.5,2.2,2.5c1.4,0,2.2-1.2,2.2-2.5c0-1.3-0.8-2.4-2.2-2.4
			C547.1,710.4,546.2,711.5,546.2,712.7z"/>
	</g>
	<g>
		<path class="st1" d="M555.6,710.2L555.6,710.2c0.4-0.5,0.8-0.9,1.5-0.9c0.4,0,0.7,0.1,1,0.3l-0.5,1c-0.2-0.2-0.4-0.3-0.7-0.3
			c-1.2,0-1.3,1.6-1.3,2.4v3.3h-1.1v-6.6h1.1V710.2z"/>
	</g>
	<g>
		<path class="st1" d="M565.9,716.1h-1.1v-0.9h0c-0.6,0.7-1.3,1.1-2.3,1.1c-1.9,0-3.2-1.6-3.2-3.5c0-1.9,1.2-3.5,3.2-3.5
			c0.9,0,1.7,0.4,2.3,1.1h0v-0.9h1.1V716.1z M560.5,712.7c0,1.3,0.8,2.5,2.2,2.5c1.4,0,2.2-1.2,2.2-2.5c0-1.3-0.8-2.4-2.2-2.4
			C561.4,710.4,560.5,711.5,560.5,712.7z"/>
	</g>
	<g>
		<path class="st1" d="M573.6,715.2L573.6,715.2c-0.6,0.7-1.4,1.1-2.3,1.1c-1.9,0-3.2-1.6-3.2-3.5c0-1.9,1.2-3.5,3.2-3.5
			c0.9,0,1.7,0.4,2.3,1.1h0v-5.9h1.1v11.6h-1.1V715.2z M569.3,712.7c0,1.3,0.8,2.5,2.2,2.5c1.4,0,2.2-1.2,2.2-2.5
			c0-1.3-0.8-2.4-2.2-2.4C570.1,710.4,569.3,711.5,569.3,712.7z"/>
	</g>
	<g>
		<path class="st1" d="M585.5,707.8c-0.8-0.9-2-1.4-3.2-1.4c-2.4,0-4.3,2-4.3,4.4s1.9,4.4,4.3,4.4c1.2,0,2.4-0.6,3.2-1.4v1.5
			c-0.9,0.7-2,1-3.2,1c-3,0-5.5-2.4-5.5-5.4c0-3,2.5-5.5,5.5-5.5c1.2,0,2.2,0.3,3.2,1V707.8z"/>
	</g>
	<g>
		<path class="st1" d="M589.8,713.1l-1.3,3h-1.3l4.9-11.1l4.7,11.1h-1.3l-1.2-3H589.8z M592.1,707.8l-1.8,4.2h3.6L592.1,707.8z"/>
	</g>
	<g>
		<path class="st1" d="M600.1,704.9l3.8,8.9l3.9-8.9l2.1,11.2h-1.2l-1.4-7.1h0l-3.4,7.6l-3.4-7.6h0l-1.4,7.1h-1.2L600.1,704.9z"/>
	</g>
</g>
<g>
	<path class="st4" d="M724.9,735.8h-78.6c-4.4,0-8-3.6-8-8v-30.9c0-4.4,3.6-8,8-8h78.6c4.4,0,8,3.6,8,8v30.9
		C732.9,732.2,729.4,735.8,724.9,735.8z"/>
</g>
<g>
	<g>
		<path class="st1" d="M663.9,702.4c0,3-2.5,5.4-5.5,5.4s-5.5-2.4-5.5-5.4c0-3,2.5-5.5,5.5-5.5S663.9,699.4,663.9,702.4z
			 M654.1,702.4c0,2.4,1.9,4.4,4.3,4.4s4.3-2,4.3-4.4c0-2.4-1.9-4.4-4.3-4.4C656,698,654.1,700,654.1,702.4z"/>
	</g>
	<g>
		<path class="st1" d="M671.1,703.1L671.1,703.1c-0.5-0.7-1.2-1.1-2.1-1.1c-1.4,0-2.3,1.1-2.3,2.4c0,1.3,0.9,2.4,2.3,2.4
			c0.9,0,1.6-0.4,2.1-1.1h0v1.5c-0.6,0.4-1.3,0.7-2.1,0.7c-2,0-3.5-1.5-3.5-3.5c0-2,1.6-3.5,3.5-3.5c0.7,0,1.4,0.2,2,0.7V703.1z"/>
	</g>
	<g>
		<path class="st1" d="M678.5,703.1L678.5,703.1c-0.5-0.7-1.2-1.1-2.1-1.1c-1.4,0-2.3,1.1-2.3,2.4c0,1.3,0.9,2.4,2.3,2.4
			c0.9,0,1.6-0.4,2.1-1.1h0v1.5c-0.6,0.4-1.3,0.7-2.1,0.7c-2,0-3.5-1.5-3.5-3.5c0-2,1.6-3.5,3.5-3.5c0.7,0,1.4,0.2,2,0.7V703.1z"/>
	</g>
	<g>
		<path class="st1" d="M682,707.7h-1.1v-11.6h1.1V707.7z"/>
	</g>
	<g>
		<path class="st1" d="M685.9,704.8c0,1.1,0.1,2.1,1.5,2.1c1.4,0,1.5-1,1.5-2.1v-3.7h1.1v3.8c0,1.8-0.7,3-2.6,3s-2.6-1.2-2.6-3v-3.8
			h1.1V704.8z"/>
	</g>
	<g>
		<path class="st1" d="M695.4,702.6c-0.2-0.4-0.5-0.7-0.9-0.7c-0.4,0-0.8,0.3-0.8,0.7c0,0.6,0.8,0.8,1.5,1.1s1.5,0.8,1.5,1.9
			c0,1.2-1,2.1-2.2,2.1c-1.1,0-2-0.6-2.3-1.7l1-0.4c0.3,0.6,0.6,1.1,1.3,1.1c0.6,0,1.1-0.4,1.1-1c0-1.5-3-1-3-3c0-1.1,0.9-1.9,2-1.9
			c0.8,0,1.5,0.5,1.8,1.2L695.4,702.6z"/>
	</g>
	<g>
		<path class="st1" d="M700.5,698.6c0,0.4-0.4,0.8-0.8,0.8c-0.4,0-0.8-0.4-0.8-0.8c0-0.4,0.4-0.8,0.8-0.8
			C700.2,697.8,700.5,698.2,700.5,698.6z M700.3,707.7h-1.1v-6.6h1.1V707.7z"/>
	</g>
	<g>
		<path class="st1" d="M702.8,704.4c0-1.9,1.5-3.5,3.5-3.5c1.9,0,3.5,1.6,3.5,3.5c0,1.9-1.5,3.5-3.5,3.5S702.8,706.3,702.8,704.4z
			 M703.9,704.4c0,1.3,1,2.4,2.3,2.4s2.3-1.1,2.3-2.4c0-1.3-1-2.4-2.3-2.4S703.9,703.1,703.9,704.4z"/>
	</g>
	<g>
		<path class="st1" d="M713,701.9L713,701.9c0.5-0.6,1.1-1,1.9-1c1.8,0,2.2,1.3,2.2,2.9v3.9h-1.1V704c0-1.1-0.1-2-1.4-2
			c-1.5,0-1.6,1.4-1.6,2.6v3.1h-1.1v-6.6h1.1V701.9z"/>
	</g>
	<g>
		<path class="st1" d="M658,716c-0.4-0.7-0.9-1.1-1.8-1.1c-0.9,0-1.8,0.7-1.8,1.6c0,0.9,0.9,1.3,1.7,1.7l0.7,0.3
			c1.4,0.6,2.5,1.3,2.5,3c0,1.8-1.5,3.3-3.3,3.3c-1.7,0-3-1.1-3.3-2.7l1.1-0.3c0.2,1.1,1,2,2.1,2s2.2-0.9,2.2-2.1
			c0-1.2-1-1.7-1.9-2.1l-0.6-0.3c-1.2-0.6-2.3-1.2-2.3-2.7c0-1.6,1.4-2.7,3-2.7c1.2,0,2.2,0.6,2.7,1.6L658,716z"/>
	</g>
	<g>
		<path class="st1" d="M662.3,721.4c0,1.2,0.9,2.2,2.2,2.2c1,0,1.6-0.6,2-1.4l1,0.5c-0.6,1.2-1.7,1.8-3,1.8c-2,0-3.2-1.5-3.2-3.4
			c0-1.9,1.1-3.6,3.2-3.6c2.1,0,3.2,1.8,3.1,3.7H662.3z M666.3,720.5c-0.2-1-1-1.7-1.9-1.7c-1,0-1.9,0.8-2,1.7H666.3z"/>
	</g>
	<g>
		<path class="st1" d="M670.9,718.7L670.9,718.7c0.5-0.6,1.1-1,1.9-1c1.8,0,2.2,1.3,2.2,2.9v3.9h-1.1v-3.7c0-1.1-0.1-2-1.4-2
			c-1.5,0-1.6,1.4-1.6,2.6v3.1h-1.1v-6.6h1.1V718.7z"/>
	</g>
	<g>
		<path class="st1" d="M680.5,719.4c-0.2-0.4-0.5-0.7-0.9-0.7c-0.4,0-0.8,0.3-0.8,0.7c0,0.6,0.8,0.8,1.5,1.1s1.5,0.8,1.5,1.9
			c0,1.2-1,2.1-2.2,2.1c-1.1,0-2-0.6-2.3-1.7l1-0.4c0.3,0.6,0.6,1.1,1.3,1.1c0.6,0,1.1-0.4,1.1-1c0-1.5-3-1-3-3c0-1.1,0.9-1.9,2-1.9
			c0.8,0,1.5,0.5,1.8,1.2L680.5,719.4z"/>
	</g>
	<g>
		<path class="st1" d="M685.7,715.4c0,0.4-0.4,0.8-0.8,0.8c-0.4,0-0.8-0.4-0.8-0.8c0-0.4,0.4-0.8,0.8-0.8
			C685.3,714.6,685.7,715,685.7,715.4z M685.5,724.5h-1.1v-6.6h1.1V724.5z"/>
	</g>
	<g>
		<path class="st1" d="M689.7,724.5h-1.1v-5.5h-0.7v-1h0.7v-2.4h1.1v2.4h1.2v1h-1.2V724.5z"/>
	</g>
	<g>
		<path class="st1" d="M694.1,715.4c0,0.4-0.4,0.8-0.8,0.8c-0.4,0-0.8-0.4-0.8-0.8c0-0.4,0.4-0.8,0.8-0.8
			C693.8,714.6,694.1,715,694.1,715.4z M693.9,724.5h-1.1v-6.6h1.1V724.5z"/>
	</g>
	<g>
		<path class="st1" d="M699.1,722.3l2-4.4h1.3l-3.2,7l-3.2-7h1.3L699.1,722.3z"/>
	</g>
	<g>
		<path class="st1" d="M705.7,715.4c0,0.4-0.4,0.8-0.8,0.8c-0.4,0-0.8-0.4-0.8-0.8c0-0.4,0.4-0.8,0.8-0.8
			C705.3,714.6,705.7,715,705.7,715.4z M705.4,724.5h-1.1v-6.6h1.1V724.5z"/>
	</g>
	<g>
		<path class="st1" d="M709.6,724.5h-1.1v-5.5h-0.7v-1h0.7v-2.4h1.1v2.4h1.2v1h-1.2V724.5z"/>
	</g>
	<g>
		<path class="st1" d="M711.4,717.9h1.3l2.3,4.7l2.1-4.7h1.3l-4.9,10.3h-1.3l2.1-4.3L711.4,717.9z"/>
	</g>
</g>
<g>
	<polygon class="st0" points="611.2,165.2 603.2,165.2 603.2,122.4 252.7,122.4 252.7,165.2 244.7,165.2 244.7,114.4 611.2,114.4 	
		"/>
</g>
<g>
	<path class="st3" d="M692.2,236.9H519.7c-4.4,0-8-3.6-8-8v-57.5c0-4.4,3.6-8,8-8h172.4c4.4,0,8,3.6,8,8v57.5
		C700.2,233.3,696.6,236.9,692.2,236.9z"/>
</g>
<g>
	<g>
		<path class="st2" d="M553.8,184.9h5.5v1.1H555v3.1h4.2v1.1H555v4.1h4.3v1.1h-5.5V184.9z"/>
	</g>
	<g>
		<path class="st2" d="M561.3,188.9h1.4l1.7,2.2l1.7-2.2h1.4l-2.4,3.1l2.7,3.5h-1.4l-2.1-2.7l-2.1,2.7h-1.4l2.8-3.5L561.3,188.9z"/>
	</g>
	<g>
		<path class="st2" d="M570.7,189.8L570.7,189.8c0.6-0.7,1.4-1.1,2.3-1.1c1.9,0,3.2,1.7,3.2,3.5c0,1.9-1.2,3.5-3.2,3.5
			c-0.9,0-1.7-0.4-2.3-1.1h0v4.6h-1.1v-10.3h1.1V189.8z M570.7,192.1c0,1.3,0.8,2.5,2.2,2.5c1.4,0,2.2-1.2,2.2-2.5
			c0-1.3-0.8-2.4-2.2-2.4C571.5,189.7,570.7,190.9,570.7,192.1z"/>
	</g>
	<g>
		<path class="st2" d="M579.5,195.5h-1.1v-11.6h1.1V195.5z"/>
	</g>
	<g>
		<path class="st2" d="M588.3,195.5h-1.1v-0.9h0c-0.6,0.7-1.3,1.1-2.3,1.1c-1.9,0-3.2-1.6-3.2-3.5c0-1.9,1.2-3.5,3.2-3.5
			c0.9,0,1.7,0.4,2.3,1.1h0v-0.9h1.1V195.5z M582.9,192.1c0,1.3,0.8,2.5,2.2,2.5c1.4,0,2.2-1.2,2.2-2.5c0-1.3-0.8-2.4-2.2-2.4
			C583.7,189.7,582.9,190.9,582.9,192.1z"/>
	</g>
	<g>
		<path class="st2" d="M592.7,186.4c0,0.4-0.4,0.8-0.8,0.8c-0.4,0-0.8-0.4-0.8-0.8c0-0.4,0.4-0.8,0.8-0.8
			C592.3,185.6,592.7,186,592.7,186.4z M592.4,195.5h-1.1v-6.6h1.1V195.5z"/>
	</g>
	<g>
		<path class="st2" d="M596.6,189.7L596.6,189.7c0.5-0.6,1.1-1,1.9-1c1.8,0,2.2,1.3,2.2,2.9v3.9h-1.1v-3.7c0-1.1-0.1-2-1.4-2
			c-1.5,0-1.6,1.4-1.6,2.6v3.1h-1.1v-6.6h1.1V189.7z"/>
	</g>
	<g>
		<path class="st2" d="M608.4,188.3l1.6-3.6l0.8,0.3l-1.3,3.7L608.4,188.3z M610.7,188.3l1.6-3.6l0.8,0.3l-1.3,3.7L610.7,188.3z"/>
	</g>
	<g>
		<path class="st2" d="M616.8,195.5h-1.1v-11.6h1.1V195.5z"/>
	</g>
	<g>
		<path class="st2" d="M619,192.2c0-1.9,1.5-3.5,3.5-3.5c1.9,0,3.5,1.6,3.5,3.5s-1.5,3.5-3.5,3.5S619,194.1,619,192.2z M620.1,192.2
			c0,1.3,1,2.4,2.3,2.4s2.3-1.1,2.3-2.4c0-1.3-1-2.4-2.3-2.4S620.1,190.9,620.1,192.2z"/>
	</g>
	<g>
		<path class="st2" d="M633,190.9L633,190.9c-0.5-0.7-1.2-1.1-2.1-1.1c-1.4,0-2.3,1.1-2.3,2.4c0,1.3,0.9,2.4,2.3,2.4
			c0.9,0,1.6-0.4,2.1-1.1h0v1.5c-0.6,0.4-1.3,0.7-2.1,0.7c-2,0-3.5-1.5-3.5-3.5c0-2,1.6-3.5,3.5-3.5c0.7,0,1.4,0.2,2,0.7V190.9z"/>
	</g>
	<g>
		<path class="st2" d="M641.5,195.5h-1.1v-0.9h0c-0.6,0.7-1.3,1.1-2.3,1.1c-1.9,0-3.2-1.6-3.2-3.5c0-1.9,1.2-3.5,3.2-3.5
			c0.9,0,1.7,0.4,2.3,1.1h0v-0.9h1.1V195.5z M636.1,192.1c0,1.3,0.8,2.5,2.2,2.5c1.4,0,2.2-1.2,2.2-2.5c0-1.3-0.8-2.4-2.2-2.4
			C636.9,189.7,636.1,190.9,636.1,192.1z"/>
	</g>
	<g>
		<path class="st2" d="M645.3,195.5h-1.1v-11.6h1.1V195.5z"/>
	</g>
	<g>
		<path class="st2" d="M650.3,185.1l-1.6,3.6l-0.8-0.3l1.3-3.7L650.3,185.1z M652.6,185.1l-1.6,3.6l-0.8-0.3l1.3-3.7L652.6,185.1z"
			/>
	</g>
	<g>
		<path class="st2" d="M573.6,200.7h1.1v5.9h0c0.5-0.7,1.4-1.1,2.3-1.1c2,0,3.2,1.6,3.2,3.5c0,1.8-1.2,3.5-3.2,3.5
			c-0.9,0-1.7-0.4-2.3-1.1h0v0.9h-1.1V200.7z M574.7,208.9c0,1.3,0.8,2.5,2.2,2.5c1.4,0,2.2-1.2,2.2-2.5c0-1.3-0.8-2.4-2.2-2.4
			C575.6,206.5,574.7,207.7,574.7,208.9z"/>
	</g>
	<g>
		<path class="st2" d="M583,209.2c0,1.2,0.9,2.2,2.2,2.2c1,0,1.6-0.6,2-1.4l1,0.5c-0.6,1.2-1.7,1.8-3,1.8c-2,0-3.2-1.5-3.2-3.4
			c0-1.9,1.1-3.6,3.2-3.6c2.1,0,3.2,1.8,3.1,3.7H583z M587,208.3c-0.2-1-1-1.7-1.9-1.7c-1,0-1.9,0.8-2,1.7H587z"/>
	</g>
	<g>
		<path class="st2" d="M591.6,200.7v5.7l0,0c0.5-0.6,1.1-1,1.9-1c1.8,0,2.2,1.3,2.2,2.9v3.9h-1.1v-3.7c0-1.1-0.1-2-1.4-2
			c-1.5,0-1.6,1.4-1.6,2.6v3.1h-1.1v-11.6H591.6z"/>
	</g>
	<g>
		<path class="st2" d="M604.5,212.3h-1.1v-0.9h0c-0.6,0.7-1.3,1.1-2.3,1.1c-1.9,0-3.2-1.6-3.2-3.5c0-1.9,1.2-3.5,3.2-3.5
			c0.9,0,1.7,0.4,2.3,1.1h0v-0.9h1.1V212.3z M599.1,208.9c0,1.3,0.8,2.5,2.2,2.5c1.4,0,2.2-1.2,2.2-2.5c0-1.3-0.8-2.4-2.2-2.4
			C600,206.5,599.1,207.7,599.1,208.9z"/>
	</g>
	<g>
		<path class="st2" d="M609.5,210.1l2-4.4h1.3l-3.2,7l-3.2-7h1.3L609.5,210.1z"/>
	</g>
	<g>
		<path class="st2" d="M616.1,203.2c0,0.4-0.4,0.8-0.8,0.8c-0.4,0-0.8-0.4-0.8-0.8c0-0.4,0.4-0.8,0.8-0.8
			C615.7,202.4,616.1,202.8,616.1,203.2z M615.8,212.3h-1.1v-6.6h1.1V212.3z"/>
	</g>
	<g>
		<path class="st2" d="M618.3,209c0-1.9,1.5-3.5,3.5-3.5c1.9,0,3.5,1.6,3.5,3.5s-1.5,3.5-3.5,3.5S618.3,210.9,618.3,209z M619.4,209
			c0,1.3,1,2.4,2.3,2.4s2.3-1.1,2.3-2.4c0-1.3-1-2.4-2.3-2.4S619.4,207.7,619.4,209z"/>
	</g>
	<g>
		<path class="st2" d="M628.5,206.4L628.5,206.4c0.4-0.5,0.8-0.9,1.5-0.9c0.4,0,0.7,0.1,1,0.3l-0.5,1c-0.2-0.2-0.4-0.3-0.7-0.3
			c-1.2,0-1.3,1.6-1.3,2.4v3.3h-1.1v-6.6h1.1V206.4z"/>
	</g>
	<g>
		<path class="st2" d="M637.4,207.7c0,1.3-0.9,2.4-2.3,2.4c-1.3,0-2.3-1-2.3-2.3c0-1.3,0.9-1.8,1.9-2.1c0.9-0.3,1.8-0.5,1.8-1.6
			c0-0.9-0.6-1.5-1.4-1.5c-0.8,0-1.4,0.6-1.4,1.4c0,0.2,0,0.4,0.1,0.7h-1.2l-0.1-0.7c0-1.5,1.2-2.4,2.6-2.4c1.4,0,2.5,1.1,2.5,2.5
			c0,0.7-0.3,1.4-0.8,1.9c-0.5,0.4-1.2,0.6-1.9,0.8c-0.6,0.2-1.1,0.5-1.1,1.2c0,0.6,0.5,1.1,1.1,1.1c0.8,0,1.1-0.6,1.1-1.3H637.4z
			 M635.9,211.7c0,0.4-0.3,0.8-0.8,0.8s-0.8-0.4-0.8-0.8c0-0.4,0.3-0.8,0.8-0.8S635.9,211.2,635.9,211.7z"/>
	</g>
</g>
<g>
	<polygon class="st0" points="412.5,297.5 404.5,297.5 404.5,270.4 87.7,270.4 87.7,297.5 79.7,297.5 79.7,262.4 412.5,262.4 	"/>
</g>
<g>
	<rect x="242.1" y="238.6" class="st0" width="8" height="58.8"/>
</g>
<g>
	<path class="st1" d="M331.4,239.6H167.9c-4.4,0-8-3.6-8-8v-63c0-4.4,3.6-8,8-8h163.5c4.4,0,8,3.6,8,8v63
		C339.4,236,335.8,239.6,331.4,239.6z"/>
	<path class="st2" d="M331.4,240.1H167.9c-4.7,0-8.5-3.8-8.5-8.5v-63c0-4.7,3.8-8.5,8.5-8.5h163.5c4.7,0,8.5,3.8,8.5,8.5v63
		C339.9,236.3,336,240.1,331.4,240.1z M167.9,161.1c-4.1,0-7.5,3.4-7.5,7.5v63c0,4.1,3.4,7.5,7.5,7.5h163.5c4.1,0,7.5-3.4,7.5-7.5
		v-63c0-4.1-3.4-7.5-7.5-7.5H167.9z"/>
</g>
<g>
	<g>
		<path class="st2" d="M190.1,183.1h2.4v6.8c0,1.5,0.1,3.6,2.1,3.6c2,0,2.1-2.1,2.1-3.6v-6.8h2.4v7.2c0,2.9-1.2,5.2-4.5,5.2
			s-4.5-2.2-4.5-5.2V183.1z"/>
	</g>
	<g>
		<path class="st2" d="M205.6,189.2c-0.3-0.3-0.7-0.5-1.2-0.5c-0.4,0-0.7,0.3-0.7,0.7c0,0.6,0.8,0.7,1.6,1.1
			c0.8,0.4,1.6,0.9,1.6,2.3c0,1.7-1.4,2.8-3.1,2.8c-1.1,0-2.1-0.5-2.8-1.3l1-1.3c0.4,0.5,1,0.9,1.7,0.9c0.5,0,0.9-0.3,0.9-0.8
			c0-0.7-0.8-0.8-1.6-1.2c-0.8-0.3-1.6-0.8-1.6-2.1c0-1.5,1-2.5,2.5-2.5c0.8,0,1.9,0.3,2.5,0.8L205.6,189.2z"/>
	</g>
	<g>
		<path class="st2" d="M210.9,191.6c0,1,0.4,2.1,1.6,2.1c0.7,0,1.2-0.4,1.5-1.1l2.1,0.3c-0.5,1.6-1.9,2.4-3.6,2.4
			c-2.4,0-3.9-1.7-3.9-4.1c0-2.4,1.3-4.3,3.8-4.3c2.6,0,3.7,1.9,3.7,4.3v0.3H210.9z M214,190.2c-0.1-0.8-0.6-1.6-1.5-1.6
			c-0.9,0-1.4,0.8-1.5,1.6H214z"/>
	</g>
	<g>
		<path class="st2" d="M223.4,187.6l2.3-4.8l1.5,0.2l-1.7,4.9L223.4,187.6z M226.4,187.6l2.3-4.8l1.5,0.2l-1.7,4.9L226.4,187.6z"/>
	</g>
	<g>
		<path class="st2" d="M235,184c0,0.7-0.6,1.3-1.3,1.3s-1.3-0.6-1.3-1.3c0-0.7,0.6-1.3,1.3-1.3S235,183.3,235,184z M234.8,195.2
			h-2.2v-7.9h2.2V195.2z"/>
	</g>
	<g>
		<path class="st2" d="M239.7,188L239.7,188c0.5-0.7,1.3-1,2.1-1c2.1,0,2.7,1.5,2.7,3.3v4.8h-2.2V191c0-0.9,0-2.2-1.2-2.2
			c-1.3,0-1.3,1.5-1.3,2.4v3.9h-2.2v-7.9h2.2V188z"/>
	</g>
	<g>
		<path class="st2" d="M249.3,181.6v6.4h0c0.5-0.6,1.2-0.9,2-0.9c2.1,0,2.7,1.5,2.7,3.3v4.8h-2.2V191c0-0.9,0-2.2-1.2-2.2
			c-1.3,0-1.3,1.5-1.3,2.4v3.9h-2.2v-13.6H249.3z"/>
	</g>
	<g>
		<path class="st2" d="M258.5,191.6c0,1,0.4,2.1,1.6,2.1c0.7,0,1.2-0.4,1.5-1.1l2.1,0.3c-0.5,1.6-1.9,2.4-3.6,2.4
			c-2.4,0-3.9-1.7-3.9-4.1c0-2.4,1.3-4.3,3.8-4.3c2.6,0,3.7,1.9,3.7,4.3v0.3H258.5z M261.5,190.2c-0.1-0.8-0.6-1.6-1.5-1.6
			c-0.9,0-1.4,0.8-1.5,1.6H261.5z"/>
	</g>
	<g>
		<path class="st2" d="M267.9,188.1L267.9,188.1c0.5-0.7,1.2-1.1,2-1.1c0.3,0,0.6,0.1,0.9,0.2l-0.3,2.1c-0.3-0.2-0.6-0.3-0.9-0.3
			c-1.6,0-1.7,1.4-1.7,2.6v3.5h-2.2v-7.9h2.2V188.1z"/>
	</g>
	<g>
		<path class="st2" d="M274.3,191.6c0,1,0.4,2.1,1.6,2.1c0.7,0,1.2-0.4,1.5-1.1l2.1,0.3c-0.5,1.6-1.9,2.4-3.6,2.4
			c-2.4,0-3.9-1.7-3.9-4.1c0-2.4,1.3-4.3,3.8-4.3c2.6,0,3.7,1.9,3.7,4.3v0.3H274.3z M277.3,190.2c-0.1-0.8-0.6-1.6-1.5-1.6
			c-0.9,0-1.4,0.8-1.5,1.6H277.3z"/>
	</g>
	<g>
		<path class="st2" d="M283.7,188L283.7,188c0.5-0.7,1.3-1,2.1-1c2.1,0,2.7,1.5,2.7,3.3v4.8h-2.2V191c0-0.9,0-2.2-1.2-2.2
			c-1.3,0-1.3,1.5-1.3,2.4v3.9h-2.2v-7.9h2.2V188z"/>
	</g>
	<g>
		<path class="st2" d="M293.6,195.2h-2.2v-6h-0.8v-1.9h0.8v-2.7h2.2v2.7h1.4v1.9h-1.4V195.2z"/>
	</g>
	<g>
		<path class="st2" d="M299.9,183l-2.3,4.8l-1.5-0.2l1.7-4.9L299.9,183z M302.9,183l-2.3,4.8l-1.5-0.2l1.7-4.9L302.9,183z"/>
	</g>
	<g>
		<path class="st2" d="M202.1,210.8c0,1,0.4,2.1,1.6,2.1c0.7,0,1.2-0.4,1.5-1.1l2.1,0.3c-0.5,1.6-1.9,2.4-3.6,2.4
			c-2.4,0-3.9-1.7-3.9-4.1c0-2.4,1.3-4.3,3.8-4.3c2.6,0,3.7,1.9,3.7,4.3v0.3H202.1z M205.1,209.4c-0.1-0.8-0.6-1.6-1.5-1.6
			c-0.9,0-1.4,0.8-1.5,1.6H205.1z"/>
	</g>
	<g>
		<path class="st2" d="M208.8,206.5h2.7l1.5,2l1.2-2h2.8l-2.8,3.6l3.3,4.3h-2.8l-2-2.7l-1.8,2.7h-2.8l3.4-4.3L208.8,206.5z"/>
	</g>
	<g>
		<path class="st2" d="M221.2,207.2c0.5-0.6,1.3-1,2.2-1c2.2,0,3.6,2.1,3.6,4.1c0,2.1-1.3,4.2-3.6,4.2c-0.8,0-1.6-0.4-2.1-1h0v4.9
			H219v-12.1h2.2V207.2z M224.7,210.4c0-1.1-0.7-2.2-1.9-2.2s-1.9,1.1-1.9,2.2c0,1.1,0.7,2.2,1.9,2.2S224.7,211.5,224.7,210.4z"/>
	</g>
	<g>
		<path class="st2" d="M231.2,214.4H229v-13.6h2.2V214.4z"/>
	</g>
	<g>
		<path class="st2" d="M241.2,214.4H239v-0.7h0c-0.5,0.6-1.3,1-2.1,1c-2.3,0-3.6-2.1-3.6-4.2c0-2.1,1.3-4.1,3.6-4.1
			c0.8,0,1.6,0.4,2.2,1v-0.7h2.2V214.4z M239.2,210.4c0-1.1-0.7-2.2-1.9-2.2c-1.2,0-1.9,1.1-1.9,2.2c0,1.1,0.7,2.2,1.9,2.2
			C238.5,212.7,239.2,211.5,239.2,210.4z"/>
	</g>
	<g>
		<path class="st2" d="M246,207.2L246,207.2c0.5-0.7,1.3-1,2.1-1c2.1,0,2.7,1.5,2.7,3.3v4.8h-2.2v-4.2c0-0.9,0-2.2-1.2-2.2
			c-1.3,0-1.3,1.5-1.3,2.4v3.9h-2.2v-7.9h2.2V207.2z"/>
	</g>
	<g>
		<path class="st2" d="M260.8,214.4h-2.2v-0.7h0c-0.5,0.6-1.3,1-2.1,1c-2.3,0-3.6-2.1-3.6-4.2c0-2.1,1.3-4.1,3.6-4.1
			c0.8,0,1.6,0.4,2.2,1v-0.7h2.2V214.4z M258.8,210.4c0-1.1-0.7-2.2-1.9-2.2c-1.2,0-1.9,1.1-1.9,2.2c0,1.1,0.7,2.2,1.9,2.2
			C258.1,212.7,258.8,211.5,258.8,210.4z"/>
	</g>
	<g>
		<path class="st2" d="M265.9,214.4h-2.2v-6h-0.8v-1.9h0.8v-2.7h2.2v2.7h1.4v1.9h-1.4V214.4z"/>
	</g>
	<g>
		<path class="st2" d="M271.3,203.2c0,0.7-0.6,1.3-1.3,1.3s-1.3-0.6-1.3-1.3c0-0.7,0.6-1.3,1.3-1.3S271.3,202.5,271.3,203.2z
			 M271.1,214.4h-2.2v-7.9h2.2V214.4z"/>
	</g>
	<g>
		<path class="st2" d="M281.4,210.5c0,2.4-1.7,4.2-4.1,4.2s-4.1-1.7-4.1-4.2c0-2.4,1.7-4.2,4.1-4.2
			C279.8,206.3,281.4,208,281.4,210.5z M275.4,210.5c0,1.1,0.7,2.2,1.9,2.2s1.9-1.1,1.9-2.2c0-1.1-0.7-2.2-1.9-2.2
			S275.4,209.4,275.4,210.5z"/>
	</g>
	<g>
		<path class="st2" d="M285.7,207.2L285.7,207.2c0.5-0.7,1.3-1,2.1-1c2.1,0,2.7,1.5,2.7,3.3v4.8h-2.2v-4.2c0-0.9,0-2.2-1.2-2.2
			c-1.3,0-1.3,1.5-1.3,2.4v3.9h-2.2v-7.9h2.2V207.2z"/>
	</g>
	<g>
		<path class="st2" d="M297.1,208.4c-0.3-0.3-0.7-0.5-1.2-0.5c-0.4,0-0.7,0.3-0.7,0.7c0,0.6,0.8,0.7,1.6,1.1
			c0.8,0.4,1.6,0.9,1.6,2.3c0,1.7-1.4,2.8-3.1,2.8c-1.1,0-2.1-0.5-2.8-1.3l1-1.3c0.4,0.5,1,0.9,1.7,0.9c0.5,0,0.9-0.3,0.9-0.8
			c0-0.7-0.8-0.8-1.6-1.2c-0.8-0.3-1.6-0.8-1.6-2.1c0-1.5,1-2.5,2.5-2.5c0.8,0,1.9,0.3,2.5,0.8L297.1,208.4z"/>
	</g>
</g>
<g>
	<path class="st4" d="M144.2,351.2H22c-4.4,0-8-3.6-8-8v-40.4c0-4.4,3.6-8,8-8h122.2c4.4,0,8,3.6,8,8v40.4
		C152.2,347.6,148.6,351.2,144.2,351.2z"/>
</g>
<g>
	<g>
		<path class="st1" d="M36.6,317.3h2.9v1.1h-4.1v-10.6h1.2V317.3z"/>
	</g>
	<g>
		<path class="st1" d="M42.9,309.3c0,0.4-0.4,0.8-0.8,0.8s-0.8-0.4-0.8-0.8c0-0.4,0.4-0.8,0.8-0.8S42.9,308.9,42.9,309.3z
			 M42.7,318.4h-1.1v-6.6h1.1V318.4z"/>
	</g>
	<g>
		<path class="st1" d="M46.8,312.6L46.8,312.6c0.5-0.6,1.1-1,1.9-1c1.8,0,2.2,1.3,2.2,2.9v3.9h-1.1v-3.7c0-1.1-0.1-2-1.4-2
			c-1.5,0-1.6,1.4-1.6,2.6v3.1h-1.1v-6.6h1.1V312.6z"/>
	</g>
	<g>
		<path class="st1" d="M54.4,315.3c0,1.2,0.9,2.2,2.2,2.2c1,0,1.6-0.6,2-1.4l1,0.5c-0.6,1.2-1.7,1.8-3,1.8c-2,0-3.2-1.5-3.2-3.4
			c0-1.9,1.1-3.6,3.2-3.6c2.1,0,3.2,1.8,3.1,3.7H54.4z M58.3,314.4c-0.2-1-1-1.7-1.9-1.7c-1,0-1.9,0.8-2,1.7H58.3z"/>
	</g>
	<g>
		<path class="st1" d="M67.8,318.4h-1.1v-0.9h0c-0.6,0.7-1.3,1.1-2.3,1.1c-1.9,0-3.2-1.6-3.2-3.5c0-1.9,1.2-3.5,3.2-3.5
			c0.9,0,1.7,0.4,2.3,1.1h0v-0.9h1.1V318.4z M62.3,315c0,1.3,0.8,2.5,2.2,2.5c1.4,0,2.2-1.2,2.2-2.5c0-1.3-0.8-2.4-2.2-2.4
			C63.2,312.7,62.3,313.8,62.3,315z"/>
	</g>
	<g>
		<path class="st1" d="M71.6,312.5L71.6,312.5c0.4-0.5,0.8-0.9,1.5-0.9c0.4,0,0.7,0.1,1,0.3l-0.5,1c-0.2-0.2-0.4-0.3-0.7-0.3
			c-1.2,0-1.3,1.6-1.3,2.4v3.3h-1.1v-6.6h1.1V312.5z"/>
	</g>
	<g>
		<path class="st1" d="M82.1,312.5L82.1,312.5c0.4-0.5,0.9-0.9,1.6-0.9c0.8,0,1.5,0.4,1.8,1.1c0.4-0.7,1.2-1.1,2-1.1
			c1.7,0,2.1,1.4,2.1,2.8v4h-1.1v-3.8c0-0.9-0.1-1.9-1.2-1.9c-1.3,0-1.4,1.2-1.4,2.2v3.5h-1.1v-3.7c0-0.8-0.1-2-1.2-2
			c-1.3,0-1.5,1.3-1.5,2.3v3.4h-1.1v-6.6h1.1V312.5z"/>
	</g>
	<g>
		<path class="st1" d="M91.8,315.1c0-1.9,1.5-3.5,3.5-3.5s3.5,1.6,3.5,3.5s-1.5,3.5-3.5,3.5S91.8,317,91.8,315.1z M92.9,315.1
			c0,1.3,1,2.4,2.3,2.4s2.3-1.1,2.3-2.4c0-1.3-1-2.4-2.3-2.4S92.9,313.8,92.9,315.1z"/>
	</g>
	<g>
		<path class="st1" d="M105.8,317.5L105.8,317.5c-0.6,0.7-1.4,1.1-2.3,1.1c-1.9,0-3.2-1.6-3.2-3.5c0-1.9,1.2-3.5,3.2-3.5
			c0.9,0,1.7,0.4,2.3,1.1h0v-5.9h1.1v11.6h-1.1V317.5z M101.5,315c0,1.3,0.8,2.5,2.2,2.5c1.4,0,2.2-1.2,2.2-2.5
			c0-1.3-0.8-2.4-2.2-2.4C102.4,312.7,101.5,313.8,101.5,315z"/>
	</g>
	<g>
		<path class="st1" d="M110.3,315.3c0,1.2,0.9,2.2,2.2,2.2c1,0,1.6-0.6,2-1.4l1,0.5c-0.6,1.2-1.7,1.8-3,1.8c-2,0-3.2-1.5-3.2-3.4
			c0-1.9,1.1-3.6,3.2-3.6c2.1,0,3.2,1.8,3.1,3.7H110.3z M114.3,314.4c-0.2-1-1-1.7-1.9-1.7c-1,0-1.9,0.8-2,1.7H114.3z"/>
	</g>
	<g>
		<path class="st1" d="M118.8,318.4h-1.1v-11.6h1.1V318.4z"/>
	</g>
	<g>
		<path class="st1" d="M124.2,313.3c-0.2-0.4-0.5-0.7-0.9-0.7c-0.4,0-0.8,0.3-0.8,0.7c0,0.6,0.8,0.8,1.5,1.1s1.5,0.8,1.5,1.9
			c0,1.2-1,2.1-2.2,2.1c-1.1,0-2-0.6-2.3-1.7l1-0.4c0.3,0.6,0.6,1.1,1.3,1.1c0.6,0,1.1-0.4,1.1-1c0-1.5-3-1-3-3c0-1.1,0.9-1.9,2-1.9
			c0.8,0,1.5,0.5,1.8,1.2L124.2,313.3z"/>
	</g>
	<g>
		<path class="st1" d="M129.7,312.4c0,0.4-0.4,0.8-0.8,0.8s-0.8-0.4-0.8-0.8c0-0.4,0.4-0.8,0.8-0.8S129.7,312,129.7,312.4z
			 M129.7,317.8c0,0.4-0.4,0.8-0.8,0.8s-0.8-0.4-0.8-0.8c0-0.4,0.4-0.8,0.8-0.8S129.7,317.3,129.7,317.8z"/>
	</g>
	<g>
		<path class="st1" d="M60.9,333.1l2-5l2.1,5l2-4.5h1.3l-3.3,7l-2-4.9l-2,4.9l-3.2-7h1.3L60.9,333.1z"/>
	</g>
	<g>
		<path class="st1" d="M70.6,332.1c0,1.2,0.9,2.2,2.2,2.2c1,0,1.6-0.6,2-1.4l1,0.5c-0.6,1.2-1.7,1.8-3,1.8c-2,0-3.2-1.5-3.2-3.4
			c0-1.9,1.1-3.6,3.2-3.6c2.1,0,3.2,1.8,3.1,3.7H70.6z M74.6,331.2c-0.2-1-1-1.7-1.9-1.7c-1,0-1.9,0.8-2,1.7H74.6z"/>
	</g>
	<g>
		<path class="st1" d="M79.5,326.1c0,0.4-0.4,0.8-0.8,0.8s-0.8-0.4-0.8-0.8c0-0.4,0.4-0.8,0.8-0.8S79.5,325.7,79.5,326.1z
			 M79.3,335.2h-1.1v-6.6h1.1V335.2z"/>
	</g>
	<g>
		<path class="st1" d="M88.3,334.9c0,1.1,0,2-0.7,2.8c-0.6,0.8-1.6,1.2-2.5,1.2c-1.8,0-3.2-1.2-3.2-3h1.1c0,1.2,0.9,2,2.1,2
			c1.7,0,2.1-1.3,2.1-2.8v-0.8h0c-0.5,0.7-1.4,1.1-2.3,1.1c-1.9,0-3.1-1.6-3.1-3.4c0-1.8,1.2-3.5,3.2-3.5c0.9,0,1.7,0.4,2.2,1.1h0
			v-0.9h1.1V334.9z M82.9,331.8c0,1.3,0.8,2.5,2.2,2.5c1.4,0,2.2-1.2,2.2-2.5c0-1.3-0.8-2.4-2.2-2.4
			C83.7,329.5,82.9,330.6,82.9,331.8z"/>
	</g>
	<g>
		<path class="st1" d="M92.3,323.6v5.7l0,0c0.5-0.6,1.1-1,1.9-1c1.8,0,2.2,1.3,2.2,2.9v3.9h-1.1v-3.7c0-1.1-0.1-2-1.4-2
			c-1.5,0-1.6,1.4-1.6,2.6v3.1h-1.1v-11.6H92.3z"/>
	</g>
	<g>
		<path class="st1" d="M100.4,335.2h-1.1v-5.5h-0.7v-1h0.7v-2.4h1.1v2.4h1.2v1h-1.2V335.2z"/>
	</g>
	<g>
		<path class="st1" d="M106,330.1c-0.2-0.4-0.5-0.7-0.9-0.7c-0.4,0-0.8,0.3-0.8,0.7c0,0.6,0.8,0.8,1.5,1.1s1.5,0.8,1.5,1.9
			c0,1.2-1,2.1-2.2,2.1c-1.1,0-2-0.6-2.3-1.7l1-0.4c0.3,0.6,0.6,1.1,1.3,1.1c0.6,0,1.1-0.4,1.1-1c0-1.5-3-1-3-3c0-1.1,0.9-1.9,2-1.9
			c0.8,0,1.5,0.5,1.8,1.2L106,330.1z"/>
	</g>
</g>
<g>
	<path class="st4" d="M305.4,351.2H183.3c-4.4,0-8-3.6-8-8v-40.4c0-4.4,3.6-8,8-8h122.2c4.4,0,8,3.6,8,8v40.4
		C313.4,347.6,309.9,351.2,305.4,351.2z"/>
</g>
<g>
	<g>
		<path class="st1" d="M196.2,307.8h2c1.6,0,2.9,0.2,4.1,1.3c1.2,1,1.8,2.5,1.8,4c0,1.5-0.6,2.9-1.7,3.9c-1.3,1.1-2.5,1.3-4.2,1.3
			h-2V307.8z M198.2,317.3c1.3,0,2.4-0.2,3.3-1.1c0.9-0.8,1.3-1.9,1.3-3.1c0-1.2-0.5-2.4-1.4-3.2c-1-0.9-2-1-3.3-1h-0.9v8.4H198.2z"
			/>
	</g>
	<g>
		<path class="st1" d="M206.9,315.3c0,1.2,0.9,2.2,2.2,2.2c1,0,1.6-0.6,2-1.4l1,0.5c-0.6,1.2-1.7,1.8-3,1.8c-2,0-3.2-1.5-3.2-3.4
			c0-1.9,1.1-3.6,3.2-3.6c2.1,0,3.2,1.8,3.1,3.7H206.9z M210.9,314.4c-0.2-1-1-1.7-1.9-1.7c-1,0-1.9,0.8-2,1.7H210.9z"/>
	</g>
	<g>
		<path class="st1" d="M219.2,313.8L219.2,313.8c-0.5-0.7-1.2-1.1-2.1-1.1c-1.4,0-2.3,1.1-2.3,2.4c0,1.3,0.9,2.4,2.3,2.4
			c0.9,0,1.6-0.4,2.1-1.1h0v1.5c-0.6,0.4-1.3,0.7-2.1,0.7c-2,0-3.5-1.5-3.5-3.5c0-2,1.6-3.5,3.5-3.5c0.7,0,1.4,0.2,2,0.7V313.8z"/>
	</g>
	<g>
		<path class="st1" d="M223.3,309.3c0,0.4-0.4,0.8-0.8,0.8s-0.8-0.4-0.8-0.8c0-0.4,0.4-0.8,0.8-0.8S223.3,308.9,223.3,309.3z
			 M223,318.4h-1.1v-6.6h1.1V318.4z"/>
	</g>
	<g>
		<path class="st1" d="M228.7,313.3c-0.2-0.4-0.5-0.7-0.9-0.7c-0.4,0-0.8,0.3-0.8,0.7c0,0.6,0.8,0.8,1.5,1.1s1.5,0.8,1.5,1.9
			c0,1.2-1,2.1-2.2,2.1c-1.1,0-2-0.6-2.3-1.7l1-0.4c0.3,0.6,0.6,1.1,1.3,1.1c0.6,0,1.1-0.4,1.1-1c0-1.5-3-1-3-3c0-1.1,0.9-1.9,2-1.9
			c0.8,0,1.5,0.5,1.8,1.2L228.7,313.3z"/>
	</g>
	<g>
		<path class="st1" d="M233.9,309.3c0,0.4-0.4,0.8-0.8,0.8s-0.8-0.4-0.8-0.8c0-0.4,0.4-0.8,0.8-0.8S233.9,308.9,233.9,309.3z
			 M233.7,318.4h-1.1v-6.6h1.1V318.4z"/>
	</g>
	<g>
		<path class="st1" d="M236.1,315.1c0-1.9,1.5-3.5,3.5-3.5s3.5,1.6,3.5,3.5s-1.5,3.5-3.5,3.5S236.1,317,236.1,315.1z M237.3,315.1
			c0,1.3,1,2.4,2.3,2.4s2.3-1.1,2.3-2.4c0-1.3-1-2.4-2.3-2.4S237.3,313.8,237.3,315.1z"/>
	</g>
	<g>
		<path class="st1" d="M246.4,312.6L246.4,312.6c0.5-0.6,1.1-1,1.9-1c1.8,0,2.2,1.3,2.2,2.9v3.9h-1.1v-3.7c0-1.1-0.1-2-1.4-2
			c-1.5,0-1.6,1.4-1.6,2.6v3.1h-1.1v-6.6h1.1V312.6z"/>
	</g>
	<g>
		<path class="st1" d="M259.6,318.4h-1.1v-5.5h-0.7v-1h0.7v-2.4h1.1v2.4h1.2v1h-1.2V318.4z"/>
	</g>
	<g>
		<path class="st1" d="M263.5,312.5L263.5,312.5c0.4-0.5,0.8-0.9,1.5-0.9c0.4,0,0.7,0.1,1,0.3l-0.5,1c-0.2-0.2-0.4-0.3-0.7-0.3
			c-1.2,0-1.3,1.6-1.3,2.4v3.3h-1.1v-6.6h1.1V312.5z"/>
	</g>
	<g>
		<path class="st1" d="M268.4,315.3c0,1.2,0.9,2.2,2.2,2.2c1,0,1.6-0.6,2-1.4l1,0.5c-0.6,1.2-1.7,1.8-3,1.8c-2,0-3.2-1.5-3.2-3.4
			c0-1.9,1.1-3.6,3.2-3.6c2.1,0,3.2,1.8,3.1,3.7H268.4z M272.4,314.4c-0.2-1-1-1.7-1.9-1.7c-1,0-1.9,0.8-2,1.7H272.4z"/>
	</g>
	<g>
		<path class="st1" d="M276.4,315.3c0,1.2,0.9,2.2,2.2,2.2c1,0,1.6-0.6,2-1.4l1,0.5c-0.6,1.2-1.7,1.8-3,1.8c-2,0-3.2-1.5-3.2-3.4
			c0-1.9,1.1-3.6,3.2-3.6c2.1,0,3.2,1.8,3.1,3.7H276.4z M280.4,314.4c-0.2-1-1-1.7-1.9-1.7c-1,0-1.9,0.8-2,1.7H280.4z"/>
	</g>
	<g>
		<path class="st1" d="M290.5,307.2l-6.6,13.3l-0.9-0.4l6.6-13.3L290.5,307.2z"/>
	</g>
	<g>
		<path class="st1" d="M197.3,329.9c0,1.4-0.1,2.6-1.1,3.7c-1,1.1-2.4,1.8-3.9,1.8c-3,0-5.4-2.5-5.4-5.4c0-3,2.5-5.5,5.5-5.5
			c1.8,0,3.3,0.8,4.5,2.3l-0.9,0.8c-0.9-1.2-2.1-2-3.6-2c-2.4,0-4.3,2-4.3,4.4c0,1.1,0.4,2.2,1.2,3c0.8,0.8,1.9,1.3,3,1.3
			c1.8,0,3.8-1.3,3.8-3.3h-3.1v-1.1H197.3z"/>
	</g>
	<g>
		<path class="st1" d="M201.2,332.2l-1.3,3h-1.3l4.9-11.1l4.7,11.1H207l-1.2-3H201.2z M203.5,326.9l-1.8,4.2h3.6L203.5,326.9z"/>
	</g>
	<g>
		<path class="st1" d="M211.5,324l3.8,8.9l3.9-8.9l2.1,11.2h-1.2l-1.4-7.1h0l-3.4,7.6L212,328h0l-1.4,7.1h-1.2L211.5,324z"/>
	</g>
	<g>
		<path class="st1" d="M225.3,329.2c0,0.4-0.4,0.8-0.8,0.8s-0.8-0.4-0.8-0.8c0-0.4,0.4-0.8,0.8-0.8S225.3,328.8,225.3,329.2z
			 M225.3,334.6c0,0.4-0.4,0.8-0.8,0.8s-0.8-0.4-0.8-0.8c0-0.4,0.4-0.8,0.8-0.8S225.3,334.1,225.3,334.6z"/>
	</g>
	<g>
		<path class="st1" d="M233.4,323.6h1.1v5.9h0c0.5-0.7,1.4-1.1,2.3-1.1c2,0,3.2,1.6,3.2,3.5c0,1.8-1.2,3.5-3.2,3.5
			c-0.9,0-1.7-0.4-2.3-1.1h0v0.9h-1.1V323.6z M234.4,331.8c0,1.3,0.8,2.5,2.2,2.5c1.4,0,2.2-1.2,2.2-2.5c0-1.3-0.8-2.4-2.2-2.4
			C235.3,329.5,234.4,330.6,234.4,331.8z"/>
	</g>
	<g>
		<path class="st1" d="M243.2,329.3L243.2,329.3c0.4-0.5,0.8-0.9,1.5-0.9c0.4,0,0.7,0.1,1,0.3l-0.5,1c-0.2-0.2-0.4-0.3-0.7-0.3
			c-1.2,0-1.3,1.6-1.3,2.4v3.3h-1.1v-6.6h1.1V329.3z"/>
	</g>
	<g>
		<path class="st1" d="M253.6,335.2h-1.1v-0.9h0c-0.6,0.7-1.3,1.1-2.3,1.1c-1.9,0-3.2-1.6-3.2-3.5c0-1.9,1.2-3.5,3.2-3.5
			c0.9,0,1.7,0.4,2.3,1.1h0v-0.9h1.1V335.2z M248.2,331.8c0,1.3,0.8,2.5,2.2,2.5c1.4,0,2.2-1.2,2.2-2.5c0-1.3-0.8-2.4-2.2-2.4
			C249,329.5,248.2,330.6,248.2,331.8z"/>
	</g>
	<g>
		<path class="st1" d="M257.5,329.4L257.5,329.4c0.5-0.6,1.1-1,1.9-1c1.8,0,2.2,1.3,2.2,2.9v3.9h-1.1v-3.7c0-1.1-0.1-2-1.4-2
			c-1.5,0-1.6,1.4-1.6,2.6v3.1h-1.1v-6.6h1.1V329.4z"/>
	</g>
	<g>
		<path class="st1" d="M269.3,330.6L269.3,330.6c-0.5-0.7-1.2-1.1-2.1-1.1c-1.4,0-2.3,1.1-2.3,2.4c0,1.3,0.9,2.4,2.3,2.4
			c0.9,0,1.6-0.4,2.1-1.1h0v1.5c-0.6,0.4-1.3,0.7-2.1,0.7c-2,0-3.5-1.5-3.5-3.5c0-2,1.6-3.5,3.5-3.5c0.7,0,1.4,0.2,2,0.7V330.6z"/>
	</g>
	<g>
		<path class="st1" d="M272.9,323.6v5.7l0,0c0.5-0.6,1.1-1,1.9-1c1.8,0,2.2,1.3,2.2,2.9v3.9H276v-3.7c0-1.1-0.1-2-1.4-2
			c-1.5,0-1.6,1.4-1.6,2.6v3.1h-1.1v-11.6H272.9z"/>
	</g>
	<g>
		<path class="st1" d="M281.5,326.1c0,0.4-0.4,0.8-0.8,0.8s-0.8-0.4-0.8-0.8c0-0.4,0.4-0.8,0.8-0.8S281.5,325.7,281.5,326.1z
			 M281.2,335.2h-1.1v-6.6h1.1V335.2z"/>
	</g>
	<g>
		<path class="st1" d="M285.4,329.4L285.4,329.4c0.5-0.6,1.1-1,1.9-1c1.8,0,2.2,1.3,2.2,2.9v3.9h-1.1v-3.7c0-1.1-0.1-2-1.4-2
			c-1.5,0-1.6,1.4-1.6,2.6v3.1h-1.1v-6.6h1.1V329.4z"/>
	</g>
	<g>
		<path class="st1" d="M298.3,334.9c0,1.1,0,2-0.7,2.8c-0.6,0.8-1.6,1.2-2.5,1.2c-1.8,0-3.2-1.2-3.2-3h1.1c0,1.2,0.9,2,2.1,2
			c1.7,0,2.1-1.3,2.1-2.8v-0.8h0c-0.5,0.7-1.4,1.1-2.3,1.1c-1.9,0-3.1-1.6-3.1-3.4c0-1.8,1.2-3.5,3.2-3.5c0.9,0,1.7,0.4,2.2,1.1h0
			v-0.9h1.1V334.9z M292.9,331.8c0,1.3,0.8,2.5,2.2,2.5c1.4,0,2.2-1.2,2.2-2.5c0-1.3-0.8-2.4-2.2-2.4
			C293.7,329.5,292.9,330.6,292.9,331.8z"/>
	</g>
</g>
<g>
	<path class="st4" d="M466.7,351.2H344.5c-4.4,0-8-3.6-8-8v-40.4c0-4.4,3.6-8,8-8h122.2c4.4,0,8,3.6,8,8v40.4
		C474.7,347.6,471.1,351.2,466.7,351.2z"/>
</g>
<g>
	<g>
		<path class="st1" d="M373.9,310.1h1.7c1.9,0,3.5,0.7,3.5,2.9c0,0.9-0.3,1.6-1,2.1c1.3,0.3,2,1.4,2,2.7c0,2.1-1.7,2.9-3.8,2.9h-2.5
			V310.1z M375.1,314.7h0.4c1.3,0,2.5-0.2,2.5-1.8c0-1.6-1-1.8-2.5-1.8h-0.5V314.7z M375.1,319.5h1.2c1.3,0,2.7-0.3,2.7-1.9
			c0-1.6-1.6-1.9-2.9-1.9h-1V319.5z"/>
	</g>
	<g>
		<path class="st1" d="M388.6,320.6h-1.1v-0.9h0c-0.6,0.7-1.3,1.1-2.3,1.1c-1.9,0-3.2-1.6-3.2-3.5c0-1.9,1.2-3.5,3.2-3.5
			c0.9,0,1.7,0.4,2.3,1.1h0V314h1.1V320.6z M383.1,317.3c0,1.3,0.8,2.5,2.2,2.5c1.4,0,2.2-1.2,2.2-2.5c0-1.3-0.8-2.4-2.2-2.4
			C384,314.9,383.1,316,383.1,317.3z"/>
	</g>
	<g>
		<path class="st1" d="M390.2,314h1.3l2.3,4.7l2.1-4.7h1.3l-4.9,10.3h-1.3l2.1-4.3L390.2,314z"/>
	</g>
	<g>
		<path class="st1" d="M399.6,317.6c0,1.2,0.9,2.2,2.2,2.2c1,0,1.6-0.6,2-1.4l1,0.5c-0.6,1.2-1.7,1.8-3,1.8c-2,0-3.2-1.5-3.2-3.4
			c0-1.9,1.1-3.6,3.2-3.6c2.1,0,3.2,1.8,3.1,3.7H399.6z M403.6,316.6c-0.2-1-1-1.7-1.9-1.7c-1,0-1.9,0.8-2,1.7H403.6z"/>
	</g>
	<g>
		<path class="st1" d="M409.6,315.6c-0.2-0.4-0.5-0.7-0.9-0.7c-0.4,0-0.8,0.3-0.8,0.7c0,0.6,0.8,0.8,1.5,1.1s1.5,0.8,1.5,1.9
			c0,1.2-1,2.1-2.2,2.1c-1.1,0-2-0.6-2.3-1.7l1-0.4c0.3,0.6,0.6,1.1,1.3,1.1c0.6,0,1.1-0.4,1.1-1c0-1.5-3-1-3-3c0-1.1,0.9-1.9,2-1.9
			c0.8,0,1.5,0.5,1.8,1.2L409.6,315.6z"/>
	</g>
	<g>
		<path class="st1" d="M414.8,311.6c0,0.4-0.4,0.8-0.8,0.8s-0.8-0.4-0.8-0.8c0-0.4,0.4-0.8,0.8-0.8S414.8,311.1,414.8,311.6z
			 M414.6,320.6h-1.1V314h1.1V320.6z"/>
	</g>
	<g>
		<path class="st1" d="M423.6,320.6h-1.1v-0.9h0c-0.6,0.7-1.3,1.1-2.3,1.1c-1.9,0-3.2-1.6-3.2-3.5c0-1.9,1.2-3.5,3.2-3.5
			c0.9,0,1.7,0.4,2.3,1.1h0V314h1.1V320.6z M418.2,317.3c0,1.3,0.8,2.5,2.2,2.5c1.4,0,2.2-1.2,2.2-2.5c0-1.3-0.8-2.4-2.2-2.4
			C419,314.9,418.2,316,418.2,317.3z"/>
	</g>
	<g>
		<path class="st1" d="M427.5,314.8L427.5,314.8c0.5-0.6,1.1-1,1.9-1c1.8,0,2.2,1.3,2.2,2.9v3.9h-1.1v-3.7c0-1.1-0.1-2-1.4-2
			c-1.5,0-1.6,1.4-1.6,2.6v3.1h-1.1V314h1.1V314.8z"/>
	</g>
	<g>
		<path class="st1" d="M436.4,314.6c0,0.4-0.4,0.8-0.8,0.8s-0.8-0.4-0.8-0.8c0-0.4,0.4-0.8,0.8-0.8S436.4,314.2,436.4,314.6z
			 M436.4,320c0,0.4-0.4,0.8-0.8,0.8s-0.8-0.4-0.8-0.8c0-0.4,0.4-0.8,0.8-0.8S436.4,319.6,436.4,320z"/>
	</g>
	<g>
		<path class="st1" d="M374.9,331.8L374.9,331.8c0.6-0.7,1.4-1.1,2.3-1.1c1.9,0,3.2,1.7,3.2,3.5c0,1.9-1.2,3.5-3.2,3.5
			c-0.9,0-1.7-0.4-2.3-1.1h0v4.6h-1.1v-10.3h1.1V331.8z M374.9,334.1c0,1.3,0.8,2.5,2.2,2.5c1.4,0,2.2-1.2,2.2-2.5
			c0-1.3-0.8-2.4-2.2-2.4C375.7,331.7,374.9,332.8,374.9,334.1z"/>
	</g>
	<g>
		<path class="st1" d="M382.1,334.1c0-1.9,1.5-3.5,3.5-3.5s3.5,1.6,3.5,3.5s-1.5,3.5-3.5,3.5S382.1,336.1,382.1,334.1z M383.2,334.1
			c0,1.3,1,2.4,2.3,2.4s2.3-1.1,2.3-2.4c0-1.3-1-2.4-2.3-2.4S383.2,332.8,383.2,334.1z"/>
	</g>
	<g>
		<path class="st1" d="M393.9,332.4c-0.2-0.4-0.5-0.7-0.9-0.7c-0.4,0-0.8,0.3-0.8,0.7c0,0.6,0.8,0.8,1.5,1.1s1.5,0.8,1.5,1.9
			c0,1.2-1,2.1-2.2,2.1c-1.1,0-2-0.6-2.3-1.7l1-0.4c0.3,0.6,0.6,1.1,1.3,1.1c0.6,0,1.1-0.4,1.1-1c0-1.5-3-1-3-3c0-1.1,0.9-1.9,2-1.9
			c0.8,0,1.5,0.5,1.8,1.2L393.9,332.4z"/>
	</g>
	<g>
		<path class="st1" d="M398.7,337.4h-1.1v-5.5h-0.7v-1h0.7v-2.4h1.1v2.4h1.2v1h-1.2V337.4z"/>
	</g>
	<g>
		<path class="st1" d="M402.1,334.4c0,1.2,0.9,2.2,2.2,2.2c1,0,1.6-0.6,2-1.4l1,0.5c-0.6,1.2-1.7,1.8-3,1.8c-2,0-3.2-1.5-3.2-3.4
			c0-1.9,1.1-3.6,3.2-3.6c2.1,0,3.2,1.8,3.1,3.7H402.1z M406.1,333.4c-0.2-1-1-1.7-1.9-1.7c-1,0-1.9,0.8-2,1.7H406.1z"/>
	</g>
	<g>
		<path class="st1" d="M410.6,331.6L410.6,331.6c0.4-0.5,0.8-0.9,1.5-0.9c0.4,0,0.7,0.1,1,0.3l-0.5,1c-0.2-0.2-0.4-0.3-0.7-0.3
			c-1.2,0-1.3,1.6-1.3,2.4v3.3h-1.1v-6.6h1.1V331.6z"/>
	</g>
	<g>
		<path class="st1" d="M416.5,328.4c0,0.4-0.4,0.8-0.8,0.8s-0.8-0.4-0.8-0.8c0-0.4,0.4-0.8,0.8-0.8S416.5,327.9,416.5,328.4z
			 M416.2,337.4h-1.1v-6.6h1.1V337.4z"/>
	</g>
	<g>
		<path class="st1" d="M418.7,334.1c0-1.9,1.5-3.5,3.5-3.5s3.5,1.6,3.5,3.5s-1.5,3.5-3.5,3.5S418.7,336.1,418.7,334.1z M419.8,334.1
			c0,1.3,1,2.4,2.3,2.4s2.3-1.1,2.3-2.4c0-1.3-1-2.4-2.3-2.4S419.8,332.8,419.8,334.1z"/>
	</g>
	<g>
		<path class="st1" d="M428.9,331.6L428.9,331.6c0.4-0.5,0.8-0.9,1.5-0.9c0.4,0,0.7,0.1,1,0.3l-0.5,1c-0.2-0.2-0.4-0.3-0.7-0.3
			c-1.2,0-1.3,1.6-1.3,2.4v3.3h-1.1v-6.6h1.1V331.6z"/>
	</g>
	<g>
		<path class="st1" d="M435.9,332.4c-0.2-0.4-0.5-0.7-0.9-0.7c-0.4,0-0.8,0.3-0.8,0.7c0,0.6,0.8,0.8,1.5,1.1s1.5,0.8,1.5,1.9
			c0,1.2-1,2.1-2.2,2.1c-1.1,0-2-0.6-2.3-1.7l1-0.4c0.3,0.6,0.6,1.1,1.3,1.1c0.6,0,1.1-0.4,1.1-1c0-1.5-3-1-3-3c0-1.1,0.9-1.9,2-1.9
			c0.8,0,1.5,0.5,1.8,1.2L435.9,332.4z"/>
	</g>
</g>
<g>
	<path class="st4" d="M831.5,735.8H753c-4.4,0-8-3.6-8-8v-30.9c0-4.4,3.6-8,8-8h78.6c4.4,0,8,3.6,8,8v30.9
		C839.5,732.2,835.9,735.8,831.5,735.8z"/>
</g>
<g>
	<g>
		<path class="st1" d="M778.8,717h2.9v1.1h-4.1v-10.6h1.2V717z"/>
	</g>
	<g>
		<path class="st1" d="M784.8,718.1h-1.2v-10.6h1.2V718.1z"/>
	</g>
	<g>
		<path class="st1" d="M789,706.9l3.8,8.9l3.9-8.9l2.1,11.2h-1.2l-1.4-7.1h0l-3.4,7.6l-3.4-7.6h0l-1.4,7.1h-1.2L789,706.9z"/>
	</g>
	<g>
		<path class="st1" d="M800.8,707.5h5.5v1.1H802v3.1h4.2v1.1H802v4.1h4.3v1.1h-5.5V707.5z"/>
	</g>
</g>
<g>
	<path class="st4" d="M503.9,597h-78.6c-4.4,0-8-3.6-8-8v-30.9c0-4.4,3.6-8,8-8h78.6c4.4,0,8,3.6,8,8V589
		C511.9,593.4,508.3,597,503.9,597z"/>
</g>
<g>
	<g>
		<path class="st1" d="M443.6,568.5c-0.4-0.7-0.9-1.1-1.8-1.1c-0.9,0-1.8,0.7-1.8,1.6c0,0.9,0.9,1.3,1.7,1.7l0.7,0.3
			c1.4,0.6,2.5,1.3,2.5,3c0,1.8-1.5,3.3-3.3,3.3c-1.7,0-3-1.1-3.3-2.7l1.1-0.3c0.2,1.1,1,2,2.1,2c1.1,0,2.2-0.9,2.2-2.1
			c0-1.2-1-1.7-1.9-2.1l-0.6-0.3c-1.2-0.6-2.3-1.2-2.3-2.7c0-1.6,1.4-2.7,3-2.7c1.2,0,2.2,0.6,2.7,1.6L443.6,568.5z"/>
	</g>
	<g>
		<path class="st1" d="M448.5,565.5v5.7l0,0c0.5-0.6,1.1-1,1.9-1c1.8,0,2.2,1.3,2.2,2.9v3.9h-1.1v-3.7c0-1.1-0.1-2-1.4-2
			c-1.5,0-1.6,1.4-1.6,2.6v3.1h-1.1v-11.6H448.5z"/>
	</g>
	<g>
		<path class="st1" d="M461.4,577h-1.1v-0.9h0c-0.6,0.7-1.3,1.1-2.3,1.1c-1.9,0-3.2-1.6-3.2-3.5c0-1.9,1.2-3.5,3.2-3.5
			c0.9,0,1.7,0.4,2.3,1.1h0v-0.9h1.1V577z M456,573.7c0,1.3,0.8,2.5,2.2,2.5c1.4,0,2.2-1.2,2.2-2.5c0-1.3-0.8-2.4-2.2-2.4
			C456.9,571.3,456,572.4,456,573.7z"/>
	</g>
	<g>
		<path class="st1" d="M465.3,571.4L465.3,571.4c0.6-0.7,1.4-1.1,2.3-1.1c1.9,0,3.2,1.7,3.2,3.5c0,1.9-1.2,3.5-3.2,3.5
			c-0.9,0-1.7-0.4-2.3-1.1h0v4.6h-1.1v-10.3h1.1V571.4z M465.2,573.7c0,1.3,0.8,2.5,2.2,2.5c1.4,0,2.2-1.2,2.2-2.5
			c0-1.3-0.8-2.4-2.2-2.4C466.1,571.3,465.2,572.4,465.2,573.7z"/>
	</g>
	<g>
		<path class="st1" d="M474.1,577H473v-11.6h1.1V577z"/>
	</g>
	<g>
		<path class="st1" d="M477.4,574c0,1.2,0.9,2.2,2.2,2.2c1,0,1.6-0.6,2-1.4l1,0.5c-0.6,1.2-1.7,1.8-3,1.8c-2,0-3.2-1.5-3.2-3.4
			c0-1.9,1.1-3.6,3.2-3.6c2.1,0,3.2,1.8,3.1,3.7H477.4z M481.4,573c-0.2-1-1-1.7-1.9-1.7c-1,0-1.9,0.8-2,1.7H481.4z"/>
	</g>
	<g>
		<path class="st1" d="M483.7,570.5h1.3l2.3,4.7l2.1-4.7h1.3l-4.9,10.3h-1.3l2.1-4.3L483.7,570.5z"/>
	</g>
</g>
<g>
	<g>
		<path class="st0" d="M209.8,129.7h1.6l3.1,5.4l3.1-5.4h1.6l-4,6.9v5.2h-1.3v-5.2L209.8,129.7z"/>
	</g>
	<g>
		<path class="st0" d="M220.2,138.3c0,1.4,1,2.5,2.5,2.5c1.1,0,1.8-0.7,2.3-1.6l1.1,0.6c-0.7,1.3-1.9,2.1-3.5,2.1
			c-2.2,0-3.7-1.7-3.7-3.9c0-2.2,1.3-4.1,3.7-4.1c2.4,0,3.7,2,3.6,4.2H220.2z M224.8,137.2c-0.2-1.1-1.1-2-2.2-2
			c-1.1,0-2.1,0.9-2.3,2H224.8z"/>
	</g>
	<g>
		<path class="st0" d="M231.7,136c-0.2-0.4-0.6-0.8-1-0.8c-0.4,0-0.9,0.4-0.9,0.8c0,0.7,0.9,0.9,1.7,1.3c0.9,0.4,1.7,0.9,1.7,2.2
			c0,1.4-1.2,2.5-2.5,2.5c-1.3,0-2.3-0.7-2.7-1.9l1.1-0.5c0.3,0.7,0.7,1.2,1.5,1.2c0.7,0,1.2-0.5,1.2-1.2c0-1.7-3.4-1.1-3.4-3.5
			c0-1.3,1-2.1,2.2-2.1c0.9,0,1.7,0.6,2,1.4L231.7,136z"/>
	</g>
</g>
<g>
	<g>
		<path class="st0" d="M623.3,129.3l9.4,9.9v-9.4h1.3v12.6l-9.4-9.9v9.3h-1.3V129.3z"/>
	</g>
	<g>
		<path class="st0" d="M636.7,138.1c0-2.2,1.7-4,4-4c2.2,0,4,1.8,4,4s-1.8,4-4,4S636.7,140.3,636.7,138.1z M638,138.1
			c0,1.5,1.1,2.8,2.7,2.8c1.6,0,2.7-1.3,2.7-2.8c0-1.5-1.1-2.8-2.7-2.8C639.1,135.3,638,136.6,638,138.1z"/>
	</g>
</g>
<g>
	<g>
		<path class="st0" d="M747.1,661.7l9.4,9.9v-9.4h1.3v12.6l-9.4-9.9v9.3h-1.3V661.7z"/>
	</g>
	<g>
		<path class="st0" d="M768.8,661.5l-7.5,15.3l-1-0.5l7.5-15.3L768.8,661.5z"/>
	</g>
	<g>
		<path class="st0" d="M772.9,670.8l-1.5,3.4H770l5.6-12.7l5.4,12.7h-1.5l-1.4-3.4H772.9z M775.5,664.7l-2.1,4.8h4.1L775.5,664.7z"
			/>
	</g>
</g>
<g>
	<g>
		<path class="st0" d="M435.4,662.8h1.6l3.1,5.4l3.1-5.4h1.6l-4,6.9v5.2h-1.3v-5.2L435.4,662.8z"/>
	</g>
	<g>
		<path class="st0" d="M445.9,671.4c0,1.4,1,2.5,2.5,2.5c1.1,0,1.8-0.7,2.3-1.6l1.1,0.6c-0.7,1.3-1.9,2.1-3.5,2.1
			c-2.2,0-3.7-1.7-3.7-3.9c0-2.2,1.3-4.1,3.7-4.1c2.4,0,3.7,2,3.6,4.2H445.9z M450.4,670.3c-0.2-1.1-1.1-2-2.2-2
			c-1.1,0-2.1,0.9-2.3,2H450.4z"/>
	</g>
	<g>
		<path class="st0" d="M457.4,669.1c-0.2-0.4-0.6-0.8-1-0.8c-0.4,0-0.9,0.4-0.9,0.8c0,0.7,0.9,0.9,1.7,1.3c0.9,0.4,1.7,0.9,1.7,2.2
			c0,1.4-1.2,2.5-2.5,2.5c-1.3,0-2.3-0.7-2.7-1.9l1.1-0.5c0.3,0.7,0.7,1.2,1.5,1.2c0.7,0,1.2-0.5,1.2-1.2c0-1.7-3.4-1.1-3.4-3.5
			c0-1.3,1-2.1,2.2-2.1c0.9,0,1.7,0.6,2,1.4L457.4,669.1z"/>
	</g>
</g>
<g>
	<g>
		<path class="st0" d="M539.5,662.8h1.6l3.1,5.4l3.1-5.4h1.6l-4,6.9v5.2h-1.3v-5.2L539.5,662.8z"/>
	</g>
	<g>
		<path class="st0" d="M550,671.4c0,1.4,1,2.5,2.5,2.5c1.1,0,1.8-0.7,2.3-1.6l1.1,0.6c-0.7,1.3-1.9,2.1-3.5,2.1
			c-2.2,0-3.7-1.7-3.7-3.9c0-2.2,1.3-4.1,3.7-4.1c2.4,0,3.7,2,3.6,4.2H550z M554.5,670.3c-0.2-1.1-1.1-2-2.2-2c-1.1,0-2.1,0.9-2.3,2
			H554.5z"/>
	</g>
	<g>
		<path class="st0" d="M561.5,669.1c-0.2-0.4-0.6-0.8-1-0.8c-0.4,0-0.9,0.4-0.9,0.8c0,0.7,0.9,0.9,1.7,1.3c0.9,0.4,1.7,0.9,1.7,2.2
			c0,1.4-1.2,2.5-2.5,2.5c-1.3,0-2.3-0.7-2.7-1.9l1.1-0.5c0.3,0.7,0.7,1.2,1.5,1.2c0.7,0,1.2-0.5,1.2-1.2c0-1.7-3.4-1.1-3.4-3.5
			c0-1.3,1-2.1,2.2-2.1c0.9,0,1.7,0.6,2,1.4L561.5,669.1z"/>
	</g>
</g>
<g>
	<g>
		<path class="st0" d="M649.6,662.8h1.6l3.1,5.4l3.1-5.4h1.6l-4,6.9v5.2h-1.3v-5.2L649.6,662.8z"/>
	</g>
	<g>
		<path class="st0" d="M660,671.4c0,1.4,1,2.5,2.5,2.5c1.1,0,1.8-0.7,2.3-1.6l1.1,0.6c-0.7,1.3-1.9,2.1-3.5,2.1
			c-2.2,0-3.7-1.7-3.7-3.9c0-2.2,1.3-4.1,3.7-4.1c2.4,0,3.7,2,3.6,4.2H660z M664.6,670.3c-0.2-1.1-1.1-2-2.2-2c-1.1,0-2.1,0.9-2.3,2
			H664.6z"/>
	</g>
	<g>
		<path class="st0" d="M671.5,669.1c-0.2-0.4-0.6-0.8-1-0.8c-0.4,0-0.9,0.4-0.9,0.8c0,0.7,0.9,0.9,1.7,1.3c0.9,0.4,1.7,0.9,1.7,2.2
			c0,1.4-1.2,2.5-2.5,2.5c-1.3,0-2.3-0.7-2.7-1.9l1.1-0.5c0.3,0.7,0.7,1.2,1.5,1.2c0.7,0,1.2-0.5,1.2-1.2c0-1.7-3.4-1.1-3.4-3.5
			c0-1.3,1-2.1,2.2-2.1c0.9,0,1.7,0.6,2,1.4L671.5,669.1z"/>
	</g>
</g>
<g>
	<g>
		<path class="st0" d="M426.1,512.3h1.6l3.1,5.4l3.1-5.4h1.6l-4,6.9v5.2h-1.3v-5.2L426.1,512.3z"/>
	</g>
	<g>
		<path class="st0" d="M436.5,520.9c0,1.4,1,2.5,2.5,2.5c1.1,0,1.8-0.7,2.3-1.6l1.1,0.6c-0.7,1.3-1.9,2.1-3.5,2.1
			c-2.2,0-3.7-1.7-3.7-3.9c0-2.2,1.3-4.1,3.7-4.1c2.4,0,3.7,2,3.6,4.2H436.5z M441.1,519.8c-0.2-1.1-1.1-2-2.2-2
			c-1.1,0-2.1,0.9-2.3,2H441.1z"/>
	</g>
	<g>
		<path class="st0" d="M448,518.6c-0.2-0.4-0.6-0.8-1-0.8c-0.4,0-0.9,0.4-0.9,0.8c0,0.7,0.9,0.9,1.7,1.3c0.9,0.4,1.7,0.9,1.7,2.2
			c0,1.4-1.2,2.5-2.5,2.5c-1.3,0-2.3-0.7-2.7-1.9l1.1-0.5c0.3,0.7,0.7,1.2,1.5,1.2c0.7,0,1.2-0.5,1.2-1.2c0-1.7-3.4-1.1-3.4-3.5
			c0-1.3,1-2.1,2.2-2.1c0.9,0,1.7,0.6,2,1.4L448,518.6z"/>
	</g>
</g>
<g>
	<g>
		<path class="st0" d="M507.9,330.8h1.6l3.1,5.4l3.1-5.4h1.6l-4,6.9v5.2h-1.3v-5.2L507.9,330.8z"/>
	</g>
	<g>
		<path class="st0" d="M518.4,339.4c0,1.4,1,2.5,2.5,2.5c1.1,0,1.8-0.7,2.3-1.6l1.1,0.6c-0.7,1.3-1.9,2.1-3.5,2.1
			c-2.2,0-3.7-1.7-3.7-3.9c0-2.2,1.3-4.1,3.7-4.1c2.4,0,3.7,2,3.6,4.2H518.4z M522.9,338.3c-0.2-1.1-1.1-2-2.2-2
			c-1.1,0-2.1,0.9-2.3,2H522.9z"/>
	</g>
	<g>
		<path class="st0" d="M529.9,337.1c-0.2-0.4-0.6-0.8-1-0.8c-0.4,0-0.9,0.4-0.9,0.8c0,0.7,0.9,0.9,1.7,1.3c0.9,0.4,1.7,0.9,1.7,2.2
			c0,1.4-1.2,2.5-2.5,2.5c-1.3,0-2.3-0.7-2.7-1.9l1.1-0.5c0.3,0.7,0.7,1.2,1.5,1.2c0.7,0,1.2-0.5,1.2-1.2c0-1.7-3.4-1.1-3.4-3.5
			c0-1.3,1-2.1,2.2-2.1c0.9,0,1.7,0.6,2,1.4L529.9,337.1z"/>
	</g>
</g>
<g>
	<g>
		<path class="st0" d="M921.2,330.4l9.4,9.9v-9.4h1.3v12.6l-9.4-9.9v9.3h-1.3V330.4z"/>
	</g>
	<g>
		<path class="st0" d="M934.6,339.2c0-2.2,1.7-4,4-4c2.2,0,4,1.8,4,4s-1.8,4-4,4S934.6,341.5,934.6,339.2z M935.9,339.2
			c0,1.5,1.1,2.8,2.7,2.8s2.7-1.3,2.7-2.8c0-1.5-1.1-2.8-2.7-2.8S935.9,337.7,935.9,339.2z"/>
	</g>
</g>
<g>
	<g>
		<path class="st0" d="M643.3,511.8l9.4,9.9v-9.4h1.3V525l-9.4-9.9v9.3h-1.3V511.8z"/>
	</g>
	<g>
		<path class="st0" d="M656.7,520.7c0-2.2,1.7-4,4-4c2.2,0,4,1.8,4,4c0,2.2-1.8,4-4,4S656.7,522.9,656.7,520.7z M658,520.7
			c0,1.5,1.1,2.8,2.7,2.8c1.6,0,2.7-1.3,2.7-2.8c0-1.5-1.1-2.8-2.7-2.8C659.1,517.9,658,519.2,658,520.7z"/>
	</g>
</g>
</svg>
