<?xml version="1.0" encoding="utf-8"?>
<!-- Generator: Adobe Illustrator 21.0.1, SVG Export Plug-In . SVG Version: 6.00 Build 0)  -->
<!DOCTYPE svg PUBLIC "-//W3C//DTD SVG 1.1//EN" "http://www.w3.org/Graphics/SVG/1.1/DTD/svg11.dtd">
<svg version="1.1" id="svg-icon" xmlns="http://www.w3.org/2000/svg" xmlns:xlink="http://www.w3.org/1999/xlink" x="0px" y="0px"
	 width="102" height="102" viewBox="0 0 136 136" style="enable-background:new 0 0 136 136;" xml:space="preserve">
<style type="text/css">.icon-shape{fill:#6f6f6f;}</style>
<g id="svg-icon">
<path class="icon-shape" d="M109,104H29V37c0-1.1-0.9-2-2-2s-2,0.9-2,2v71h84c1.1,0,2-0.9,2-2S110.1,104,109,104z"/>
	<polygon class="icon-shape" points="82.8,64.8 102.4,42 106.9,45.9 110.3,28.3 93.3,34.2 97.9,38.1 81,57.7 57.4,49.2 36,67.1 36,74.9 
		58.6,56.1 	"/>
	<polygon class="icon-shape" points="79.2,97.6 89.6,97.6 89.6,71.8 85.7,76.3 79.2,74 	"/>
	<polygon class="icon-shape" points="75.2,97.6 75.2,72.5 64.8,68.8 64.8,97.6 	"/>
	<polygon class="icon-shape" points="50.4,97.6 60.8,97.6 60.8,67.3 60.4,67.2 50.4,75.5 	"/>
	<polygon class="icon-shape" points="46.4,78.8 36,87.5 36,97.6 46.4,97.6 	"/>
	<polygon class="icon-shape" points="93.6,97.6 104,97.6 104,70.9 104,55.2 93.6,67.2 	"/>
</g>
</svg>
