<?xml version="1.0" encoding="utf-8"?>
<!-- Generator: Adobe Illustrator 26.0.1, SVG Export Plug-In . SVG Version: 6.00 Build 0)  -->
<svg version="1.1" id="Layer_1" xmlns="http://www.w3.org/2000/svg" xmlns:xlink="http://www.w3.org/1999/xlink" x="0px" y="0px"
	 width="1000px" height="430px" viewBox="0 0 1000 430" style="enable-background:new 0 0 1000 430;" xml:space="preserve">
<style type="text/css">
	.st0{fill:#CB6015;}
	.st1{fill:#474748;}
	.st2{fill:#D78825;}
	.st3{fill:#FBEECC;}
	.st4{fill:#EAAA00;}
	.st5{fill:#E2DCE9;}
	.st6{fill:#6F5091;}
	.st7{fill:#0076A8;}
</style>
<g>
	<g>
		<path class="st0" d="M761.6,258.6h6.9v4.2h-11.7v-24.9h4.9V258.6z"/>
	</g>
	<g>
		<path class="st0" d="M787.5,254.7c0,5-3.4,8.6-8.5,8.6s-8.5-3.6-8.5-8.6c0-5,3.5-8.6,8.5-8.6S787.5,249.7,787.5,254.7z
			 M775.1,254.7c0,2.2,1.5,4.5,3.8,4.5s3.8-2.3,3.8-4.5c0-2.2-1.5-4.6-3.8-4.6S775.1,252.5,775.1,254.7z"/>
	</g>
	<g>
		<path class="st0" d="M802.3,251.6c-1-1-2-1.6-3.4-1.6c-2.6,0-4.1,2.4-4.1,4.8c0,2.5,1.6,4.7,4.3,4.7c1.3,0,2.4-0.6,3.2-1.6v4.5
			c-1.3,0.7-2.6,1-4,1c-4.8,0-8.2-3.9-8.2-8.6c0-4.8,3.5-8.7,8.4-8.7c1.3,0,2.6,0.3,3.8,1V251.6z"/>
	</g>
	<g>
		<path class="st0" d="M822.2,262.8h-4.6v-1.5h-0.1c-1,1.3-2.7,2-4.4,2c-4.8,0-7.5-4.3-7.5-8.7c0-4.3,2.7-8.5,7.4-8.5
			c1.7,0,3.4,0.7,4.5,2v-1.5h4.6V262.8z M818.1,254.7c0-2.2-1.5-4.5-3.9-4.5c-2.4,0-3.8,2.3-3.8,4.5s1.5,4.6,3.8,4.6
			C816.6,259.3,818.1,256.9,818.1,254.7z"/>
	</g>
	<g>
		<path class="st0" d="M831.8,262.8h-4.6v-28h4.6V262.8z"/>
	</g>
	<g>
		<path class="st0" d="M761.6,298.8h-4.9v-24.9h4.9V298.8z"/>
	</g>
	<g>
		<path class="st0" d="M771.3,284.1L771.3,284.1c1-1.5,2.6-2,4.3-2c4.4,0,5.6,3.1,5.6,6.8v9.9h-4.6v-8.6c0-1.9,0.1-4.5-2.5-4.5
			c-2.7,0-2.8,3.1-2.8,5v8h-4.6v-16.2h4.6V284.1z"/>
	</g>
	<g>
		<path class="st0" d="M791.3,298.8h-4.6v-12.3h-1.6v-3.9h1.6v-5.5h4.6v5.5h2.8v3.9h-2.8V298.8z"/>
	</g>
	<g>
		<path class="st0" d="M800.6,291.5c0,2,0.8,4.4,3.2,4.4c1.5,0,2.5-0.9,3.1-2.2l4.3,0.7c-1.1,3.2-4,5-7.4,5c-5,0-8.1-3.6-8.1-8.5
			s2.6-8.8,7.9-8.8c5.3,0,7.7,3.9,7.7,8.8v0.6H800.6z M806.9,288.6c-0.2-1.7-1.3-3.3-3.1-3.3c-1.8,0-2.9,1.6-3.1,3.3H806.9z"/>
	</g>
	<g>
		<path class="st0" d="M819.6,284.3L819.6,284.3c1-1.4,2.4-2.2,4.1-2.2c0.7,0,1.3,0.2,1.9,0.4l-0.6,4.3c-0.6-0.4-1.2-0.6-1.9-0.6
			c-3.2,0-3.5,2.8-3.5,5.3v7.3H815v-16.2h4.6V284.3z"/>
	</g>
	<g>
		<path class="st0" d="M833.4,284.1c1.1-1.3,2.8-2,4.5-2c4.6,0,7.4,4.3,7.4,8.5c0,4.4-2.7,8.7-7.5,8.7c-1.7,0-3.4-0.7-4.3-2h-0.1
			v10.2h-4.6v-24.9h4.6V284.1z M840.6,290.7c0-2.2-1.5-4.5-3.8-4.5s-3.8,2.3-3.8,4.5s1.5,4.6,3.8,4.6S840.6,292.9,840.6,290.7z"/>
	</g>
	<g>
		<path class="st0" d="M853.7,284.3L853.7,284.3c1-1.4,2.4-2.2,4.1-2.2c0.7,0,1.3,0.2,1.9,0.4l-0.6,4.3c-0.6-0.4-1.2-0.6-1.9-0.6
			c-3.2,0-3.5,2.8-3.5,5.3v7.3h-4.6v-16.2h4.6V284.3z"/>
	</g>
	<g>
		<path class="st0" d="M866.6,291.5c0,2,0.8,4.4,3.2,4.4c1.5,0,2.5-0.9,3.1-2.2l4.3,0.7c-1.1,3.2-4,5-7.4,5c-5,0-8.1-3.6-8.1-8.5
			s2.6-8.8,7.9-8.8c5.3,0,7.7,3.9,7.7,8.8v0.6H866.6z M872.9,288.6c-0.2-1.7-1.3-3.3-3.1-3.3c-1.8,0-2.9,1.6-3.1,3.3H872.9z"/>
	</g>
	<g>
		<path class="st0" d="M886.2,298.8h-4.6v-12.3H880v-3.9h1.6v-5.5h4.6v5.5h2.8v3.9h-2.8V298.8z"/>
	</g>
	<g>
		<path class="st0" d="M907,298.8h-4.6v-1.5h-0.1c-1,1.3-2.7,2-4.4,2c-4.8,0-7.5-4.3-7.5-8.7c0-4.3,2.7-8.5,7.4-8.5
			c1.7,0,3.4,0.7,4.5,2v-1.5h4.6V298.8z M902.9,290.7c0-2.2-1.5-4.5-3.9-4.5c-2.4,0-3.8,2.3-3.8,4.5s1.5,4.6,3.8,4.6
			C901.5,295.3,902.9,292.9,902.9,290.7z"/>
	</g>
	<g>
		<path class="st0" d="M917.2,298.8h-4.6v-12.3H911v-3.9h1.6v-5.5h4.6v5.5h2.8v3.9h-2.8V298.8z"/>
	</g>
	<g>
		<path class="st0" d="M928,275.8c0,1.5-1.2,2.7-2.7,2.7s-2.7-1.2-2.7-2.7c0-1.5,1.2-2.7,2.7-2.7S928,274.3,928,275.8z M927.6,298.8
			h-4.6v-16.2h4.6V298.8z"/>
	</g>
	<g>
		<path class="st0" d="M948.6,290.7c0,5-3.4,8.6-8.5,8.6c-5.1,0-8.5-3.6-8.5-8.6c0-5,3.5-8.6,8.5-8.6S948.6,285.7,948.6,290.7z
			 M936.3,290.7c0,2.2,1.5,4.5,3.8,4.5c2.4,0,3.8-2.3,3.8-4.5c0-2.2-1.5-4.6-3.8-4.6C937.7,286.2,936.3,288.5,936.3,290.7z"/>
	</g>
	<g>
		<path class="st0" d="M957.1,284.1L957.1,284.1c1-1.5,2.6-2,4.3-2c4.4,0,5.6,3.1,5.6,6.8v9.9h-4.6v-8.6c0-1.9,0.1-4.5-2.5-4.5
			c-2.7,0-2.8,3.1-2.8,5v8h-4.6v-16.2h4.6V284.1z"/>
	</g>
</g>
<g>
	<g>
		<polygon class="st1" points="503.5,391 52.9,391 52.9,58.4 60.9,58.4 60.9,383 503.5,383 		"/>
	</g>
	<g>
		<g>
			<polygon class="st1" points="501.9,399.1 501.9,374.9 514,387 			"/>
		</g>
	</g>
	<g>
		<g>
			<polygon class="st1" points="44.7,60 69,60 56.9,47.9 			"/>
		</g>
	</g>
</g>
<g>
	<circle class="st2" cx="387" cy="118" r="8"/>
</g>
<g>
	<path class="st3" d="M59,150c36.3-4.9,78.1-2.7,114.4-7.6c26.6-3.6,53.4-7.1,80.1-4.5c14.7,1.5,29.1,4.8,42.9,9.9
		c5.8,2.1,11.8,4.9,15,10.2c5.8,9.7-0.9,21.9-8.1,30.6c-6,7.3-12.5,14.1-19.4,20.5c-2.8,2.6-6.3,5.3-10,4.3
		c-2.5-0.6-4.3-2.8-6.3-4.6c-10.8-9.8-28.7-7.1-40,2.1s-17.6,23-23.5,36.3c-5.9,13.4-17.6,38.1-18.9,52.7c-2,21-14.1,39.4-15.9,41.2
		c-1.4,1.4-8.2,8.5-10.1,8.8c-9.5,1.7-21.5,4.3-31,6c-25.1,4.5-69.8-1.9-67.5-2.5L59,150z"/>
	<path class="st4" d="M106,359.6c-7.5,0-14.9-0.4-21-0.9c-8.3-0.6-14.6-1.4-17.6-1.8c-8.2-1.1-8.6-1.5-8.9-2.9c-0.1-0.4-0.1-0.7,0-1
		L57,148.3l1.7-0.2c18.3-2.4,38.2-3.1,57.4-3.8c19.1-0.7,38.9-1.3,57-3.8c26.3-3.5,53.5-7.2,80.6-4.5c14.8,1.5,29.5,4.9,43.4,10
		c6.3,2.3,12.6,5.3,16,11.1c6.9,11.6-2.3,25.6-8.3,32.9c-6,7.3-12.6,14.3-19.6,20.7c-3.1,2.9-7.2,6-11.9,4.8c-2.6-0.6-4.4-2.4-6-4
		c-0.4-0.4-0.7-0.7-1.1-1c-8-7.3-24.2-8.5-37.4,2.1c-11.2,9-17.5,23.1-23,35.5c-0.5,1.2-1.1,2.5-1.8,3.9c-6.3,14-15.8,35.2-17,48.1
		c-2,21.2-14.2,40.2-16.5,42.4c-0.2,0.2-0.5,0.5-0.9,0.9c-6,6-8.5,8.1-10.2,8.4c-4.7,0.8-10.2,1.9-15.5,3c-5.3,1.1-10.8,2.2-15.5,3
		C121.6,359.2,113.7,359.6,106,359.6z M62.5,352.1c7.4,1.5,43.7,5.7,65.2,1.9c4.7-0.8,10.2-1.9,15.5-3c5.3-1.1,10.8-2.2,15.5-3
		c0.6-0.2,2.5-1.7,8.1-7.3c0.4-0.4,0.7-0.8,1-1c1.1-1,13.3-19,15.3-40c1.3-13.6,11-35.1,17.4-49.4c0.6-1.4,1.2-2.7,1.8-3.9
		c5.7-12.8,12.2-27.4,24.1-37c11.7-9.4,30.8-12.8,42.6-2c0.4,0.4,0.8,0.7,1.2,1.1c1.4,1.4,2.7,2.6,4.2,3c2.8,0.7,5.8-1.7,8.2-3.9
		c6.8-6.3,13.3-13.2,19.3-20.3c5.4-6.5,13.6-18.8,8-28.3c-2.8-4.7-8.4-7.3-13.9-9.4c-13.7-5.1-27.9-8.4-42.4-9.8
		c-26.6-2.6-53.5,1-79.6,4.5c-18.3,2.4-38.2,3.1-57.4,3.8c-18.5,0.6-37.7,1.3-55.2,3.5L62.5,352.1z"/>
</g>
<g>
	<path class="st3" d="M238.1,388.8c3.7-14.3,7.3-29.9,1.5-43.5c-2.7-6.3-7.3-11.7-9.3-18.2c-3.2-10.8,2.3-23.6,12.4-28.7
		c10.3-5.2,22.8-2.5,33.9-5.7c12.4-3.6,22.2-14.4,35-15.7c9.6-1,18.8,3.7,28.1,5.9c7,1.7,14.3,2.1,21.5,2.4
		c6.8,0.3,13.9,0.6,20.2-1.8c6.4-2.5,11.9-8.5,11.4-15.3c-0.6-9.5-11.8-16.2-11.3-25.7c0.4-8,8.8-12.9,16.2-15.8
		c9.5-3.6,20.1-6.3,29.8-3.2c6.7,2.1,12.2,6.7,17.6,11.3c9.3,7.9,18.7,15.7,28,23.6c4.6,3.9,9.3,7.9,12.1,13.2
		c3.9,7.4,3.7,16.1,5.6,24.2c2.3,9.5,7.5,18.1,10.2,27.5c7.1,24.7-1.8,39.7-12.5,63.2L238.1,388.8z"/>
	<path class="st4" d="M235.5,390.8l0.7-2.5c3.9-15.1,7-29.7,1.6-42.2c-1.1-2.5-2.5-4.9-4-7.4c-2.1-3.5-4.2-7-5.4-11.1
		c-3.6-11.9,2.3-25.5,13.4-31c6.2-3.1,13.2-3.5,19.9-3.9c4.8-0.3,9.8-0.6,14.3-1.9c5.1-1.5,10-4.4,14.7-7.2c6.4-3.8,13-7.8,20.7-8.6
		c7.1-0.7,14,1.5,20.6,3.6c2.7,0.9,5.5,1.8,8.2,2.4c6.9,1.6,14.1,2,21.1,2.4c6.2,0.3,13.3,0.7,19.4-1.7c5.3-2.1,10.5-7.3,10.2-13.3
		c-0.2-4-2.7-7.6-5.4-11.3c-3.1-4.4-6.3-8.9-6-14.6c0.4-7.2,6.4-13.3,17.5-17.5c8.8-3.3,20.2-6.7,31.1-3.3c7.2,2.3,13,7.2,18.2,11.6
		l28,23.6c4.5,3.8,9.6,8.1,12.6,13.8c2.7,5.2,3.6,10.9,4.4,16.5c0.4,2.7,0.8,5.6,1.4,8.2c1.2,5,3.3,9.9,5.3,14.6
		c1.8,4.1,3.6,8.4,4.9,12.8c6.7,23.1-0.2,37.7-9.6,58c-1,2.1-2,4.3-3,6.6l-0.5,1.2l-1.3,0L235.5,390.8z M314.2,278.8
		c-0.8,0-1.6,0-2.5,0.1c-6.8,0.7-12.7,4.2-19,8c-4.9,2.9-10,6-15.6,7.6c-5,1.5-10.2,1.8-15.2,2.1c-6.6,0.4-12.8,0.8-18.3,3.5
		c-9.2,4.6-14.3,16.4-11.4,26.3c1.1,3.6,3,6.8,5,10.2c1.5,2.5,3,5.1,4.2,7.8c5.6,12.9,3,27.4-0.7,42.3l246.5-2.2
		c0.9-1.9,1.7-3.7,2.5-5.4c9.1-19.5,15.6-33.6,9.4-55.2c-1.2-4.2-3-8.4-4.7-12.4c-2.1-4.9-4.2-9.9-5.5-15.3
		c-0.7-2.8-1.1-5.8-1.5-8.6c-0.8-5.5-1.5-10.6-3.9-15.2c-2.7-5-7.3-8.9-11.7-12.6l-28-23.6c-4.9-4.1-10.5-8.8-16.9-10.9
		c-9.7-3.1-20.3,0.1-28.5,3.2c-6.6,2.5-14.6,7-14.9,14c-0.2,4.3,2.4,8.1,5.3,12.1c2.8,4.1,5.8,8.2,6.1,13.4
		c0.5,8.3-6.2,14.8-12.7,17.3c-6.9,2.7-14.4,2.3-21.1,2c-7.2-0.4-14.6-0.7-21.9-2.5c-2.9-0.7-5.7-1.6-8.5-2.5
		C325,280.5,319.6,278.8,314.2,278.8z"/>
</g>
<g>
	<path class="st5" d="M206.7,280.4c13.3,0.2,26.8,0.3,39.8-2.2c14.5-2.8,28.3-8.8,41.8-14.7c7.5-3.3,15-6.6,22.6-9.9
		c13.1-5.7,26.3-11.5,37.4-20.6c10.7-8.8,18.9-20.2,27-31.4c3.7-5.2,7.5-10.4,10.2-16.2c1.6-3.5,2.9-7.3,5.5-10.1
		c2.5-2.7,6-4.4,9.3-5.9c10.1-4.7,20.2-9.3,30.2-14c2.6-1.2,5.2-2.4,7-4.6c4.3-4.9,2.7-12.4,0.9-18.7c-2.8-9.7-5.6-19.4-10.6-28.1
		s-12.5-16.4-22-19.6c-9-3-18.8-1.8-28.3-0.6c-4.4,0.6-8.9,1.2-12.7,3.4c-3.9,2.2-6.8,5.9-9.5,9.5c-11.7,15.2-13.3,28-17,46.8
		c-3,15.6-10.5,35.2-14.7,50.4c-7.5,27-35.5,43.2-62.8,49.6c-4.8,1.1-9.7,2.1-14.5,3.4c-10.2,2.8-19.9,7.5-28.5,13.8
		c-6.3,4.6-12.5,13.2-7.9,19.5"/>
	<path class="st6" d="M216.8,282.5c-3.4,0-6.8,0-10.1-0.1l0.1-4c0.1,0,0.1,0,0.2,0c-0.5-1.5-0.6-3.2-0.3-4.9
		c0.9-5.8,5.8-11.2,10.1-14.4c8.8-6.4,18.6-11.2,29.1-14.1c3.2-0.9,6.5-1.6,9.6-2.3c1.7-0.4,3.3-0.7,5-1.1
		c32.1-7.5,55-25.6,61.4-48.2c1.6-5.6,3.5-11.7,5.6-18.1c3.5-11,7.2-22.4,9.1-32.2c0.3-1.6,0.6-3.2,0.9-4.7
		c3.2-16.6,5.5-28.7,16.4-42.9c2.7-3.5,5.8-7.5,10.1-10c4.2-2.4,9.1-3.1,13.5-3.6c9.2-1.2,19.5-2.6,29.2,0.7
		c9.1,3.1,17.3,10.4,23.1,20.5c5.1,9,8,18.9,10.8,28.6c2,7.1,3.5,15-1.3,20.6c-2.2,2.5-5.1,3.9-7.7,5.1l-30.2,14
		c-3.2,1.5-6.4,3-8.7,5.5c-1.8,2-3,4.6-4.2,7.3c-0.3,0.8-0.7,1.5-1,2.3c-2.8,6-6.6,11.3-10.4,16.5c-8,11.2-16.4,22.8-27.4,31.8
		c-11.3,9.3-24.8,15.1-37.8,20.8l-22.6,9.9c-13.5,5.9-27.4,12-42.3,14.8C237,282.1,226.8,282.5,216.8,282.5z M211.3,278.5
		c11.6,0.1,23.5,0,34.9-2.2c14.4-2.7,28.1-8.7,41.4-14.6l22.6-9.9c12.8-5.6,26-11.4,36.9-20.3c10.6-8.6,18.8-20,26.7-31
		c3.6-5,7.4-10.3,10-15.9c0.3-0.7,0.7-1.5,1-2.2c1.3-2.9,2.6-5.9,4.9-8.4c2.8-3.1,6.6-4.8,10-6.4l30.2-14c2.3-1.1,4.8-2.2,6.4-4
		c3.5-4.1,2.3-10.5,0.5-16.9c-2.7-9.4-5.5-19.1-10.4-27.7c-5.4-9.3-12.8-16-20.9-18.7c-8.8-3-18.6-1.7-27.4-0.5
		c-4.2,0.5-8.4,1.1-12,3.1c-3.6,2.1-6.3,5.6-8.9,9c-10.4,13.5-12.6,25.1-15.7,41.2c-0.3,1.5-0.6,3.1-0.9,4.7
		c-2,10-5.6,21.5-9.2,32.6c-2.1,6.4-4,12.4-5.5,18c-6.7,24.1-30.7,43.2-64.3,51c-1.7,0.4-3.4,0.8-5.1,1.1c-3.1,0.7-6.3,1.4-9.4,2.2
		c-10,2.8-19.4,7.3-27.8,13.4c-4.6,3.3-8,8-8.5,11.8C210.3,275.7,210.6,277.2,211.3,278.5z"/>
</g>
<g>
	<circle class="st6" cx="404.5" cy="146.1" r="8"/>
</g>
<g>
	<circle class="st6" cx="370" cy="181" r="8"/>
</g>
<g>
	<circle class="st6" cx="334" cy="205" r="8"/>
</g>
<g>
	<circle class="st6" cx="313" cy="242" r="8"/>
</g>
<g>
	<circle class="st6" cx="247" cy="267" r="8"/>
</g>
<g>
	<circle class="st4" cx="271" cy="172" r="8"/>
</g>
<g>
	<circle class="st4" cx="235" cy="172" r="8"/>
</g>
<g>
	<circle class="st4" cx="197" cy="209" r="8"/>
</g>
<g>
	<circle class="st4" cx="142" cy="217" r="8"/>
</g>
<g>
	<circle class="st4" cx="118" cy="178" r="8"/>
</g>
<g>
	<circle class="st4" cx="177" cy="259" r="8"/>
</g>
<g>
	<circle class="st4" cx="117" cy="284" r="8"/>
</g>
<g>
	<circle class="st4" cx="161" cy="321" r="8"/>
</g>
<g>
	<circle class="st4" cx="249" cy="321" r="8"/>
</g>
<g>
	<circle class="st4" cx="314" cy="293" r="8"/>
</g>
<g>
	<circle class="st4" cx="311" cy="327" r="8"/>
</g>
<g>
	<circle class="st4" cx="360" cy="304" r="8"/>
</g>
<g>
	<circle class="st4" cx="420" cy="336" r="8"/>
</g>
<g>
	<circle class="st4" cx="408" cy="246" r="8"/>
</g>
<g>
	<circle class="st4" cx="452" cy="298" r="8"/>
</g>
<g>
	<path class="st0" d="M247,305.5C247,305.5,247,305.5,247,305.5c-4.7,0-9.2-0.9-13.4-2.6c-1.8-0.7-2.6-2.8-1.9-4.6
		c0.7-1.8,2.8-2.6,4.6-1.9c3.4,1.4,7,2.1,10.7,2.1c0,0,0.1,0,0.1,0c1.9,0,3.4,1.6,3.4,3.5C250.5,303.9,249,305.5,247,305.5z
		 M259.1,303.1c-1.4,0-2.7-0.8-3.2-2.2c-0.7-1.8,0.1-3.8,1.9-4.6c3.4-1.4,6.5-3.5,9.1-6.1c1.4-1.4,3.6-1.4,4.9,0
		c1.4,1.4,1.4,3.6,0,5c-3.3,3.3-7.1,5.8-11.3,7.6C260,303,259.5,303.1,259.1,303.1z M224.8,296.3c-0.9,0-1.8-0.3-2.5-1
		c-3.3-3.3-5.8-7.1-7.6-11.3c-0.7-1.8,0.1-3.8,1.9-4.6c1.8-0.7,3.8,0.1,4.6,1.9c1.4,3.4,3.5,6.5,6.1,9.1c1.4,1.4,1.4,3.6,0,4.9
		C226.6,296,225.7,296.3,224.8,296.3z M276.1,286.1c-0.4,0-0.9-0.1-1.3-0.3c-1.8-0.7-2.6-2.8-1.9-4.6c1.4-3.4,2.1-7,2.1-10.7l0-0.1
		c0-1.9,1.6-3.5,3.5-3.5s3.5,1.6,3.5,3.5l0,0.1c0,4.7-0.9,9.2-2.7,13.4C278.8,285.2,277.5,286.1,276.1,286.1z M215.5,274
		c-1.9,0-3.5-1.5-3.5-3.5h3.5l-3.5,0c0-4.7,0.9-9.1,2.6-13.4c0.7-1.8,2.8-2.6,4.6-1.9c1.8,0.7,2.6,2.8,1.9,4.6
		c-1.4,3.4-2.1,7-2.1,10.7C219,272.4,217.4,274,215.5,274z M276.1,261.8c-1.4,0-2.7-0.8-3.2-2.1c-1.4-3.4-3.5-6.4-6.1-9.1
		c-1.4-1.4-1.4-3.6,0-4.9c1.4-1.4,3.6-1.4,4.9,0c3.3,3.3,5.8,7.1,7.6,11.3c0.7,1.8-0.1,3.8-1.9,4.6
		C277,261.7,276.5,261.8,276.1,261.8z M224.7,251.8c-0.9,0-1.8-0.3-2.5-1c-1.4-1.4-1.4-3.6,0-4.9c3.3-3.3,7.1-5.8,11.3-7.6
		c1.8-0.7,3.8,0.1,4.6,1.9c0.7,1.8-0.1,3.8-1.9,4.6c-3.4,1.4-6.4,3.5-9.1,6.1C226.5,251.4,225.6,251.8,224.7,251.8z M259,244.9
		c-0.4,0-0.9-0.1-1.3-0.3c-3.4-1.4-6.9-2.1-10.6-2.1c-1.9,0-3.5-1.6-3.5-3.5s1.5-3.5,3.5-3.5h0.1c4.6,0,9.1,0.9,13.3,2.6
		c1.8,0.7,2.6,2.8,1.9,4.6C261.6,244,260.3,244.9,259,244.9z"/>
</g>
<g>
	<g>
		<rect x="308" y="265" class="st0" width="425.5" height="11"/>
	</g>
	<g>
		<g>
			<polygon class="st0" points="310.2,253.8 310.2,287.2 293.5,270.5 			"/>
		</g>
	</g>
</g>
<g>
	<g>
		<rect x="546" y="121" class="st7" width="182" height="11"/>
	</g>
	<g>
		<g>
			<polygon class="st7" points="548.2,109.8 548.2,143.2 531.5,126.5 			"/>
		</g>
	</g>
</g>
<g>
	<path class="st7" d="M472.9,375.5h-15c-1.7,0-3-1.3-3-3s1.3-3,3-3h15c1.7,0,3,1.3,3,3S474.5,375.5,472.9,375.5z M427.9,375.5h-15
		c-1.7,0-3-1.3-3-3s1.3-3,3-3h15c1.7,0,3,1.3,3,3S429.5,375.5,427.9,375.5z M382.9,375.5h-15c-1.7,0-3-1.3-3-3s1.3-3,3-3h15
		c1.7,0,3,1.3,3,3S384.5,375.5,382.9,375.5z M337.9,375.5h-15c-1.7,0-3-1.3-3-3s1.3-3,3-3h15c1.7,0,3,1.3,3,3
		S339.5,375.5,337.9,375.5z M292.9,375.5h-15c-1.7,0-3-1.3-3-3s1.3-3,3-3h15c1.7,0,3,1.3,3,3S294.5,375.5,292.9,375.5z M247.9,375.5
		h-15c-1.7,0-3-1.3-3-3s1.3-3,3-3h15c1.7,0,3,1.3,3,3S249.5,375.5,247.9,375.5z M202.9,375.5h-15c-1.7,0-3-1.3-3-3s1.3-3,3-3h15
		c1.7,0,3,1.3,3,3S204.5,375.5,202.9,375.5z M157.9,375.5h-15c-1.7,0-3-1.3-3-3s1.3-3,3-3h15c1.7,0,3,1.3,3,3
		S159.5,375.5,157.9,375.5z M489.4,372.2c-1.2,0-2.3-0.7-2.8-1.8c-0.6-1.5,0.1-3.3,1.6-3.9c4.3-1.8,8.2-4.3,11.6-7.5
		c1.2-1.1,3.1-1.1,4.2,0.2c1.1,1.2,1.1,3.1-0.2,4.2c-3.9,3.7-8.5,6.6-13.4,8.7C490.2,372.1,489.8,372.2,489.4,372.2z M113.4,371.7
		c-0.4,0-0.8-0.1-1.2-0.3c-4.9-2.2-9.3-5.3-13.1-9.1c-1.2-1.2-1.2-3.1,0-4.2c1.2-1.2,3.1-1.2,4.2,0c3.3,3.3,7.2,5.9,11.4,7.9
		c1.5,0.7,2.2,2.5,1.5,4C115.7,371,114.6,371.7,113.4,371.7z M515.2,337.9c-0.1,0-0.2,0-0.4,0c-1.6-0.2-2.8-1.7-2.6-3.3
		c0.2-1.5,0.3-3.1,0.3-4.6v-10c0-1.7,1.3-3,3-3s3,1.3,3,3v10c0,1.8-0.1,3.6-0.3,5.3C518,336.8,516.7,337.9,515.2,337.9z M88.7,336.6
		c-1.5,0-2.9-1.2-3-2.7c-0.1-1.3-0.2-2.7-0.2-4v-11.3c0-1.7,1.3-3,3-3s3,1.3,3,3v11.3c0,1.2,0.1,2.3,0.1,3.5
		c0.1,1.7-1.1,3.1-2.7,3.2C88.8,336.6,88.7,336.6,88.7,336.6z M515.5,292.9c-1.7,0-3-1.3-3-3v-15c0-1.7,1.3-3,3-3s3,1.3,3,3v15
		C518.5,291.6,517.2,292.9,515.5,292.9z M88.5,291.6c-1.7,0-3-1.3-3-3v-15c0-1.7,1.3-3,3-3s3,1.3,3,3v15
		C91.5,290.3,90.2,291.6,88.5,291.6z M515.5,247.9c-1.7,0-3-1.3-3-3v-15c0-1.7,1.3-3,3-3s3,1.3,3,3v15
		C518.5,246.6,517.2,247.9,515.5,247.9z M88.5,246.6c-1.7,0-3-1.3-3-3v-15c0-1.7,1.3-3,3-3s3,1.3,3,3v15
		C91.5,245.3,90.2,246.6,88.5,246.6z M515.5,202.9c-1.7,0-3-1.3-3-3v-15c0-1.7,1.3-3,3-3s3,1.3,3,3v15
		C518.5,201.6,517.2,202.9,515.5,202.9z M88.5,201.6c-1.7,0-3-1.3-3-3v-15c0-1.7,1.3-3,3-3s3,1.3,3,3v15
		C91.5,200.3,90.2,201.6,88.5,201.6z M515.5,157.9c-1.7,0-3-1.3-3-3v-15c0-1.7,1.3-3,3-3s3,1.3,3,3v15
		C518.5,156.6,517.2,157.9,515.5,157.9z M88.5,156.6c-1.7,0-3-1.3-3-3v-15c0-1.7,1.3-3,3-3s3,1.3,3,3v15
		C91.5,155.3,90.2,156.6,88.5,156.6z M515.5,112.9c-1.7,0-3-1.3-3-3v-15c0-1.7,1.3-3,3-3s3,1.3,3,3v15
		C518.5,111.6,517.2,112.9,515.5,112.9z M88.5,111.6c-1.7,0-3-1.3-3-3v-15c0-1.7,1.3-3,3-3s3,1.3,3,3v15
		C91.5,110.3,90.2,111.6,88.5,111.6z M507.1,69.7c-0.9,0-1.8-0.4-2.4-1.2c-2.8-3.8-6.2-7-10.1-9.5c-1.4-0.9-1.8-2.8-0.9-4.2
		s2.8-1.8,4.2-0.9c4.5,3,8.4,6.6,11.6,11c1,1.3,0.7,3.2-0.6,4.2C508.4,69.5,507.7,69.7,507.1,69.7z M97.7,68.7
		c-0.7,0-1.3-0.2-1.9-0.6c-1.3-1-1.5-2.9-0.5-4.2c3.3-4.2,7.4-7.8,11.9-10.6c1.4-0.9,3.3-0.4,4.1,1c0.9,1.4,0.4,3.3-1,4.1
		c-4,2.4-7.5,5.6-10.4,9.2C99.4,68.3,98.5,68.7,97.7,68.7z M467.6,52.5h-15c-1.7,0-3-1.3-3-3s1.3-3,3-3h15c1.7,0,3,1.3,3,3
		S469.3,52.5,467.6,52.5z M422.6,52.5h-15c-1.7,0-3-1.3-3-3s1.3-3,3-3h15c1.7,0,3,1.3,3,3S424.3,52.5,422.6,52.5z M377.6,52.5h-15
		c-1.7,0-3-1.3-3-3s1.3-3,3-3h15c1.7,0,3,1.3,3,3S379.3,52.5,377.6,52.5z M332.6,52.5h-15c-1.7,0-3-1.3-3-3s1.3-3,3-3h15
		c1.7,0,3,1.3,3,3S334.3,52.5,332.6,52.5z M287.6,52.5h-15c-1.7,0-3-1.3-3-3s1.3-3,3-3h15c1.7,0,3,1.3,3,3S289.3,52.5,287.6,52.5z
		 M242.6,52.5h-15c-1.7,0-3-1.3-3-3s1.3-3,3-3h15c1.7,0,3,1.3,3,3S244.3,52.5,242.6,52.5z M197.6,52.5h-15c-1.7,0-3-1.3-3-3
		s1.3-3,3-3h15c1.7,0,3,1.3,3,3S199.3,52.5,197.6,52.5z M152.6,52.5h-15c-1.7,0-3-1.3-3-3s1.3-3,3-3h15c1.7,0,3,1.3,3,3
		S154.3,52.5,152.6,52.5z"/>
</g>
<g>
	<g>
		<path class="st7" d="M778.8,102.6v0.6c0,7-3.6,13.3-11.3,13.3c-7.3,0-11.8-6.1-11.8-13c0-7.1,4.7-13.2,12.1-13.2
			c4.2,0,7.9,2.1,9.8,5.9l-4.3,2.3c-1-2.2-3.1-4-5.7-4c-4.7,0-7,4.8-7,8.9s2.3,8.7,7,8.7c3,0,5.6-2.6,5.7-5.6H768v-4H778.8z"/>
	</g>
	<g>
		<path class="st7" d="M787.3,115.8h-4.6v-28h4.6V115.8z"/>
	</g>
	<g>
		<path class="st7" d="M808.1,107.7c0,5-3.4,8.6-8.5,8.6c-5.1,0-8.5-3.6-8.5-8.6c0-5,3.5-8.6,8.5-8.6S808.1,102.7,808.1,107.7z
			 M795.8,107.7c0,2.2,1.5,4.5,3.8,4.5c2.4,0,3.8-2.3,3.8-4.5c0-2.2-1.5-4.6-3.8-4.6C797.2,103.2,795.8,105.5,795.8,107.7z"/>
	</g>
	<g>
		<path class="st7" d="M812,87.8h4.6v13.3c1.1-1.3,2.8-2,4.5-2c4.6,0,7.4,4.3,7.4,8.5c0,4.4-2.7,8.7-7.5,8.7c-1.7,0-3.4-0.7-4.3-2
			h-0.1v1.5H812V87.8z M823.8,107.7c0-2.2-1.5-4.5-3.8-4.5c-2.4,0-3.8,2.3-3.8,4.5s1.5,4.6,3.8,4.6
			C822.3,112.3,823.8,109.9,823.8,107.7z"/>
	</g>
	<g>
		<path class="st7" d="M847.6,115.8H843v-1.5h-0.1c-1,1.3-2.7,2-4.4,2c-4.8,0-7.5-4.3-7.5-8.7c0-4.3,2.7-8.5,7.4-8.5
			c1.7,0,3.4,0.7,4.5,2v-1.5h4.6V115.8z M843.5,107.7c0-2.2-1.5-4.5-3.9-4.5c-2.4,0-3.8,2.3-3.8,4.5s1.5,4.6,3.8,4.6
			C842,112.3,843.5,109.9,843.5,107.7z"/>
	</g>
	<g>
		<path class="st7" d="M857.2,115.8h-4.6v-28h4.6V115.8z"/>
	</g>
	<g>
		<path class="st7" d="M761.6,151.8h-4.9v-24.9h4.9V151.8z"/>
	</g>
	<g>
		<path class="st7" d="M771.3,137.1L771.3,137.1c1-1.5,2.6-2,4.3-2c4.4,0,5.6,3.1,5.6,6.8v9.9h-4.6v-8.6c0-1.9,0.1-4.5-2.5-4.5
			c-2.7,0-2.8,3.1-2.8,5v8h-4.6v-16.2h4.6V137.1z"/>
	</g>
	<g>
		<path class="st7" d="M791.3,151.8h-4.6v-12.3h-1.6v-3.9h1.6v-5.5h4.6v5.5h2.8v3.9h-2.8V151.8z"/>
	</g>
	<g>
		<path class="st7" d="M800.6,144.5c0,2,0.8,4.4,3.2,4.4c1.5,0,2.5-0.9,3.1-2.2l4.3,0.7c-1.1,3.2-4,5-7.4,5c-5,0-8.1-3.6-8.1-8.5
			s2.6-8.8,7.9-8.8c5.3,0,7.7,3.9,7.7,8.8v0.6H800.6z M806.9,141.6c-0.2-1.7-1.3-3.3-3.1-3.3c-1.8,0-2.9,1.6-3.1,3.3H806.9z"/>
	</g>
	<g>
		<path class="st7" d="M819.6,137.3L819.6,137.3c1-1.4,2.4-2.2,4.1-2.2c0.7,0,1.3,0.2,1.9,0.4l-0.6,4.3c-0.6-0.4-1.2-0.6-1.9-0.6
			c-3.2,0-3.5,2.8-3.5,5.3v7.3H815v-16.2h4.6V137.3z"/>
	</g>
	<g>
		<path class="st7" d="M833.4,137.1c1.1-1.3,2.8-2,4.5-2c4.6,0,7.4,4.3,7.4,8.5c0,4.4-2.7,8.7-7.5,8.7c-1.7,0-3.4-0.7-4.3-2h-0.1
			v10.2h-4.6v-24.9h4.6V137.1z M840.6,143.7c0-2.2-1.5-4.5-3.8-4.5s-3.8,2.3-3.8,4.5s1.5,4.6,3.8,4.6S840.6,145.9,840.6,143.7z"/>
	</g>
	<g>
		<path class="st7" d="M853.7,137.3L853.7,137.3c1-1.4,2.4-2.2,4.1-2.2c0.7,0,1.3,0.2,1.9,0.4l-0.6,4.3c-0.6-0.4-1.2-0.6-1.9-0.6
			c-3.2,0-3.5,2.8-3.5,5.3v7.3h-4.6v-16.2h4.6V137.3z"/>
	</g>
	<g>
		<path class="st7" d="M866.6,144.5c0,2,0.8,4.4,3.2,4.4c1.5,0,2.5-0.9,3.1-2.2l4.3,0.7c-1.1,3.2-4,5-7.4,5c-5,0-8.1-3.6-8.1-8.5
			s2.6-8.8,7.9-8.8c5.3,0,7.7,3.9,7.7,8.8v0.6H866.6z M872.9,141.6c-0.2-1.7-1.3-3.3-3.1-3.3c-1.8,0-2.9,1.6-3.1,3.3H872.9z"/>
	</g>
	<g>
		<path class="st7" d="M886.2,151.8h-4.6v-12.3H880v-3.9h1.6v-5.5h4.6v5.5h2.8v3.9h-2.8V151.8z"/>
	</g>
	<g>
		<path class="st7" d="M907,151.8h-4.6v-1.5h-0.1c-1,1.3-2.7,2-4.4,2c-4.8,0-7.5-4.3-7.5-8.7c0-4.3,2.7-8.5,7.4-8.5
			c1.7,0,3.4,0.7,4.5,2v-1.5h4.6V151.8z M902.9,143.7c0-2.2-1.5-4.5-3.9-4.5c-2.4,0-3.8,2.3-3.8,4.5s1.5,4.6,3.8,4.6
			C901.5,148.3,902.9,145.9,902.9,143.7z"/>
	</g>
	<g>
		<path class="st7" d="M917.2,151.8h-4.6v-12.3H911v-3.9h1.6v-5.5h4.6v5.5h2.8v3.9h-2.8V151.8z"/>
	</g>
	<g>
		<path class="st7" d="M928,128.8c0,1.5-1.2,2.7-2.7,2.7s-2.7-1.2-2.7-2.7c0-1.5,1.2-2.7,2.7-2.7S928,127.3,928,128.8z M927.6,151.8
			h-4.6v-16.2h4.6V151.8z"/>
	</g>
	<g>
		<path class="st7" d="M948.6,143.7c0,5-3.4,8.6-8.5,8.6c-5.1,0-8.5-3.6-8.5-8.6c0-5,3.5-8.6,8.5-8.6S948.6,138.7,948.6,143.7z
			 M936.3,143.7c0,2.2,1.5,4.5,3.8,4.5c2.4,0,3.8-2.3,3.8-4.5c0-2.2-1.5-4.6-3.8-4.6C937.7,139.2,936.3,141.5,936.3,143.7z"/>
	</g>
	<g>
		<path class="st7" d="M957.1,137.1L957.1,137.1c1-1.5,2.6-2,4.3-2c4.4,0,5.6,3.1,5.6,6.8v9.9h-4.6v-8.6c0-1.9,0.1-4.5-2.5-4.5
			c-2.7,0-2.8,3.1-2.8,5v8h-4.6v-16.2h4.6V137.1z"/>
	</g>
</g>
</svg>
