<?xml version="1.0" encoding="UTF-8"?>
<svg id="Layer_1" xmlns="http://www.w3.org/2000/svg" width="104" height="104" version="1.1" viewBox="0 0 104 104">
  <!-- Generator: Adobe Illustrator 30.0.0, SVG Export Plug-In . SVG Version: 2.1.1 Build 123)  -->
  <defs>
    <style>
      .st0 {
        fill: #616161;
      }
    </style>
  </defs>
  <path class="st0" d="M96.27,54.76l-.84-1.83.71-4.69c.01-.1.02-.25,0-.41,0-.13-.01-.25-.03-.37v-.21c-.24-3.15-1.25-5.12-3.13-6.04-1.57-.75-8.42-.86-10.29-.88l-.14-.08c-6.95-3.99-12.95-7.43-21.15-7.59l-4.45-.09c.02-.11.04-.22.04-.33v-6c0-.83-.67-1.5-1.5-1.5s-1.5.67-1.5,1.5v6c0,.09.01.18.03.27l-1.05-.02c-6.61,0-11.24,2.88-16.15,5.93-1.45.9-2.88,1.79-4.41,2.66-10.96,1.82-18.2,4.35-22.15,7.76-.24.22-.43.5-.57.84l-2.02,5.4c-.11.27-.16.54-.16.79-.23,9.24,3.99,9.42,8.48,9.62.04,0,.08,0,.3,0,.25,0,.75,0,1.73-.01,1.24,3.5,4.57,6.01,8.48,6.01s7.39-2.62,8.56-6.24c11.62-.17,26.37-.39,37.72-.59.98,3.91,4.51,6.82,8.72,6.82s7.98-3.1,8.82-7.2c.15-.01.2-.02.26-.03,4.21-.79,5.73-2.19,5.92-8.49,0-.37-.08-.71-.23-1.02ZM26.5,68.5c-3.31,0-6-2.69-6-6s2.69-6,6-6,6,2.69,6,6-2.69,6-6,6ZM81.5,68.5c-3.31,0-6-2.69-6-6s2.69-6,6-6,6,2.69,6,6-2.69,6-6,6ZM90.4,61.25c-.61-4.37-4.36-7.75-8.9-7.75s-8.54,3.6-8.96,8.18c-11.17.19-25.57.41-37.05.58-.13-4.85-4.11-8.76-8.99-8.76s-9,4.03-9,8.99c-1.07,0-1.33,0-1.4,0-4.38-.19-5.73-.25-5.6-6.43l1.92-5.12c3.57-2.96,10.36-5.23,20.73-6.94l.26-.04.23-.13c1.67-.95,3.2-1.89,4.76-2.87,4.92-3.06,8.8-5.47,14.52-5.47l8.41.17c7.44.14,12.86,3.25,19.74,7.2l.83.46h.39c4.51.02,8.69.33,9.37.58.81.4,1.29,1.59,1.43,3.55l.02.29c0,.06.01.12.01.18l-.82,5.44,1.17,2.55c-.15,4.55-.75,4.88-3.09,5.34Z"/>
  <path class="st0" d="M71,48h-5.52c-.83,0-1.58.52-1.87,1.3l-.49,1.29-2.57-8.78c-.25-.86-1.02-1.44-1.92-1.44,0,0-.02,0-.03,0-.91.01-1.67.61-1.91,1.49l-2.83,10.74-2.51-9.6c-.23-.86-.98-1.46-1.87-1.49-.9-.04-1.68.52-1.96,1.36l-1.73,5.14h-4.79c-.83,0-1.5.67-1.5,1.5s.67,1.5,1.5,1.5h5.51c.86,0,1.62-.55,1.9-1.36l.89-2.65,2.63,10.05c.23.88,1.02,1.49,1.93,1.49h0c.91,0,1.7-.61,1.93-1.49l2.89-10.94,2.4,8.21c.24.83.98,1.41,1.84,1.44.85.03,1.64-.49,1.95-1.29l1.3-3.45h4.83c.83,0,1.5-.67,1.5-1.5s-.67-1.5-1.5-1.5Z"/>
</svg>