<?xml version="1.0" encoding="UTF-8"?>
<svg id="Layer_1" data-name="Layer 1" xmlns="http://www.w3.org/2000/svg" width="400" height="485.3" version="1.1" viewBox="0 0 400 485.3">
  <defs>
    <style>
      .cls-1 {
        fill: #333;
      }

      .cls-1, .cls-2, .cls-3, .cls-4, .cls-5, .cls-6, .cls-7 {
        stroke-width: 0px;
      }

      .cls-2 {
        fill: #73645d;
      }

      .cls-3 {
        fill: #e3e1dc;
      }

      .cls-8 {
        fill: none;
        stroke: #307eb2;
        stroke-miterlimit: 10;
        stroke-width: 7.1px;
      }

      .cls-4 {
        fill: #474747;
      }

      .cls-5 {
        fill: #307eb2;
      }

      .cls-6 {
        fill: #fff;
      }

      .cls-7 {
        fill: #231f20;
      }
    </style>
  </defs>
  <g>
    <rect class="cls-3" x="74.6" y="187.7" width="116.6" height="37.6" rx="7" ry="7"/>
    <path class="cls-2" d="M184.2,188.2c3.6,0,6.6,3,6.6,6.6v23.6c0,3.6-3,6.6-6.6,6.6h-102.5c-3.6,0-6.6-3-6.6-6.6v-23.6c0-3.6,3-6.6,6.6-6.6h102.5M184.2,187.3h-102.5c-4.1,0-7.4,3.3-7.4,7.4v23.6c0,4.1,3.3,7.4,7.4,7.4h102.5c4.1,0,7.4-3.3,7.4-7.4v-23.6c0-4.1-3.3-7.4-7.4-7.4h0Z"/>
  </g>
  <g>
    <rect class="cls-3" x="74.6" y="230.8" width="116.6" height="37.6" rx="7" ry="7"/>
    <path class="cls-2" d="M184.2,231.2c3.6,0,6.6,3,6.6,6.6v23.6c0,3.6-3,6.6-6.6,6.6h-102.5c-3.6,0-6.6-3-6.6-6.6v-23.6c0-3.6,3-6.6,6.6-6.6h102.5M184.2,230.4h-102.5c-4.1,0-7.4,3.3-7.4,7.4v23.6c0,4.1,3.3,7.4,7.4,7.4h102.5c4.1,0,7.4-3.3,7.4-7.4v-23.6c0-4.1-3.3-7.4-7.4-7.4h0Z"/>
  </g>
  <line class="cls-8" x1="249.6" y1="107.2" x2="203.9" y2="45.1"/>
  <line class="cls-8" x1="158.2" y1="107.2" x2="203.9" y2="45.1"/>
  <g>
    <path class="cls-7" d="M105,203.6l5.5,5.8v-5.4h.9v7.6l-5.5-5.8v5.5h-.9v-7.7Z"/>
    <path class="cls-7" d="M117.5,211.3h-.9v-.7h0c-.3.5-.9.9-1.5.9-1.4,0-2.2-1.2-2.2-2.5s.8-2.4,2.1-2.4,1.2.3,1.6.9h0v-.8h.9v4.5ZM116.7,209c0-.9-.5-1.6-1.5-1.6s-1.4.8-1.4,1.6.5,1.7,1.4,1.7,1.5-.8,1.5-1.7Z"/>
    <path class="cls-7" d="M120.5,204.7c0,.3-.3.6-.6.6s-.6-.3-.6-.6.3-.6.6-.6.6.3.6.6ZM120.3,211.3h-.9v-4.5h.9v4.5Z"/>
    <path class="cls-7" d="M123.8,209.6l1.3-2.8h1l-2.3,4.7-2.3-4.7h1l1.3,2.8Z"/>
    <path class="cls-7" d="M127.7,209.2c0,.8.5,1.5,1.4,1.5s1-.3,1.4-.9l.7.4c-.4.8-1.2,1.2-2.1,1.2-1.4,0-2.2-1-2.2-2.4s.7-2.4,2.2-2.4,2.1,1.1,2.1,2.4h0c0,.1-3.5.1-3.5.1ZM130.3,208.5c-.1-.7-.6-1.1-1.3-1.1s-1.2.5-1.3,1.1h2.5Z"/>
    <path class="cls-7" d="M135.9,204h.9c1.4,0,2.7.4,2.7,2s-.3,1.2-.8,1.4h0c.9.2,1.5,1,1.5,1.9,0,1.5-1.3,2.1-2.5,2.1h-1.7v-7.3ZM136.8,207.2h.2c.9,0,1.6-.2,1.6-1.2s-.7-1.2-1.6-1.2h-.3v2.4ZM136.8,210.5h.7c.8,0,1.7-.3,1.7-1.3s-1-1.2-1.9-1.2h-.6v2.5Z"/>
    <path class="cls-7" d="M146,211.3h-.9v-.7h0c-.3.5-.9.9-1.5.9-1.4,0-2.2-1.2-2.2-2.5s.8-2.4,2.1-2.4,1.2.3,1.6.9h0v-.8h.9v4.5ZM145.1,209c0-.9-.5-1.6-1.5-1.6s-1.4.8-1.4,1.6.5,1.7,1.4,1.7,1.5-.8,1.5-1.7Z"/>
    <path class="cls-7" d="M147,206.8h1l1.5,2.9,1.4-2.9h1l-3.7,7.2h-1l1.8-3.4-2.1-3.8Z"/>
    <path class="cls-7" d="M153.5,209.2c0,.8.5,1.5,1.4,1.5s1-.3,1.4-.9l.7.4c-.4.8-1.2,1.2-2.1,1.2-1.4,0-2.2-1-2.2-2.4s.7-2.4,2.2-2.4,2.1,1.1,2.1,2.4h0c0,.1-3.5.1-3.5.1ZM156.1,208.5c-.1-.7-.6-1.1-1.3-1.1s-1.2.5-1.3,1.1h2.5Z"/>
    <path class="cls-7" d="M160.1,207.8c-.1-.2-.3-.4-.6-.4s-.5.2-.5.4c0,.4.5.6,1.1.8.5.2,1,.6,1,1.3s-.7,1.5-1.6,1.5-1.3-.4-1.6-1l.7-.3c.2.3.4.6.8.6s.7-.3.7-.6-.1-.4-.3-.5l-.9-.5c-.5-.3-.9-.5-.9-1.1s.6-1.3,1.3-1.3,1,.3,1.2.8l-.7.4Z"/>
  </g>
  <g>
    <path class="cls-7" d="M92,244.6l5.5,5.8v-5.4h.9v7.6l-5.5-5.8v5.5h-.9v-7.7Z"/>
    <path class="cls-7" d="M100.8,250.2c0,.8.5,1.5,1.4,1.5s1-.3,1.4-.9l.7.4c-.4.8-1.2,1.2-2.1,1.2-1.4,0-2.2-1-2.2-2.4s.7-2.4,2.2-2.4,2.1,1.1,2.1,2.4h0c0,.1-3.5.1-3.5.1ZM103.3,249.5c-.1-.7-.6-1.1-1.3-1.1s-1.2.5-1.3,1.1h2.5Z"/>
    <path class="cls-7" d="M109.8,252.3h-.9v-.7h0c-.3.5-.9.9-1.5.9-1.4,0-2.2-1.2-2.2-2.5s.8-2.4,2.1-2.4,1.2.3,1.6.9h0v-.8h.9v4.5ZM109,250c0-.9-.5-1.6-1.5-1.6s-1.4.8-1.4,1.6.5,1.7,1.4,1.7,1.5-.8,1.5-1.7Z"/>
    <path class="cls-7" d="M112.5,248.5h0c.2-.5.7-.9,1.2-.9s.5,0,.7.2l-.4.8c-.2-.1-.3-.2-.5-.2-.9,0-1.1.9-1.1,1.6v2.2h-.9v-4.5h.9v.7Z"/>
    <path class="cls-7" d="M116.1,250.2c0,.8.5,1.5,1.4,1.5s1-.3,1.4-.9l.7.4c-.4.8-1.2,1.2-2.1,1.2-1.4,0-2.2-1-2.2-2.4s.7-2.4,2.2-2.4,2.1,1.1,2.1,2.4h0c0,.1-3.5.1-3.5.1ZM118.6,249.5c-.1-.7-.6-1.1-1.3-1.1s-1.2.5-1.3,1.1h2.5Z"/>
    <path class="cls-7" d="M122.7,248.8c-.1-.2-.3-.4-.6-.4s-.5.2-.5.4c0,.4.5.6,1.1.8.5.2,1,.6,1,1.3s-.7,1.5-1.6,1.5-1.3-.4-1.6-1l.7-.3c.2.3.4.6.8.6s.7-.3.7-.6-.1-.4-.3-.5l-.9-.5c-.5-.3-.9-.5-.9-1.1s.6-1.3,1.3-1.3,1,.3,1.2.8l-.7.4Z"/>
    <path class="cls-7" d="M126.2,252.3h-.9v-3.7h-.5v-.8h.5v-1.7h.9v1.7h.9v.8h-.9v3.7Z"/>
    <path class="cls-7" d="M131.5,244.6l5.5,5.8v-5.4h.9v7.6l-5.5-5.8v5.5h-.9v-7.7Z"/>
    <path class="cls-7" d="M140.2,250.2c0,.8.5,1.5,1.4,1.5s1-.3,1.4-.9l.7.4c-.4.8-1.2,1.2-2.1,1.2-1.4,0-2.2-1-2.2-2.4s.7-2.4,2.2-2.4,2.1,1.1,2.1,2.4h0c0,.1-3.5.1-3.5.1ZM142.8,249.5c-.1-.7-.6-1.1-1.3-1.1s-1.2.5-1.3,1.1h2.5Z"/>
    <path class="cls-7" d="M146.3,245.7c0,.3-.3.6-.6.6s-.6-.3-.6-.6.3-.6.6-.6.6.3.6.6ZM146.1,252.3h-.9v-4.5h.9v4.5Z"/>
    <path class="cls-7" d="M152.3,252.2c0,1.6-.4,2.7-2.2,2.7s-2.2-.8-2.2-2.1h.9c0,.8.6,1.3,1.4,1.3s1.3-.7,1.3-1.7v-.9h0c-.3.5-.9.9-1.5.9-1.4,0-2.2-1.2-2.2-2.5s.8-2.4,2.1-2.4,1.2.3,1.6.9h0v-.8h.9v4.5ZM151.5,250c0-.9-.5-1.6-1.5-1.6s-1.4.8-1.4,1.6.5,1.7,1.4,1.7,1.5-.8,1.5-1.7Z"/>
    <path class="cls-7" d="M154.9,243.9v4.5h0c.3-.5.8-.7,1.4-.7,1.3,0,1.6.9,1.6,2v2.7h-.9v-2.6c0-.8-.1-1.3-1-1.3s-1.1,1-1.1,1.8v2.1h-.9v-8.4h.9Z"/>
    <path class="cls-7" d="M159.6,243.9h.9v4.6h0c.4-.5.9-.9,1.6-.9,1.3,0,2.1,1.1,2.1,2.4s-.8,2.5-2.2,2.5-1.2-.3-1.5-.9h0v.7h-.9v-8.4ZM163.4,250c0-.9-.5-1.6-1.5-1.6s-1.4.8-1.4,1.6.5,1.7,1.4,1.7,1.5-.8,1.5-1.7Z"/>
    <path class="cls-7" d="M170.1,250c0,1.4-1.1,2.4-2.4,2.4s-2.4-1-2.4-2.4,1.1-2.4,2.4-2.4,2.4,1,2.4,2.4ZM166.2,250c0,.9.7,1.6,1.6,1.6s1.6-.7,1.6-1.6-.7-1.6-1.6-1.6-1.6.7-1.6,1.6Z"/>
    <path class="cls-7" d="M172.5,248.5h0c.2-.5.7-.9,1.2-.9s.5,0,.7.2l-.4.8c-.2-.1-.3-.2-.5-.2-.9,0-1.1.9-1.1,1.6v2.2h-.9v-4.5h.9v.7Z"/>
  </g>
  <g>
    <rect class="cls-3" x="74.6" y="273.8" width="116.6" height="37.6" rx="7" ry="7"/>
    <path class="cls-2" d="M184.2,274.2c3.6,0,6.6,3,6.6,6.6v23.6c0,3.6-3,6.6-6.6,6.6h-102.5c-3.6,0-6.6-3-6.6-6.6v-23.6c0-3.6,3-6.6,6.6-6.6h102.5M184.2,273.4h-102.5c-4.1,0-7.4,3.3-7.4,7.4v23.6c0,4.1,3.3,7.4,7.4,7.4h102.5c4.1,0,7.4-3.3,7.4-7.4v-23.6c0-4.1-3.3-7.4-7.4-7.4h0Z"/>
  </g>
  <g>
    <path class="cls-3" d="M216,187.7h102.5c3.9,0,7,3.2,7,7v23.6c0,3.9-3.1,7-7,7h-102.5c-3.9,0-7-3.2-7-7v-23.6c0-3.9,3.2-7,7-7Z"/>
    <path class="cls-2" d="M318.5,188.2c3.6,0,6.6,3,6.6,6.6v23.6c0,3.6-3,6.6-6.6,6.6h-102.5c-3.6,0-6.6-3-6.6-6.6v-23.6c0-3.6,3-6.6,6.6-6.6h102.5M318.5,187.3h-102.5c-4.1,0-7.4,3.3-7.4,7.4v23.6c0,4.1,3.3,7.4,7.4,7.4h102.5c4.1,0,7.4-3.3,7.4-7.4v-23.6c0-4.1-3.3-7.4-7.4-7.4h0Z"/>
  </g>
  <g>
    <path class="cls-3" d="M216,230.8h102.5c3.9,0,7,3.2,7,7v23.6c0,3.9-3.1,7-7,7h-102.5c-3.9,0-7-3.2-7-7v-23.6c0-3.9,3.2-7,7-7Z"/>
    <path class="cls-2" d="M318.5,231.2c3.6,0,6.6,3,6.6,6.6v23.6c0,3.6-3,6.6-6.6,6.6h-102.5c-3.6,0-6.6-3-6.6-6.6v-23.6c0-3.6,3-6.6,6.6-6.6h102.5M318.5,230.4h-102.5c-4.1,0-7.4,3.3-7.4,7.4v23.6c0,4.1,3.3,7.4,7.4,7.4h102.5c4.1,0,7.4-3.3,7.4-7.4v-23.6c0-4.1-3.3-7.4-7.4-7.4h0Z"/>
  </g>
  <g>
    <path class="cls-3" d="M216,273.8h102.5c3.9,0,7,3.2,7,7v23.6c0,3.9-3.1,7-7,7h-102.5c-3.9,0-7-3.2-7-7v-23.6c0-3.9,3.2-7,7-7Z"/>
    <path class="cls-2" d="M318.5,274.2c3.6,0,6.6,3,6.6,6.6v23.6c0,3.6-3,6.6-6.6,6.6h-102.5c-3.6,0-6.6-3-6.6-6.6v-23.6c0-3.6,3-6.6,6.6-6.6h102.5M318.5,273.4h-102.5c-4.1,0-7.4,3.3-7.4,7.4v23.6c0,4.1,3.3,7.4,7.4,7.4h102.5c4.1,0,7.4-3.3,7.4-7.4v-23.6c0-4.1-3.3-7.4-7.4-7.4h0Z"/>
  </g>
  <g>
    <rect class="cls-3" x="141.5" y="316.9" width="116.6" height="37.6" rx="7" ry="7"/>
    <path class="cls-2" d="M251,317.3c3.6,0,6.6,3,6.6,6.6v23.6c0,3.6-3,6.6-6.6,6.6h-102.5c-3.6,0-6.6-3-6.6-6.6v-23.6c0-3.6,3-6.6,6.6-6.6h102.5M251,316.5h-102.5c-4.1,0-7.4,3.3-7.4,7.4v23.6c0,4.1,3.3,7.4,7.4,7.4h102.5c4.1,0,7.4-3.3,7.4-7.4v-23.6c0-4.1-3.3-7.4-7.4-7.4h0Z"/>
  </g>
  <g>
    <rect class="cls-3" x="141.5" y="359.9" width="116.6" height="37.6" rx="7" ry="7"/>
    <path class="cls-2" d="M251,360.4c3.6,0,6.6,3,6.6,6.6v23.6c0,3.6-3,6.6-6.6,6.6h-102.5c-3.6,0-6.6-3-6.6-6.6v-23.6c0-3.6,3-6.6,6.6-6.6h102.5M251,359.5h-102.5c-4.1,0-7.4,3.3-7.4,7.4v23.6c0,4.1,3.3,7.4,7.4,7.4h102.5c4.1,0,7.4-3.3,7.4-7.4v-23.6c0-4.1-3.3-7.4-7.4-7.4h0Z"/>
  </g>
  <g>
    <rect class="cls-3" x="141.5" y="403" width="116.6" height="37.6" rx="7" ry="7"/>
    <path class="cls-2" d="M251,403.4c3.6,0,6.6,3,6.6,6.6v23.6c0,3.6-3,6.6-6.6,6.6h-102.5c-3.6,0-6.6-3-6.6-6.6v-23.6c0-3.6,3-6.6,6.6-6.6h102.5M251,402.6h-102.5c-4.1,0-7.4,3.3-7.4,7.4v23.6c0,4.1,3.3,7.4,7.4,7.4h102.5c4.1,0,7.4-3.3,7.4-7.4v-23.6c0-4.1-3.3-7.4-7.4-7.4h0Z"/>
  </g>
  <g>
    <rect class="cls-3" x="141.5" y="446" width="116.6" height="37.6" rx="7" ry="7"/>
    <path class="cls-2" d="M251,446.4c3.6,0,6.6,3,6.6,6.6v23.6c0,3.6-3,6.6-6.6,6.6h-102.5c-3.6,0-6.6-3-6.6-6.6v-23.6c0-3.6,3-6.6,6.6-6.6h102.5M251,445.6h-102.5c-4.1,0-7.4,3.3-7.4,7.4v23.6c0,4.1,3.3,7.4,7.4,7.4h102.5c4.1,0,7.4-3.3,7.4-7.4v-23.6c0-4.1-3.3-7.4-7.4-7.4h0Z"/>
  </g>
  <g>
    <path class="cls-7" d="M104.7,283.5h1.5c2.2,0,4.1,1.2,4.1,3.6s-1.8,3.7-4.1,3.7h-1.5v-7.3ZM105.6,290h.3c1.9,0,3.5-.7,3.5-2.8s-1.6-2.8-3.5-2.8h-.3v5.7Z"/>
    <path class="cls-7" d="M113,284.2c0,.3-.3.6-.6.6s-.6-.3-.6-.6.3-.6.6-.6.6.3.6.6ZM112.8,290.8h-.9v-4.5h.9v4.5Z"/>
    <path class="cls-7" d="M116.6,287.3c-.1-.2-.3-.4-.6-.4s-.5.2-.5.4c0,.4.5.6,1.1.8.5.2,1,.6,1,1.3s-.7,1.5-1.6,1.5-1.3-.4-1.6-1l.7-.3c.2.3.4.6.8.6s.7-.3.7-.6-.1-.4-.3-.5l-.9-.5c-.5-.3-.9-.5-.9-1.1s.6-1.3,1.3-1.3,1,.3,1.2.8l-.7.4Z"/>
    <path class="cls-7" d="M122.5,287.5c-.3-.4-.8-.6-1.3-.6-.9,0-1.5.8-1.5,1.6s.7,1.6,1.6,1.6.9-.2,1.2-.6v1.1c-.4.2-.8.3-1.3.3-1.3,0-2.4-1-2.4-2.4s1.1-2.4,2.5-2.4.9,0,1.2.3v1.1Z"/>
    <path class="cls-7" d="M124.9,287h0c.2-.5.7-.9,1.2-.9s.5,0,.7.2l-.4.8c-.2-.1-.3-.2-.5-.2-.9,0-1.1.9-1.1,1.6v2.2h-.9v-4.5h.9v.7Z"/>
    <path class="cls-7" d="M129.2,284.2c0,.3-.3.6-.6.6s-.6-.3-.6-.6.3-.6.6-.6.6.3.6.6ZM129.1,290.8h-.9v-4.5h.9v4.5Z"/>
    <path class="cls-7" d="M131.9,286.8h0c.3-.4.7-.7,1.2-.7s1,.3,1.3.8c.3-.5.8-.8,1.4-.8,1.2,0,1.5.9,1.5,2v2.7h-.9v-2.6c0-.6,0-1.3-.8-1.3s-1,1-1,1.7v2.2h-.9v-2.4c0-.6,0-1.5-.8-1.5s-1,1-1,1.7v2.2h-.9v-4.5h.9v.6Z"/>
    <path class="cls-7" d="M140.3,284.2c0,.3-.3.6-.6.6s-.6-.3-.6-.6.3-.6.6-.6.6.3.6.6ZM140.1,290.8h-.9v-4.5h.9v4.5Z"/>
    <path class="cls-7" d="M143,286.9h0c.3-.5.8-.7,1.4-.7,1.3,0,1.6.9,1.6,2v2.7h-.9v-2.6c0-.8-.1-1.3-1-1.3s-1.1,1-1.1,1.8v2.1h-.9v-4.5h.9v.6Z"/>
    <path class="cls-7" d="M152.1,290.8h-.9v-.7h0c-.3.5-.9.9-1.5.9-1.4,0-2.2-1.2-2.2-2.5s.8-2.4,2.1-2.4,1.2.3,1.6.9h0v-.8h.9v4.5ZM151.2,288.5c0-.9-.5-1.6-1.5-1.6s-1.4.8-1.4,1.6.5,1.7,1.4,1.7,1.5-.8,1.5-1.7Z"/>
    <path class="cls-7" d="M154.7,286.9h0c.3-.5.8-.7,1.4-.7,1.3,0,1.6.9,1.6,2v2.7h-.9v-2.6c0-.8-.1-1.3-1-1.3s-1.1,1-1.1,1.8v2.1h-.9v-4.5h.9v.6Z"/>
    <path class="cls-7" d="M160.5,290.8h-.9v-3.7h-.5v-.8h.5v-1.7h.9v1.7h.9v.8h-.9v3.7Z"/>
    <path class="cls-7" d="M115.3,300.6l-.8,1.8h-1l3.5-7.6,3.5,7.6h-1l-.8-1.8h-3.4ZM117,296.8l-1.3,3h2.6l-1.3-3Z"/>
    <path class="cls-7" d="M122.4,298.5h0c.3-.5.8-.7,1.4-.7,1.3,0,1.6.9,1.6,2v2.7h-.9v-2.6c0-.8-.1-1.3-1-1.3s-1.1,1-1.1,1.8v2.1h-.9v-4.5h.9v.6Z"/>
    <path class="cls-7" d="M131.5,302.5h-.9v-.7h0c-.3.5-.9.9-1.5.9-1.4,0-2.2-1.2-2.2-2.5s.8-2.4,2.1-2.4,1.2.3,1.6.9h0v-.8h.9v4.5ZM130.7,300.2c0-.9-.5-1.6-1.5-1.6s-1.4.8-1.4,1.6.5,1.7,1.4,1.7,1.5-.8,1.5-1.7Z"/>
    <path class="cls-7" d="M134.1,302.5h-.9v-8.4h.9v8.4Z"/>
    <path class="cls-7" d="M135.2,297.9h1l1.5,2.9,1.4-2.9h1l-3.7,7.2h-1l1.8-3.4-2.1-3.8Z"/>
    <path class="cls-7" d="M143.1,298.9c-.1-.2-.3-.4-.6-.4s-.5.2-.5.4c0,.4.5.6,1.1.8.5.2,1,.6,1,1.3s-.7,1.5-1.6,1.5-1.3-.4-1.6-1l.7-.3c.2.3.4.6.8.6s.7-.3.7-.6-.1-.4-.3-.5l-.9-.5c-.5-.3-.9-.5-.9-1.1s.6-1.3,1.3-1.3,1,.3,1.2.8l-.7.4Z"/>
    <path class="cls-7" d="M146.8,295.8c0,.3-.3.6-.6.6s-.6-.3-.6-.6.3-.6.6-.6.6.3.6.6ZM146.6,302.5h-.9v-4.5h.9v4.5Z"/>
    <path class="cls-7" d="M150.4,298.9c-.1-.2-.3-.4-.6-.4s-.5.2-.5.4c0,.4.5.6,1.1.8.5.2,1,.6,1,1.3s-.7,1.5-1.6,1.5-1.3-.4-1.6-1l.7-.3c.2.3.4.6.8.6s.7-.3.7-.6-.1-.4-.3-.5l-.9-.5c-.5-.3-.9-.5-.9-1.1s.6-1.3,1.3-1.3,1,.3,1.2.8l-.7.4Z"/>
  </g>
  <g>
    <path class="cls-7" d="M228.1,210.5h2.2v.8h-3.1v-7.3h.9v6.5Z"/>
    <path class="cls-7" d="M232.7,204.7c0,.3-.3.6-.6.6s-.6-.3-.6-.6.3-.6.6-.6.6.3.6.6ZM232.5,211.3h-.9v-4.5h.9v4.5Z"/>
    <path class="cls-7" d="M235.4,207.4h0c.3-.5.8-.7,1.4-.7,1.3,0,1.6.9,1.6,2v2.7h-.9v-2.6c0-.8-.1-1.3-1-1.3s-1.1,1-1.1,1.8v2.1h-.9v-4.5h.9v.6Z"/>
    <path class="cls-7" d="M240.7,209.2c0,.8.5,1.5,1.4,1.5s1-.3,1.4-.9l.7.4c-.4.8-1.2,1.2-2.1,1.2-1.4,0-2.2-1-2.2-2.4s.7-2.4,2.2-2.4,2.1,1.1,2.1,2.4h0c0,.1-3.5.1-3.5.1ZM243.3,208.5c-.1-.7-.6-1.1-1.3-1.1s-1.2.5-1.3,1.1h2.5Z"/>
    <path class="cls-7" d="M249.8,211.3h-.9v-.7h0c-.3.5-.9.9-1.5.9-1.4,0-2.2-1.2-2.2-2.5s.8-2.4,2.1-2.4,1.2.3,1.6.9h0v-.8h.9v4.5ZM248.9,209c0-.9-.5-1.6-1.5-1.6s-1.4.8-1.4,1.6.5,1.7,1.4,1.7,1.5-.8,1.5-1.7Z"/>
    <path class="cls-7" d="M252.4,207.5h0c.2-.5.7-.9,1.2-.9s.5,0,.7.2l-.4.8c-.2-.1-.3-.2-.5-.2-.9,0-1.1.9-1.1,1.6v2.2h-.9v-4.5h.9v.7Z"/>
    <path class="cls-7" d="M263.5,211.3h-1.1l-2.2-3.1h-.4v3.1h-.9v-7.3h1.1c.7,0,1.4,0,1.9.3.6.4,1,1,1,1.7,0,1-.7,1.9-1.8,2.1l2.3,3.2ZM259.9,207.4h.3c.9,0,1.9-.2,1.9-1.3s-1.1-1.3-2-1.3h-.2v2.7Z"/>
    <path class="cls-7" d="M265.2,209.2c0,.8.5,1.5,1.4,1.5s1-.3,1.4-.9l.7.4c-.4.8-1.2,1.2-2.1,1.2-1.4,0-2.2-1-2.2-2.4s.7-2.4,2.2-2.4,2.1,1.1,2.1,2.4h0c0,.1-3.5.1-3.5.1ZM267.8,208.5c-.1-.7-.6-1.1-1.3-1.1s-1.2.5-1.3,1.1h2.5Z"/>
    <path class="cls-7" d="M274.3,211.2c0,1.6-.4,2.7-2.2,2.7s-2.2-.8-2.2-2.1h.9c0,.8.6,1.3,1.4,1.3s1.3-.7,1.3-1.7v-.9h0c-.3.5-.9.9-1.5.9-1.4,0-2.2-1.2-2.2-2.5s.8-2.4,2.1-2.4,1.2.3,1.6.9h0v-.8h.9v4.5ZM273.5,209c0-.9-.5-1.6-1.5-1.6s-1.4.8-1.4,1.6.5,1.7,1.4,1.7,1.5-.8,1.5-1.7Z"/>
    <path class="cls-7" d="M276.9,207.5h0c.2-.5.7-.9,1.2-.9s.5,0,.7.2l-.4.8c-.2-.1-.3-.2-.5-.2-.9,0-1.1.9-1.1,1.6v2.2h-.9v-4.5h.9v.7Z"/>
    <path class="cls-7" d="M280.5,209.2c0,.8.5,1.5,1.4,1.5s1-.3,1.4-.9l.7.4c-.4.8-1.2,1.2-2.1,1.2-1.4,0-2.2-1-2.2-2.4s.7-2.4,2.2-2.4,2.1,1.1,2.1,2.4h0c0,.1-3.5.1-3.5.1ZM283.1,208.5c-.1-.7-.6-1.1-1.3-1.1s-1.2.5-1.3,1.1h2.5Z"/>
    <path class="cls-7" d="M287.2,207.8c-.1-.2-.3-.4-.6-.4s-.5.2-.5.4c0,.4.5.6,1.1.8.5.2,1,.6,1,1.3s-.7,1.5-1.6,1.5-1.3-.4-1.6-1l.7-.3c.2.3.4.6.8.6s.7-.3.7-.6-.1-.4-.3-.5l-.9-.5c-.5-.3-.9-.5-.9-1.1s.6-1.3,1.3-1.3,1,.3,1.2.8l-.7.4Z"/>
    <path class="cls-7" d="M291.5,207.8c-.1-.2-.3-.4-.6-.4s-.5.2-.5.4c0,.4.5.6,1.1.8.5.2,1,.6,1,1.3s-.7,1.5-1.6,1.5-1.3-.4-1.6-1l.7-.3c.2.3.4.6.8.6s.7-.3.7-.6-.1-.4-.3-.5l-.9-.5c-.5-.3-.9-.5-.9-1.1s.6-1.3,1.3-1.3,1,.3,1.2.8l-.7.4Z"/>
    <path class="cls-7" d="M295.2,204.7c0,.3-.3.6-.6.6s-.6-.3-.6-.6.3-.6.6-.6.6.3.6.6ZM295,211.3h-.9v-4.5h.9v4.5Z"/>
    <path class="cls-7" d="M301.5,209c0,1.4-1.1,2.4-2.4,2.4s-2.4-1-2.4-2.4,1.1-2.4,2.4-2.4,2.4,1,2.4,2.4ZM297.5,209c0,.9.7,1.6,1.6,1.6s1.6-.7,1.6-1.6-.7-1.6-1.6-1.6-1.6.7-1.6,1.6Z"/>
    <path class="cls-7" d="M303.7,207.4h0c.3-.5.8-.7,1.4-.7,1.3,0,1.6.9,1.6,2v2.7h-.9v-2.6c0-.8-.1-1.3-1-1.3s-1.1,1-1.1,1.8v2.1h-.9v-4.5h.9v.6Z"/>
  </g>
  <g>
    <path class="cls-7" d="M263.9,250.3v.3c0,2-1.4,3.6-3.5,3.6s-3.7-1.8-3.7-3.8,1.7-3.8,3.8-3.8,2.3.5,3,1.4l-.6.6c-.5-.7-1.4-1.2-2.3-1.2-1.6,0-2.9,1.3-2.9,3s1.3,3,2.8,3,2.4-1,2.4-2.2h-1.9v-.8h2.9Z"/>
    <path class="cls-7" d="M266.3,253.1h2.2v.8h-3.1v-7.3h.9v6.5Z"/>
    <path class="cls-7" d="M271,249.1h0l-.9,4.8h-.9l1.5-7.6,2.5,5.8,2.5-5.8,1.5,7.6h-.9l-.9-4.8h0l-2.2,5-2.2-5Z"/>
  </g>
  <g>
    <path class="cls-7" d="M234.3,292.9v.3c0,2-1.4,3.6-3.5,3.6s-3.7-1.8-3.7-3.8,1.7-3.8,3.8-3.8,2.3.5,3,1.4l-.6.6c-.5-.7-1.4-1.2-2.3-1.2-1.6,0-2.9,1.3-2.9,3s1.3,3,2.8,3,2.4-1,2.4-2.2h-1.9v-.8h2.9Z"/>
    <path class="cls-7" d="M240,296.6h-.9v-.7h0c-.3.5-.9.9-1.5.9-1.4,0-2.2-1.2-2.2-2.5s.8-2.4,2.1-2.4,1.2.3,1.6.9h0v-.8h.9v4.5ZM239.2,294.3c0-.9-.5-1.6-1.5-1.6s-1.4.8-1.4,1.6.5,1.7,1.4,1.7,1.5-.8,1.5-1.7Z"/>
    <path class="cls-7" d="M242.6,292v2.5c0,.7.2,1.4,1,1.4s1-.6,1-1.4v-2.5h.9v2.6c0,1.2-.6,2.1-1.9,2.1s-1.9-.8-1.9-2.1v-2.6h.9Z"/>
    <path class="cls-7" d="M249.1,293.1c-.1-.2-.3-.4-.6-.4s-.5.2-.5.4c0,.4.5.6,1.1.8.5.2,1,.6,1,1.3s-.7,1.5-1.6,1.5-1.3-.4-1.6-1l.7-.3c.2.3.4.6.8.6s.7-.3.7-.6-.1-.4-.3-.5l-.9-.5c-.5-.3-.9-.5-.9-1.1s.6-1.3,1.3-1.3,1,.3,1.2.8l-.7.4Z"/>
    <path class="cls-7" d="M253.4,293.1c-.1-.2-.3-.4-.6-.4s-.5.2-.5.4c0,.4.5.6,1.1.8.5.2,1,.6,1,1.3s-.7,1.5-1.6,1.5-1.3-.4-1.6-1l.7-.3c.2.3.4.6.8.6s.7-.3.7-.6-.1-.4-.3-.5l-.9-.5c-.5-.3-.9-.5-.9-1.1s.6-1.3,1.3-1.3,1,.3,1.2.8l-.7.4Z"/>
    <path class="cls-7" d="M257.2,289.9c0,.3-.3.6-.6.6s-.6-.3-.6-.6.3-.6.6-.6.6.3.6.6ZM257,296.6h-.9v-4.5h.9v4.5Z"/>
    <path class="cls-7" d="M263.2,296.6h-.9v-.7h0c-.3.5-.9.9-1.5.9-1.4,0-2.2-1.2-2.2-2.5s.8-2.4,2.1-2.4,1.2.3,1.6.9h0v-.8h.9v4.5ZM262.4,294.3c0-.9-.5-1.6-1.5-1.6s-1.4.8-1.4,1.6.5,1.7,1.4,1.7,1.5-.8,1.5-1.7Z"/>
    <path class="cls-7" d="M265.8,292.6h0c.3-.5.8-.7,1.4-.7,1.3,0,1.6.9,1.6,2v2.7h-.9v-2.6c0-.8-.1-1.3-1-1.3s-1.1,1-1.1,1.8v2.1h-.9v-4.5h.9v.6Z"/>
    <path class="cls-7" d="M275,296.6h-.9v-7.3h1c2.3,0,3,.8,3,2.1s-1.2,2.1-2.6,2.1h-.5v3.1ZM275,292.7h.3c.9,0,1.9-.2,1.9-1.3s-1.1-1.3-2-1.3h-.2v2.6Z"/>
    <path class="cls-7" d="M280.3,292.8h0c.2-.5.7-.9,1.2-.9s.5,0,.7.2l-.4.8c-.2-.1-.3-.2-.5-.2-.9,0-1.1.9-1.1,1.6v2.2h-.9v-4.5h.9v.7Z"/>
    <path class="cls-7" d="M287.9,294.3c0,1.4-1.1,2.4-2.4,2.4s-2.4-1-2.4-2.4,1.1-2.4,2.4-2.4,2.4,1,2.4,2.4ZM283.9,294.3c0,.9.7,1.6,1.6,1.6s1.6-.7,1.6-1.6-.7-1.6-1.6-1.6-1.6.7-1.6,1.6Z"/>
    <path class="cls-7" d="M292.6,293.3c-.3-.4-.8-.6-1.3-.6-.9,0-1.5.8-1.5,1.6s.7,1.6,1.6,1.6.9-.2,1.2-.6v1.1c-.4.2-.8.3-1.3.3-1.3,0-2.4-1-2.4-2.4s1.1-2.4,2.5-2.4.9,0,1.2.3v1.1Z"/>
    <path class="cls-7" d="M294.6,294.4c0,.8.5,1.5,1.4,1.5s1-.3,1.4-.9l.7.4c-.4.8-1.2,1.2-2.1,1.2-1.4,0-2.2-1-2.2-2.4s.7-2.4,2.2-2.4,2.1,1.1,2.1,2.4h0c0,.1-3.5.1-3.5.1ZM297.2,293.8c-.1-.7-.6-1.1-1.3-1.1s-1.2.5-1.3,1.1h2.5Z"/>
    <path class="cls-7" d="M301.3,293.1c-.1-.2-.3-.4-.6-.4s-.5.2-.5.4c0,.4.5.6,1.1.8.5.2,1,.6,1,1.3s-.7,1.5-1.6,1.5-1.3-.4-1.6-1l.7-.3c.2.3.4.6.8.6s.7-.3.7-.6-.1-.4-.3-.5l-.9-.5c-.5-.3-.9-.5-.9-1.1s.6-1.3,1.3-1.3,1,.3,1.2.8l-.7.4Z"/>
    <path class="cls-7" d="M305.6,293.1c-.1-.2-.3-.4-.6-.4s-.5.2-.5.4c0,.4.5.6,1.1.8.5.2,1,.6,1,1.3s-.7,1.5-1.6,1.5-1.3-.4-1.6-1l.7-.3c.2.3.4.6.8.6s.7-.3.7-.6-.1-.4-.3-.5l-.9-.5c-.5-.3-.9-.5-.9-1.1s.6-1.3,1.3-1.3,1,.3,1.2.8l-.7.4Z"/>
  </g>
  <g>
    <path class="cls-7" d="M169.1,328.2c-.3-.5-.6-.7-1.2-.7s-1.2.4-1.2,1,.6.9,1,1l.5.2c1,.4,1.8,1,1.8,2.2s-1,2.3-2.3,2.3-2.1-.9-2.3-2.1l.9-.2c0,.8.6,1.4,1.4,1.4s1.4-.7,1.4-1.4-.6-1.1-1.3-1.4l-.5-.2c-.8-.4-1.6-.8-1.6-1.9s1-1.9,2.2-1.9,1.5.4,1.9,1.1l-.7.4Z"/>
    <path class="cls-7" d="M172.4,329.6v2.5c0,.7.2,1.4,1,1.4s1-.6,1-1.4v-2.5h.9v2.6c0,1.2-.6,2.1-1.9,2.1s-1.9-.8-1.9-2.1v-2.6h.9Z"/>
    <path class="cls-7" d="M177.9,330.4h0c.4-.5.9-.9,1.6-.9,1.3,0,2.1,1.1,2.1,2.4s-.8,2.5-2.2,2.5-1.2-.3-1.5-.9h0v3.3h-.9v-7.2h.9v.8ZM180.8,331.9c0-.9-.5-1.6-1.5-1.6s-1.4.8-1.4,1.6.5,1.7,1.4,1.7,1.5-.8,1.5-1.7Z"/>
    <path class="cls-7" d="M183.9,330.4h0c.4-.5.9-.9,1.6-.9,1.3,0,2.1,1.1,2.1,2.4s-.8,2.5-2.2,2.5-1.2-.3-1.5-.9h0v3.3h-.9v-7.2h.9v.8ZM186.8,331.9c0-.9-.5-1.6-1.5-1.6s-1.4.8-1.4,1.6.5,1.7,1.4,1.7,1.5-.8,1.5-1.7Z"/>
    <path class="cls-7" d="M193.6,331.9c0,1.4-1.1,2.4-2.4,2.4s-2.4-1-2.4-2.4,1.1-2.4,2.4-2.4,2.4,1,2.4,2.4ZM189.6,331.9c0,.9.7,1.6,1.6,1.6s1.6-.7,1.6-1.6-.7-1.6-1.6-1.6-1.6.7-1.6,1.6Z"/>
    <path class="cls-7" d="M195.9,330.3h0c.2-.5.7-.9,1.2-.9s.5,0,.7.2l-.4.8c-.2-.1-.3-.2-.5-.2-.9,0-1.1.9-1.1,1.6v2.2h-.9v-4.5h.9v.7Z"/>
    <path class="cls-7" d="M199.9,334.2h-.9v-3.7h-.5v-.8h.5v-1.7h.9v1.7h.9v.8h-.9v3.7Z"/>
    <path class="cls-7" d="M207.8,332.2l2.2-5.4h1l-3.2,7.7-3.2-7.7h1l2.2,5.4Z"/>
    <path class="cls-7" d="M212.6,332c0,.8.5,1.5,1.4,1.5s1-.3,1.4-.9l.7.4c-.4.8-1.2,1.2-2.1,1.2-1.4,0-2.2-1-2.2-2.4s.7-2.4,2.2-2.4,2.1,1.1,2.1,2.4h0c0,.1-3.5.1-3.5.1ZM215.2,331.4c-.1-.7-.6-1.1-1.3-1.1s-1.2.5-1.3,1.1h2.5Z"/>
    <path class="cls-7" d="M220.7,330.9c-.3-.4-.8-.6-1.3-.6-.9,0-1.5.8-1.5,1.6s.7,1.6,1.6,1.6.9-.2,1.2-.6v1.1c-.4.2-.8.3-1.3.3-1.3,0-2.4-1-2.4-2.4s1.1-2.4,2.5-2.4.9,0,1.2.3v1.1Z"/>
    <path class="cls-7" d="M223.2,334.2h-.9v-3.7h-.5v-.8h.5v-1.7h.9v1.7h.9v.8h-.9v3.7Z"/>
    <path class="cls-7" d="M229.6,331.9c0,1.4-1.1,2.4-2.4,2.4s-2.4-1-2.4-2.4,1.1-2.4,2.4-2.4,2.4,1,2.4,2.4ZM225.6,331.9c0,.9.7,1.6,1.6,1.6s1.6-.7,1.6-1.6-.7-1.6-1.6-1.6-1.6.7-1.6,1.6Z"/>
    <path class="cls-7" d="M231.9,330.3h0c.2-.5.7-.9,1.2-.9s.5,0,.7.2l-.4.8c-.2-.1-.3-.2-.5-.2-.9,0-1.1.9-1.1,1.6v2.2h-.9v-4.5h.9v.7Z"/>
    <path class="cls-7" d="M179.8,341h0l-.9,4.8h-.9l1.5-7.6,2.5,5.8,2.5-5.8,1.5,7.6h-.9l-.9-4.8h0l-2.2,5-2.2-5Z"/>
    <path class="cls-7" d="M191.6,345.8h-.9v-.7h0c-.3.5-.9.9-1.5.9-1.4,0-2.2-1.2-2.2-2.5s.8-2.4,2.1-2.4,1.2.3,1.6.9h0v-.8h.9v4.5ZM190.8,343.5c0-.9-.5-1.6-1.5-1.6s-1.4.8-1.4,1.6.5,1.7,1.4,1.7,1.5-.8,1.5-1.7Z"/>
    <path class="cls-7" d="M196.7,342.6c-.3-.4-.8-.6-1.3-.6-.9,0-1.5.8-1.5,1.6s.7,1.6,1.6,1.6.9-.2,1.2-.6v1.1c-.4.2-.8.3-1.3.3-1.3,0-2.4-1-2.4-2.4s1.1-2.4,2.5-2.4.9,0,1.2.3v1.1Z"/>
    <path class="cls-7" d="M199.1,337.4v4.5h0c.3-.5.8-.7,1.4-.7,1.3,0,1.6.9,1.6,2v2.7h-.9v-2.6c0-.8-.1-1.3-1-1.3s-1.1,1-1.1,1.8v2.1h-.9v-8.4h.9Z"/>
    <path class="cls-7" d="M205.1,339.2c0,.3-.3.6-.6.6s-.6-.3-.6-.6.3-.6.6-.6.6.3.6.6ZM205,345.8h-.9v-4.5h.9v4.5Z"/>
    <path class="cls-7" d="M207.8,341.9h0c.3-.5.8-.7,1.4-.7,1.3,0,1.6.9,1.6,2v2.7h-.9v-2.6c0-.8-.1-1.3-1-1.3s-1.1,1-1.1,1.8v2.1h-.9v-4.5h.9v.6Z"/>
    <path class="cls-7" d="M213.1,343.7c0,.8.5,1.5,1.4,1.5s1-.3,1.4-.9l.7.4c-.4.8-1.2,1.2-2.1,1.2-1.4,0-2.2-1-2.2-2.4s.7-2.4,2.2-2.4,2.1,1.1,2.1,2.4h0c0,.1-3.5.1-3.5.1ZM215.7,343c-.1-.7-.6-1.1-1.3-1.1s-1.2.5-1.3,1.1h2.5Z"/>
    <path class="cls-7" d="M219.8,342.3c-.1-.2-.3-.4-.6-.4s-.5.2-.5.4c0,.4.5.6,1.1.8.5.2,1,.6,1,1.3s-.7,1.5-1.6,1.5-1.3-.4-1.6-1l.7-.3c.2.3.4.6.8.6s.7-.3.7-.6-.1-.4-.3-.5l-.9-.5c-.5-.3-.9-.5-.9-1.1s.6-1.3,1.3-1.3,1,.3,1.2.8l-.7.4Z"/>
  </g>
  <g>
    <path class="cls-7" d="M167.1,375.4h1.5c2.2,0,4.1,1.2,4.1,3.6s-1.8,3.7-4.1,3.7h-1.5v-7.3ZM168,381.9h.3c1.9,0,3.5-.7,3.5-2.8s-1.6-2.8-3.5-2.8h-.3v5.7Z"/>
    <path class="cls-7" d="M174.7,380.6c0,.8.5,1.5,1.4,1.5s1-.3,1.4-.9l.7.4c-.4.8-1.2,1.2-2.1,1.2-1.4,0-2.2-1-2.2-2.4s.7-2.4,2.2-2.4,2.1,1.1,2.1,2.4h0c0,.1-3.5.1-3.5.1ZM177.3,379.9c-.1-.7-.6-1.1-1.3-1.1s-1.2.5-1.3,1.1h2.5Z"/>
    <path class="cls-7" d="M182.8,379.5c-.3-.4-.8-.6-1.3-.6-.9,0-1.5.8-1.5,1.6s.7,1.6,1.6,1.6.9-.2,1.2-.6v1.1c-.4.2-.8.3-1.3.3-1.3,0-2.4-1-2.4-2.4s1.1-2.4,2.5-2.4.9,0,1.2.3v1.1Z"/>
    <path class="cls-7" d="M185.6,376.1c0,.3-.3.6-.6.6s-.6-.3-.6-.6.3-.6.6-.6.6.3.6.6ZM185.4,382.7h-.9v-4.5h.9v4.5Z"/>
    <path class="cls-7" d="M189.2,379.2c-.1-.2-.3-.4-.6-.4s-.5.2-.5.4c0,.4.5.6,1.1.8.5.2,1,.6,1,1.3s-.7,1.5-1.6,1.5-1.3-.4-1.6-1l.7-.3c.2.3.4.6.8.6s.7-.3.7-.6-.1-.4-.3-.5l-.9-.5c-.5-.3-.9-.5-.9-1.1s.6-1.3,1.3-1.3,1,.3,1.2.8l-.7.4Z"/>
    <path class="cls-7" d="M193,376.1c0,.3-.3.6-.6.6s-.6-.3-.6-.6.3-.6.6-.6.6.3.6.6ZM192.8,382.7h-.9v-4.5h.9v4.5Z"/>
    <path class="cls-7" d="M199.2,380.5c0,1.4-1.1,2.4-2.4,2.4s-2.4-1-2.4-2.4,1.1-2.4,2.4-2.4,2.4,1,2.4,2.4ZM195.2,380.5c0,.9.7,1.6,1.6,1.6s1.6-.7,1.6-1.6-.7-1.6-1.6-1.6-1.6.7-1.6,1.6Z"/>
    <path class="cls-7" d="M201.5,378.8h0c.3-.5.8-.7,1.4-.7,1.3,0,1.6.9,1.6,2v2.7h-.9v-2.6c0-.8-.1-1.3-1-1.3s-1.1,1-1.1,1.8v2.1h-.9v-4.5h.9v.6Z"/>
    <path class="cls-7" d="M211.7,382.7h-.9v-6.5h-1.7v-.8h4.4v.8h-1.7v6.5Z"/>
    <path class="cls-7" d="M215.6,378.9h0c.2-.5.7-.9,1.2-.9s.5,0,.7.2l-.4.8c-.2-.1-.3-.2-.5-.2-.9,0-1.1.9-1.1,1.6v2.2h-.9v-4.5h.9v.7Z"/>
    <path class="cls-7" d="M219.2,380.6c0,.8.5,1.5,1.4,1.5s1-.3,1.4-.9l.7.4c-.4.8-1.2,1.2-2.1,1.2-1.4,0-2.2-1-2.2-2.4s.7-2.4,2.2-2.4,2.1,1.1,2.1,2.4h0c0,.1-3.5.1-3.5.1ZM221.8,379.9c-.1-.7-.6-1.1-1.3-1.1s-1.2.5-1.3,1.1h2.5Z"/>
    <path class="cls-7" d="M224.5,380.6c0,.8.5,1.5,1.4,1.5s1-.3,1.4-.9l.7.4c-.4.8-1.2,1.2-2.1,1.2-1.4,0-2.2-1-2.2-2.4s.7-2.4,2.2-2.4,2.1,1.1,2.1,2.4h0c0,.1-3.5.1-3.5.1ZM227.1,379.9c-.1-.7-.6-1.1-1.3-1.1s-1.2.5-1.3,1.1h2.5Z"/>
    <path class="cls-7" d="M231.2,379.2c-.1-.2-.3-.4-.6-.4s-.5.2-.5.4c0,.4.5.6,1.1.8.5.2,1,.6,1,1.3s-.7,1.5-1.6,1.5-1.3-.4-1.6-1l.7-.3c.2.3.4.6.8.6s.7-.3.7-.6-.1-.4-.3-.5l-.9-.5c-.5-.3-.9-.5-.9-1.1s.6-1.3,1.3-1.3,1,.3,1.2.8l-.7.4Z"/>
  </g>
  <g>
    <path class="cls-7" d="M157.8,417.6h3.9v.8h-3v2.1h2.9v.8h-2.9v2.8h3v.8h-3.9v-7.3Z"/>
    <path class="cls-7" d="M164.2,420.9h0c.3-.5.8-.7,1.4-.7,1.3,0,1.6.9,1.6,2v2.7h-.9v-2.6c0-.8-.1-1.3-1-1.3s-1.1,1-1.1,1.8v2.1h-.9v-4.5h.9v.6Z"/>
    <path class="cls-7" d="M170.8,421.4c-.1-.2-.3-.4-.6-.4s-.5.2-.5.4c0,.4.5.6,1.1.8.5.2,1,.6,1,1.3s-.7,1.5-1.6,1.5-1.3-.4-1.6-1l.7-.3c.2.3.4.6.8.6s.7-.3.7-.6-.1-.4-.3-.5l-.9-.5c-.5-.3-.9-.5-.9-1.1s.6-1.3,1.3-1.3,1,.3,1.2.8l-.7.4Z"/>
    <path class="cls-7" d="M173.9,422.8c0,.8.5,1.5,1.4,1.5s1-.3,1.4-.9l.7.4c-.4.8-1.2,1.2-2.1,1.2-1.4,0-2.2-1-2.2-2.4s.7-2.4,2.2-2.4,2.1,1.1,2.1,2.4h0c0,.1-3.5.1-3.5.1ZM176.5,422.1c-.1-.7-.6-1.1-1.3-1.1s-1.2.5-1.3,1.1h2.5Z"/>
    <path class="cls-7" d="M179.5,420.9h0c.3-.4.7-.7,1.2-.7s1,.3,1.3.8c.3-.5.8-.8,1.4-.8,1.2,0,1.5.9,1.5,2v2.7h-.9v-2.6c0-.6,0-1.3-.8-1.3s-1,1-1,1.7v2.2h-.9v-2.4c0-.6,0-1.5-.8-1.5s-1,1-1,1.7v2.2h-.9v-4.5h.9v.6Z"/>
    <path class="cls-7" d="M186.6,416.4h.9v4.6h0c.4-.5.9-.9,1.6-.9,1.3,0,2.1,1.1,2.1,2.4s-.8,2.5-2.2,2.5-1.2-.3-1.5-.9h0v.7h-.9v-8.4ZM190.4,422.6c0-.9-.5-1.6-1.5-1.6s-1.4.8-1.4,1.6.5,1.7,1.4,1.7,1.5-.8,1.5-1.7Z"/>
    <path class="cls-7" d="M193.6,424.9h-.9v-8.4h.9v8.4Z"/>
    <path class="cls-7" d="M196,422.8c0,.8.5,1.5,1.4,1.5s1-.3,1.4-.9l.7.4c-.4.8-1.2,1.2-2.1,1.2-1.4,0-2.2-1-2.2-2.4s.7-2.4,2.2-2.4,2.1,1.1,2.1,2.4h0c0,.1-3.5.1-3.5.1ZM198.6,422.1c-.1-.7-.6-1.1-1.3-1.1s-1.2.5-1.3,1.1h2.5Z"/>
    <path class="cls-7" d="M205.5,420h0l-.9,4.8h-.9l1.5-7.6,2.5,5.8,2.5-5.8,1.5,7.6h-.9l-.9-4.8h0l-2.2,5-2.2-5Z"/>
    <path class="cls-7" d="M213.5,422.8c0,.8.5,1.5,1.4,1.5s1-.3,1.4-.9l.7.4c-.4.8-1.2,1.2-2.1,1.2-1.4,0-2.2-1-2.2-2.4s.7-2.4,2.2-2.4,2.1,1.1,2.1,2.4h0c0,.1-3.5.1-3.5.1ZM216.1,422.1c-.1-.7-.6-1.1-1.3-1.1s-1.2.5-1.3,1.1h2.5Z"/>
    <path class="cls-7" d="M219.3,424.9h-.9v-3.7h-.5v-.8h.5v-1.7h.9v1.7h.9v.8h-.9v3.7Z"/>
    <path class="cls-7" d="M222.1,416.4v4.5h0c.3-.5.8-.7,1.4-.7,1.3,0,1.6.9,1.6,2v2.7h-.9v-2.6c0-.8-.1-1.3-1-1.3s-1.1,1-1.1,1.8v2.1h-.9v-8.4h.9Z"/>
    <path class="cls-7" d="M231.4,422.6c0,1.4-1.1,2.4-2.4,2.4s-2.4-1-2.4-2.4,1.1-2.4,2.4-2.4,2.4,1,2.4,2.4ZM227.4,422.6c0,.9.7,1.6,1.6,1.6s1.6-.7,1.6-1.6-.7-1.6-1.6-1.6-1.6.7-1.6,1.6Z"/>
    <path class="cls-7" d="M236.1,424.2h0c-.3.5-.9.9-1.5.9-1.4,0-2.2-1.2-2.2-2.5s.8-2.4,2.1-2.4,1.2.3,1.6.9h0v-4.6h.9v8.4h-.9v-.7ZM236.2,422.6c0-.9-.5-1.6-1.5-1.6s-1.4.8-1.4,1.6.5,1.7,1.4,1.7,1.5-.8,1.5-1.7Z"/>
    <path class="cls-7" d="M240.6,421.4c-.1-.2-.3-.4-.6-.4s-.5.2-.5.4c0,.4.5.6,1.1.8.5.2,1,.6,1,1.3s-.7,1.5-1.6,1.5-1.3-.4-1.6-1l.7-.3c.2.3.4.6.8.6s.7-.3.7-.6-.1-.4-.3-.5l-.9-.5c-.5-.3-.9-.5-.9-1.1s.6-1.3,1.3-1.3,1,.3,1.2.8l-.7.4Z"/>
  </g>
  <g>
    <path class="cls-7" d="M161.2,460.6l5.5,5.8v-5.4h.9v7.6l-5.5-5.8v5.5h-.9v-7.7Z"/>
    <path class="cls-7" d="M169.9,466.2c0,.8.5,1.5,1.4,1.5s1-.3,1.4-.9l.7.4c-.4.8-1.2,1.2-2.1,1.2-1.4,0-2.2-1-2.2-2.4s.7-2.4,2.2-2.4,2.1,1.1,2.1,2.4h0c0,.1-3.5.1-3.5.1ZM172.5,465.5c-.1-.7-.6-1.1-1.3-1.1s-1.2.5-1.3,1.1h2.5Z"/>
    <path class="cls-7" d="M175.5,463.7v2.5c0,.7.2,1.4,1,1.4s1-.6,1-1.4v-2.5h.9v2.6c0,1.2-.6,2.1-1.9,2.1s-1.9-.8-1.9-2.1v-2.6h.9Z"/>
    <path class="cls-7" d="M181.2,464.5h0c.2-.5.7-.9,1.2-.9s.5,0,.7.2l-.4.8c-.2-.1-.3-.2-.5-.2-.9,0-1.1.9-1.1,1.6v2.2h-.9v-4.5h.9v.7Z"/>
    <path class="cls-7" d="M188.5,468.3h-.9v-.7h0c-.3.5-.9.9-1.5.9-1.4,0-2.2-1.2-2.2-2.5s.8-2.4,2.1-2.4,1.2.3,1.6.9h0v-.8h.9v4.5ZM187.7,466c0-.9-.5-1.6-1.5-1.6s-1.4.8-1.4,1.6.5,1.7,1.4,1.7,1.5-.8,1.5-1.7Z"/>
    <path class="cls-7" d="M191.1,468.3h-.9v-8.4h.9v8.4Z"/>
    <path class="cls-7" d="M196.4,460.6l5.5,5.8v-5.4h.9v7.6l-5.5-5.8v5.5h-.9v-7.7Z"/>
    <path class="cls-7" d="M205.1,466.2c0,.8.5,1.5,1.4,1.5s1-.3,1.4-.9l.7.4c-.4.8-1.2,1.2-2.1,1.2-1.4,0-2.2-1-2.2-2.4s.7-2.4,2.2-2.4,2.1,1.1,2.1,2.4h0c0,.1-3.5.1-3.5.1ZM207.7,465.5c-.1-.7-.6-1.1-1.3-1.1s-1.2.5-1.3,1.1h2.5Z"/>
    <path class="cls-7" d="M210.9,468.3h-.9v-3.7h-.5v-.8h.5v-1.7h.9v1.7h.9v.8h-.9v3.7Z"/>
    <path class="cls-7" d="M214.4,466.6l1.3-3.1,1.3,3.1,1.3-2.9h1l-2.3,4.7-1.3-3-1.3,3-2.3-4.7h1l1.3,2.9Z"/>
    <path class="cls-7" d="M224.8,466c0,1.4-1.1,2.4-2.4,2.4s-2.4-1-2.4-2.4,1.1-2.4,2.4-2.4,2.4,1,2.4,2.4ZM220.9,466c0,.9.7,1.6,1.6,1.6s1.6-.7,1.6-1.6-.7-1.6-1.6-1.6-1.6.7-1.6,1.6Z"/>
    <path class="cls-7" d="M227.2,464.5h0c.2-.5.7-.9,1.2-.9s.5,0,.7.2l-.4.8c-.2-.1-.3-.2-.5-.2-.9,0-1.1.9-1.1,1.6v2.2h-.9v-4.5h.9v.7Z"/>
    <path class="cls-7" d="M231.2,465.5l1.7-1.7h1.2l-1.9,1.9,2.1,2.7h-1.1l-1.6-2.1-.3.3v1.8h-.9v-8.4h.9v5.6Z"/>
    <path class="cls-7" d="M237.1,464.8c-.1-.2-.3-.4-.6-.4s-.5.2-.5.4c0,.4.5.6,1.1.8.5.2,1,.6,1,1.3s-.7,1.5-1.6,1.5-1.3-.4-1.6-1l.7-.3c.2.3.4.6.8.6s.7-.3.7-.6-.1-.4-.3-.5l-.9-.5c-.5-.3-.9-.5-.9-1.1s.6-1.3,1.3-1.3,1,.3,1.2.8l-.7.4Z"/>
  </g>
  <polyline class="cls-5" points="238.1 110.9 254.2 113.4 256.7 97.2"/>
  <polyline class="cls-5" points="169.8 110.9 153.6 113.4 151.2 97.2"/>
  <g id="Artwork_1" data-name="Artwork 1">
    <g>
      <path class="cls-6" d="M149.3,1.6h109.2c3.9,0,7,3.2,7,7v38c0,3.9-3.1,7-7,7h-109.2c-3.9,0-7-3.2-7-7V8.6c0-3.9,3.2-7,7-7Z"/>
      <path class="cls-4" d="M258.5,2c3.6,0,6.6,3,6.6,6.6v38c0,3.6-3,6.6-6.6,6.6h-109.2c-3.6,0-6.6-3-6.6-6.6V8.6c0-3.6,3-6.6,6.6-6.6h109.2M258.5,1.2h-109.2c-4.1,0-7.4,3.3-7.4,7.4v38c0,4.1,3.3,7.4,7.4,7.4h109.2c4.1,0,7.4-3.3,7.4-7.4V8.6c0-4.1-3.3-7.4-7.4-7.4h0Z"/>
    </g>
  </g>
  <g id="Artwork_1-2" data-name="Artwork 1">
    <g>
      <path class="cls-6" d="M81.3,123.4h102.9c3.8,0,6.8,3.1,6.8,6.8v38.4c0,3.8-3.1,6.8-6.8,6.8h-102.9c-3.8,0-6.8-3.1-6.8-6.8v-38.4c0-3.8,3.1-6.8,6.8-6.8Z"/>
      <path class="cls-4" d="M184.2,123.8c3.5,0,6.4,2.9,6.4,6.4v38.4c0,3.5-2.9,6.4-6.4,6.4h-102.9c-3.5,0-6.4-2.9-6.4-6.4v-38.4c0-3.5,2.9-6.4,6.4-6.4h102.9M184.2,123h-102.9c-4,0-7.2,3.2-7.2,7.2v38.4c0,4,3.2,7.2,7.2,7.2h102.9c4,0,7.2-3.2,7.2-7.2v-38.4c0-4-3.2-7.2-7.2-7.2h0Z"/>
    </g>
  </g>
  <g id="Artwork_1-3" data-name="Artwork 1">
    <g>
      <path class="cls-6" d="M215.8,123.4h102.9c3.8,0,6.8,3.1,6.8,6.8v38.4c0,3.8-3.1,6.8-6.8,6.8h-102.9c-3.8,0-6.8-3.1-6.8-6.8v-38.4c0-3.8,3.1-6.8,6.8-6.8Z"/>
      <path class="cls-4" d="M318.7,123.8c3.5,0,6.4,2.9,6.4,6.4v38.4c0,3.5-2.9,6.4-6.4,6.4h-102.9c-3.5,0-6.4-2.9-6.4-6.4v-38.4c0-3.5,2.9-6.4,6.4-6.4h102.9M318.7,123h-102.9c-4,0-7.2,3.2-7.2,7.2v38.4c0,4,3.2,7.2,7.2,7.2h102.9c4,0,7.2-3.2,7.2-7.2v-38.4c0-4-3.2-7.2-7.2-7.2h0Z"/>
    </g>
  </g>
  <g>
    <path class="cls-1" d="M87.6,148.5c-.5-.7-1.4-1.1-2.2-1.1-1.9,0-2.9,1.7-2.9,3.4s1.1,3.4,2.9,3.4,1.7-.4,2.2-1.1v2.3c-.7.3-1.5.6-2.3.6-2.8,0-4.9-2.4-4.9-5.2s2-5.3,4.9-5.3,1.6.2,2.2.6v2.3Z"/>
    <path class="cls-1" d="M91.6,154.1h2.8v1.7h-4.7v-10h1.9v8.3Z"/>
    <path class="cls-1" d="M97.9,153.7l-.8,2.1h-2.1l3.9-10.3h1.5l3.8,10.3h-2.1l-.8-2.1h-3.5ZM99.5,148.5h0l-1.1,3.6h2.4l-1.2-3.6Z"/>
    <path class="cls-1" d="M110.3,148c-.4-.5-.8-.8-1.5-.8s-1.2.5-1.2,1.1c0,1.7,4,1,4,4.3s-1.2,3.4-3.3,3.4-2.4-.8-3.1-1.9l1.3-1.2c.3.8,1,1.5,1.8,1.5s1.3-.7,1.3-1.4-1-1.3-1.7-1.6c-1.3-.5-2.2-1.2-2.2-2.7s1.2-3,2.9-3,2.1.4,2.7,1.1l-.9,1.4Z"/>
    <path class="cls-1" d="M118,148c-.4-.5-.8-.8-1.5-.8s-1.2.5-1.2,1.1c0,1.7,4,1,4,4.3s-1.2,3.4-3.3,3.4-2.4-.8-3.1-1.9l1.3-1.2c.3.8,1,1.5,1.8,1.5s1.3-.7,1.3-1.4-1-1.3-1.7-1.6c-1.3-.5-2.2-1.2-2.2-2.7s1.2-3,2.9-3,2.1.4,2.7,1.1l-.9,1.4Z"/>
    <path class="cls-1" d="M123.1,155.8h-1.9v-10h1.9v10Z"/>
    <path class="cls-1" d="M127.2,147.5v2.2h2.8v1.7h-2.8v4.4h-1.9v-10h5v1.7h-3Z"/>
    <path class="cls-1" d="M134.1,155.8h-1.9v-10h1.9v10Z"/>
    <path class="cls-1" d="M143,148.5c-.5-.7-1.4-1.1-2.2-1.1-1.9,0-2.9,1.7-2.9,3.4s1.1,3.4,2.9,3.4,1.7-.4,2.2-1.1v2.3c-.7.3-1.5.6-2.3.6-2.8,0-4.9-2.4-4.9-5.2s2-5.3,4.9-5.3,1.6.2,2.2.6v2.3Z"/>
    <path class="cls-1" d="M147.1,153.7l-.8,2.1h-2.1l3.9-10.3h1.5l3.8,10.3h-2.1l-.8-2.1h-3.5ZM148.8,148.5h0l-1.1,3.6h2.4l-1.2-3.6Z"/>
    <path class="cls-1" d="M157,155.8h-1.9v-8.3h-2v-1.7h6v1.7h-2v8.3Z"/>
    <path class="cls-1" d="M162.5,155.8h-1.9v-10h1.9v10Z"/>
    <path class="cls-1" d="M169.2,156.1c-3,0-4.9-2.3-4.9-5.3s2-5.2,4.9-5.2,4.9,2.3,4.9,5.2-1.9,5.3-4.9,5.3ZM169.2,147.5c-1.8,0-2.9,1.6-2.9,3.2s.8,3.4,2.9,3.4,2.9-1.9,2.9-3.4-1.1-3.2-2.9-3.2Z"/>
    <path class="cls-1" d="M175.9,145.5h1.4l5.3,7h0v-6.7h1.9v10.2h-1.4l-5.3-7h0v6.8h-1.9v-10.3Z"/>
  </g>
  <g>
    <path class="cls-1" d="M234.1,155.8h-2.4l-2.4-4h0v4h-1.9v-10h2.6c2,0,3.3.9,3.3,3s-.7,2.5-2,2.8l2.8,4.2ZM229.3,150.4h.3c1.1,0,1.8-.3,1.8-1.5s-.8-1.5-1.8-1.5h-.3v3Z"/>
    <path class="cls-1" d="M237.5,147.5v2.2h3.1v1.7h-3.1v2.7h3.2v1.7h-5.2v-10h5.2v1.7h-3.2Z"/>
    <path class="cls-1" d="M251.6,150.5v.3c0,2.8-1.4,5.3-4.5,5.3s-4.8-2.5-4.8-5.2,1.9-5.3,4.9-5.3,3.2.9,4,2.4l-1.7.9c-.4-.9-1.2-1.6-2.3-1.6-1.9,0-2.8,1.9-2.8,3.6s.9,3.5,2.8,3.5,2.2-1.1,2.3-2.3h-2.1v-1.6h4.3Z"/>
    <path class="cls-1" d="M260.2,155.8h-2.4l-2.4-4h0v4h-1.9v-10h2.6c2,0,3.3.9,3.3,3s-.7,2.5-2,2.8l2.8,4.2ZM255.3,150.4h.3c1.1,0,1.8-.3,1.8-1.5s-.8-1.5-1.8-1.5h-.3v3Z"/>
    <path class="cls-1" d="M263.5,147.5v2.2h3.1v1.7h-3.1v2.7h3.2v1.7h-5.2v-10h5.2v1.7h-3.2Z"/>
    <path class="cls-1" d="M273.6,148c-.4-.5-.8-.8-1.5-.8s-1.2.5-1.2,1.1c0,1.7,4,1,4,4.3s-1.2,3.4-3.3,3.4-2.4-.8-3.1-1.9l1.3-1.2c.3.8,1,1.5,1.8,1.5s1.3-.7,1.3-1.4-1-1.3-1.7-1.6c-1.3-.5-2.2-1.2-2.2-2.7s1.2-3,2.9-3,2.1.4,2.7,1.1l-.9,1.4Z"/>
    <path class="cls-1" d="M281.3,148c-.4-.5-.8-.8-1.5-.8s-1.2.5-1.2,1.1c0,1.7,4,1,4,4.3s-1.2,3.4-3.3,3.4-2.4-.8-3.1-1.9l1.3-1.2c.3.8,1,1.5,1.8,1.5s1.3-.7,1.3-1.4-1-1.3-1.7-1.6c-1.3-.5-2.2-1.2-2.2-2.7s1.2-3,2.9-3,2.1.4,2.7,1.1l-.9,1.4Z"/>
    <path class="cls-1" d="M286.3,155.8h-1.9v-10h1.9v10Z"/>
    <path class="cls-1" d="M293,156.1c-3,0-4.9-2.3-4.9-5.3s2-5.2,4.9-5.2,4.9,2.3,4.9,5.2-1.9,5.3-4.9,5.3ZM293,147.5c-1.8,0-2.9,1.6-2.9,3.2s.8,3.4,2.9,3.4,2.9-1.9,2.9-3.4-1.1-3.2-2.9-3.2Z"/>
    <path class="cls-1" d="M299.7,145.5h1.4l5.3,7h0v-6.7h1.9v10.2h-1.4l-5.3-7h0v6.8h-1.9v-10.3Z"/>
  </g>
  <g>
    <path class="cls-1" d="M172,18.6c-.4-.5-.8-.8-1.5-.8s-1.2.5-1.2,1.1c0,1.7,4,1,4,4.3s-1.2,3.4-3.3,3.4-2.4-.8-3.1-1.9l1.3-1.2c.3.8,1,1.5,1.8,1.5s1.3-.7,1.3-1.4-1-1.3-1.7-1.6c-1.3-.5-2.2-1.2-2.2-2.7s1.2-3,2.9-3,2.1.4,2.7,1.1l-.9,1.4Z"/>
    <path class="cls-1" d="M175,16.4h1.9v5.6c0,1.2.1,3,1.8,3s1.8-1.7,1.8-3v-5.6h1.9v6c0,2.4-1,4.3-3.7,4.3s-3.7-1.8-3.7-4.3v-6Z"/>
    <path class="cls-1" d="M186.5,26.4h-1.9v-10h2.7c2.1,0,3.5.8,3.5,3.1s-1.2,3.2-3.2,3.2h-1v3.7ZM186.5,21h.4c1.2,0,1.8-.3,1.8-1.6s-.7-1.5-1.8-1.5h-.3v3Z"/>
    <path class="cls-1" d="M194.3,18.1v2.2h3.1v1.7h-3.1v2.7h3.2v1.7h-5.2v-10h5.2v1.7h-3.2Z"/>
    <path class="cls-1" d="M206.4,26.4h-2.4l-2.4-4h0v4h-1.9v-10h2.6c2,0,3.3.9,3.3,3s-.7,2.5-2,2.8l2.8,4.2ZM201.6,21h.3c1.1,0,1.8-.3,1.8-1.5s-.8-1.5-1.8-1.5h-.3v3Z"/>
    <path class="cls-1" d="M211.4,23.1h0l2.2-6.7h2.1l-3.9,10.3h-1.1l-3.8-10.3h2.1l2.4,6.7Z"/>
    <path class="cls-1" d="M219,26.4h-1.9v-10h1.9v10Z"/>
    <path class="cls-1" d="M226,18.6c-.4-.5-.8-.8-1.5-.8s-1.2.5-1.2,1.1c0,1.7,4,1,4,4.3s-1.2,3.4-3.3,3.4-2.4-.8-3.1-1.9l1.3-1.2c.3.8,1,1.5,1.8,1.5s1.3-.7,1.3-1.4-1-1.3-1.7-1.6c-1.3-.5-2.2-1.2-2.2-2.7s1.2-3,2.9-3,2.1.4,2.7,1.1l-.9,1.4Z"/>
    <path class="cls-1" d="M231,18.1v2.2h3.1v1.7h-3.1v2.7h3.2v1.7h-5.2v-10h5.2v1.7h-3.2Z"/>
    <path class="cls-1" d="M236.3,16.4h2.8c2.9,0,4.8,2.2,4.8,5s-2,5-4.8,5h-2.8v-10ZM238.2,24.7h.3c2.4,0,3.3-1.3,3.3-3.3s-1.1-3.3-3.3-3.3h-.3v6.6Z"/>
  </g>
  <g>
    <path class="cls-1" d="M174.5,39.7h2.8v1.7h-4.7v-10h1.9v8.3Z"/>
    <path class="cls-1" d="M180.6,33.1v2.2h3.1v1.7h-3.1v2.7h3.2v1.7h-5.2v-10h5.2v1.7h-3.2Z"/>
    <path class="cls-1" d="M188,39.3l-.8,2.1h-2.1l3.9-10.3h1.5l3.8,10.3h-2.1l-.8-2.1h-3.5ZM189.7,34.1h0l-1.1,3.6h2.4l-1.2-3.6Z"/>
    <path class="cls-1" d="M202.4,41.4h-2.4l-2.4-4h0v4h-1.9v-10h2.6c2,0,3.3.9,3.3,3s-.7,2.5-2,2.8l2.8,4.2ZM197.6,36h.3c1.1,0,1.8-.3,1.8-1.5s-.8-1.5-1.8-1.5h-.3v3Z"/>
    <path class="cls-1" d="M203.9,31.1h1.4l5.3,7h0v-6.7h1.9v10.2h-1.4l-5.3-7h0v6.8h-1.9v-10.3Z"/>
    <path class="cls-1" d="M216.7,41.4h-1.9v-10h1.9v10Z"/>
    <path class="cls-1" d="M218.9,31.1h1.4l5.3,7h0v-6.7h1.9v10.2h-1.4l-5.3-7h0v6.8h-1.9v-10.3Z"/>
    <path class="cls-1" d="M238.6,36.1v.3c0,2.8-1.4,5.3-4.5,5.3s-4.8-2.5-4.8-5.2,1.9-5.3,4.9-5.3,3.2.9,4,2.4l-1.7.9c-.4-.9-1.2-1.6-2.3-1.6-1.9,0-2.8,1.9-2.8,3.6s.9,3.5,2.8,3.5,2.2-1.1,2.3-2.3h-2.1v-1.6h4.3Z"/>
  </g>
</svg>